M48
;DRILL file {KiCad (5.0.2)-1} date 2019/01/04 1:39:10
;FORMAT={-:-/ absolute / metric / decimal}
FMAT,2
METRIC,TZ
T1C0.400
T2C1.016
%
G90
G05
T1
X124.3Y-50.6
X124.8Y-33.1
X126.Y-34.45
X126.Y-48.8
X126.2Y-39.4
X128.3Y-47.9
X128.8Y-35.2
X129.439Y-32.223
X130.787Y-46.287
X131.6Y-37.7
X131.8Y-43.7
X132.2Y-33.8
X132.45Y-48.55
X134.2Y-49.65
X134.6Y-44.6
X135.6Y-39.8
X136.1Y-43.7
X136.8Y-51.
X138.9Y-42.9
X139.205Y-34.738
X139.4Y-40.8
X139.55Y-49.95
X140.9Y-40.8
X141.6Y-43.
X141.776Y-34.237
X144.Y-43.
X144.6Y-40.8
X146.6Y-40.8
X146.6Y-43.
X148.2Y-40.8
X148.4Y-43.
X149.9Y-43.
X151.2Y-33.3
X152.2Y-43.
X152.437Y-50.289
X153.187Y-40.813
X156.2Y-40.8
X156.2Y-43.4
X157.409Y-34.443
X157.48Y-48.941
X158.6Y-39.
X158.8Y-44.6
X161.2Y-46.
X161.6Y-37.
X163.25Y-47.5
X163.8Y-35.2
X164.19Y-40.04
X166.4Y-33.4
X166.4Y-50.2
T2
X118.11Y-30.48
X120.65Y-30.48
X123.19Y-30.48
X125.73Y-30.48
X128.27Y-30.48
X130.81Y-30.48
X133.35Y-30.48
X135.89Y-30.48
X138.43Y-30.48
X140.97Y-30.48
X143.51Y-30.48
X146.05Y-30.48
X148.59Y-30.48
X151.13Y-30.48
X153.67Y-30.48
X156.21Y-30.48
X158.75Y-30.48
X161.29Y-30.48
X163.83Y-30.48
X166.37Y-30.48
X168.91Y-30.48
X118.11Y-53.34
X120.65Y-53.34
X123.19Y-53.34
X125.73Y-53.34
X128.27Y-53.34
X130.81Y-53.34
X133.35Y-53.34
X135.89Y-53.34
X138.43Y-53.34
X140.97Y-53.34
X143.51Y-53.34
X146.05Y-53.34
X148.59Y-53.34
X151.13Y-53.34
X153.67Y-53.34
X156.21Y-53.34
X158.75Y-53.34
X161.29Y-53.34
X163.83Y-53.34
X166.37Y-53.34
X168.91Y-53.34
T0
M30
