G04 #@! TF.GenerationSoftware,KiCad,Pcbnew,(5.0.2)-1*
G04 #@! TF.CreationDate,2019-01-04T01:39:08+09:00*
G04 #@! TF.ProjectId,sdram,73647261-6d2e-46b6-9963-61645f706362,v1.0*
G04 #@! TF.SameCoordinates,Original*
G04 #@! TF.FileFunction,Copper,L2,Bot*
G04 #@! TF.FilePolarity,Positive*
%FSLAX46Y46*%
G04 Gerber Fmt 4.6, Leading zero omitted, Abs format (unit mm)*
G04 Created by KiCad (PCBNEW (5.0.2)-1) date 2019/01/04 1:39:08*
%MOMM*%
%LPD*%
G01*
G04 APERTURE LIST*
G04 #@! TA.AperFunction,ComponentPad*
%ADD10O,1.524000X3.048000*%
G04 #@! TD*
G04 #@! TA.AperFunction,ViaPad*
%ADD11C,0.800000*%
G04 #@! TD*
G04 #@! TA.AperFunction,Conductor*
%ADD12C,0.250000*%
G04 #@! TD*
G04 #@! TA.AperFunction,Conductor*
%ADD13C,0.254000*%
G04 #@! TD*
G04 APERTURE END LIST*
D10*
G04 #@! TO.P,J1,1*
G04 #@! TO.N,/VDD*
X118110000Y-53340000D03*
G04 #@! TO.P,J1,2*
G04 #@! TO.N,/DQ0*
X120650000Y-53340000D03*
G04 #@! TO.P,J1,3*
G04 #@! TO.N,/DQ1*
X123190000Y-53340000D03*
G04 #@! TO.P,J1,4*
G04 #@! TO.N,/DQ2*
X125730000Y-53340000D03*
G04 #@! TO.P,J1,5*
G04 #@! TO.N,/DQ3*
X128270000Y-53340000D03*
G04 #@! TO.P,J1,6*
G04 #@! TO.N,/DQ4*
X130810000Y-53340000D03*
G04 #@! TO.P,J1,7*
G04 #@! TO.N,/DQ5*
X133350000Y-53340000D03*
G04 #@! TO.P,J1,8*
G04 #@! TO.N,/DQ6*
X135890000Y-53340000D03*
G04 #@! TO.P,J1,9*
G04 #@! TO.N,/DQ7*
X138430000Y-53340000D03*
G04 #@! TO.P,J1,10*
G04 #@! TO.N,/DQML*
X140970000Y-53340000D03*
G04 #@! TO.P,J1,11*
G04 #@! TO.N,/WE*
X143510000Y-53340000D03*
G04 #@! TO.P,J1,12*
G04 #@! TO.N,/CAS*
X146050000Y-53340000D03*
G04 #@! TO.P,J1,13*
G04 #@! TO.N,/RAS*
X148590000Y-53340000D03*
G04 #@! TO.P,J1,14*
G04 #@! TO.N,/CS*
X151130000Y-53340000D03*
G04 #@! TO.P,J1,15*
G04 #@! TO.N,/BA0*
X153670000Y-53340000D03*
G04 #@! TO.P,J1,16*
G04 #@! TO.N,/BA1*
X156210000Y-53340000D03*
G04 #@! TO.P,J1,17*
G04 #@! TO.N,/A10*
X158750000Y-53340000D03*
G04 #@! TO.P,J1,18*
G04 #@! TO.N,/A0*
X161290000Y-53340000D03*
G04 #@! TO.P,J1,19*
G04 #@! TO.N,/A1*
X163830000Y-53340000D03*
G04 #@! TO.P,J1,20*
G04 #@! TO.N,/A2*
X166370000Y-53340000D03*
G04 #@! TO.P,J1,21*
G04 #@! TO.N,/A3*
X168910000Y-53340000D03*
G04 #@! TD*
G04 #@! TO.P,J2,21*
G04 #@! TO.N,GND*
X118110000Y-30480000D03*
G04 #@! TO.P,J2,20*
G04 #@! TO.N,/DQ15*
X120650000Y-30480000D03*
G04 #@! TO.P,J2,19*
G04 #@! TO.N,/DQ14*
X123190000Y-30480000D03*
G04 #@! TO.P,J2,18*
G04 #@! TO.N,/DQ13*
X125730000Y-30480000D03*
G04 #@! TO.P,J2,17*
G04 #@! TO.N,/DQ12*
X128270000Y-30480000D03*
G04 #@! TO.P,J2,16*
G04 #@! TO.N,/DQ11*
X130810000Y-30480000D03*
G04 #@! TO.P,J2,15*
G04 #@! TO.N,/DQ10*
X133350000Y-30480000D03*
G04 #@! TO.P,J2,14*
G04 #@! TO.N,/DQ9*
X135890000Y-30480000D03*
G04 #@! TO.P,J2,13*
G04 #@! TO.N,/DQ8*
X138430000Y-30480000D03*
G04 #@! TO.P,J2,12*
G04 #@! TO.N,N/C*
X140970000Y-30480000D03*
G04 #@! TO.P,J2,11*
G04 #@! TO.N,/DQMH*
X143510000Y-30480000D03*
G04 #@! TO.P,J2,10*
G04 #@! TO.N,/CLK*
X146050000Y-30480000D03*
G04 #@! TO.P,J2,9*
G04 #@! TO.N,/CKE*
X148590000Y-30480000D03*
G04 #@! TO.P,J2,8*
G04 #@! TO.N,N/C*
X151130000Y-30480000D03*
G04 #@! TO.P,J2,7*
G04 #@! TO.N,/A11*
X153670000Y-30480000D03*
G04 #@! TO.P,J2,6*
G04 #@! TO.N,/A9*
X156210000Y-30480000D03*
G04 #@! TO.P,J2,5*
G04 #@! TO.N,/A8*
X158750000Y-30480000D03*
G04 #@! TO.P,J2,4*
G04 #@! TO.N,/A7*
X161290000Y-30480000D03*
G04 #@! TO.P,J2,3*
G04 #@! TO.N,/A6*
X163830000Y-30480000D03*
G04 #@! TO.P,J2,2*
G04 #@! TO.N,/A5*
X166370000Y-30480000D03*
G04 #@! TO.P,J2,1*
G04 #@! TO.N,/A4*
X168910000Y-30480000D03*
G04 #@! TD*
D11*
G04 #@! TO.N,/VDD*
X141776400Y-34237400D03*
X152437400Y-50288600D03*
X139204700Y-34738100D03*
X136800000Y-51000000D03*
X134200000Y-49650000D03*
X139550000Y-49950000D03*
G04 #@! TO.N,GND*
X157408800Y-34442900D03*
X157480000Y-48940600D03*
X129439500Y-32222700D03*
X132200000Y-33800000D03*
X132450000Y-48550000D03*
X131800000Y-43700000D03*
X126200000Y-39400000D03*
X164190000Y-40040000D03*
X151200000Y-33300000D03*
G04 #@! TO.N,/DQ1*
X124300000Y-50600000D03*
G04 #@! TO.N,/DQ2*
X126000000Y-48800000D03*
G04 #@! TO.N,/DQ3*
X128300000Y-47900000D03*
G04 #@! TO.N,/DQ4*
X130787340Y-46287340D03*
G04 #@! TO.N,/DQ5*
X134600000Y-44600000D03*
G04 #@! TO.N,/DQ6*
X136100000Y-43700000D03*
G04 #@! TO.N,/DQ7*
X138900000Y-42900000D03*
G04 #@! TO.N,/DQML*
X141600000Y-43000000D03*
G04 #@! TO.N,/WE*
X144000000Y-43000000D03*
G04 #@! TO.N,/CAS*
X146600000Y-43000000D03*
G04 #@! TO.N,/RAS*
X148400000Y-43000000D03*
G04 #@! TO.N,/CS*
X149900000Y-43000000D03*
G04 #@! TO.N,/BA0*
X152200000Y-43000000D03*
G04 #@! TO.N,/BA1*
X156200000Y-43400000D03*
G04 #@! TO.N,/A10*
X158800000Y-44600000D03*
G04 #@! TO.N,/A0*
X161200000Y-46000000D03*
G04 #@! TO.N,/A1*
X163250000Y-47500000D03*
G04 #@! TO.N,/A2*
X166400000Y-50200000D03*
G04 #@! TO.N,/DQ14*
X124800000Y-33100000D03*
G04 #@! TO.N,/DQ13*
X126000000Y-34450000D03*
G04 #@! TO.N,/DQ12*
X128800000Y-35200000D03*
G04 #@! TO.N,/DQ11*
X131600000Y-37700000D03*
G04 #@! TO.N,/DQ10*
X135600000Y-39800000D03*
G04 #@! TO.N,/DQ9*
X139400000Y-40800000D03*
G04 #@! TO.N,/DQ8*
X140900000Y-40800000D03*
G04 #@! TO.N,/DQMH*
X144600000Y-40800000D03*
G04 #@! TO.N,/CLK*
X146600000Y-40800000D03*
G04 #@! TO.N,/CKE*
X148200000Y-40800000D03*
G04 #@! TO.N,/A11*
X153187000Y-40812700D03*
G04 #@! TO.N,/A9*
X156200000Y-40800000D03*
G04 #@! TO.N,/A8*
X158600000Y-39000000D03*
G04 #@! TO.N,/A7*
X161600000Y-37000000D03*
G04 #@! TO.N,/A6*
X163800000Y-35200000D03*
G04 #@! TO.N,/A5*
X166400000Y-33400000D03*
G04 #@! TD*
D12*
G04 #@! TO.N,/VDD*
X141625400Y-41148200D02*
X140635700Y-42137900D01*
X129312100Y-42137900D02*
X118110000Y-53340000D01*
X140241000Y-35772800D02*
X141776400Y-34237400D01*
X141625400Y-41148200D02*
X141625400Y-37157200D01*
X141625400Y-37157200D02*
X140241000Y-35772800D01*
X140241000Y-35772800D02*
X140239400Y-35772800D01*
X140239400Y-35772800D02*
X139204700Y-34738100D01*
X141625400Y-41148200D02*
X142092800Y-41615600D01*
X142092800Y-41615600D02*
X149550900Y-41615600D01*
X149550900Y-41615600D02*
X152437400Y-44502100D01*
X152437400Y-44502100D02*
X152437400Y-50288600D01*
X137400000Y-49834315D02*
X137400000Y-42137900D01*
X136800000Y-50434315D02*
X137400000Y-49834315D01*
X136800000Y-51000000D02*
X136800000Y-50434315D01*
X139636800Y-42137900D02*
X137400000Y-42137900D01*
X135325001Y-43412901D02*
X134050000Y-42137900D01*
X135325001Y-44948001D02*
X135325001Y-43412901D01*
X134200000Y-46073002D02*
X135325001Y-44948001D01*
X134200000Y-49650000D02*
X134200000Y-46073002D01*
X137400000Y-42137900D02*
X134050000Y-42137900D01*
X134050000Y-42137900D02*
X129312100Y-42137900D01*
X140300000Y-48634315D02*
X140300000Y-42137900D01*
X139550000Y-49384315D02*
X140300000Y-48634315D01*
X139550000Y-49950000D02*
X139550000Y-49384315D01*
X140635700Y-42137900D02*
X140300000Y-42137900D01*
X140300000Y-42137900D02*
X139636800Y-42137900D01*
G04 #@! TO.N,GND*
X157408800Y-34442900D02*
X157480000Y-34514100D01*
X118110000Y-30480000D02*
X123555400Y-35925400D01*
X129142500Y-35925400D02*
X129525400Y-35542500D01*
X129525400Y-35542500D02*
X129525400Y-32308600D01*
X129525400Y-32308600D02*
X129439500Y-32222700D01*
X129499601Y-38425001D02*
X127000000Y-35925400D01*
X132325001Y-38048001D02*
X131948001Y-38425001D01*
X132200000Y-37226998D02*
X132325001Y-37351999D01*
X132200000Y-33800000D02*
X132200000Y-37226998D01*
X123555400Y-35925400D02*
X127000000Y-35925400D01*
X131948001Y-38425001D02*
X129499601Y-38425001D01*
X132325001Y-37351999D02*
X132325001Y-38048001D01*
X127000000Y-35925400D02*
X129142500Y-35925400D01*
X132450000Y-48550000D02*
X132450000Y-44350000D01*
X132450000Y-44350000D02*
X131800000Y-43700000D01*
X126200000Y-36725400D02*
X127000000Y-35925400D01*
X126200000Y-39400000D02*
X126200000Y-36725400D01*
X162370000Y-41860000D02*
X164190000Y-40040000D01*
X157480000Y-41860000D02*
X162370000Y-41860000D01*
X157480000Y-41860000D02*
X157480000Y-48940600D01*
X157480000Y-34514100D02*
X157480000Y-41860000D01*
G04 #@! TO.N,/DQ0*
X120650000Y-53340000D02*
X120650000Y-52850000D01*
G04 #@! TO.N,/DQ1*
X123190000Y-53340000D02*
X123190000Y-52578000D01*
X123190000Y-52578000D02*
X123300000Y-52468000D01*
X123300000Y-52468000D02*
X123300000Y-51300000D01*
X123300000Y-51300000D02*
X124000000Y-50600000D01*
X124000000Y-50600000D02*
X124300000Y-50600000D01*
G04 #@! TO.N,/DQ2*
X125730000Y-53340000D02*
X125730000Y-49070000D01*
X125730000Y-49070000D02*
X126000000Y-48800000D01*
G04 #@! TO.N,/DQ3*
X128270000Y-53340000D02*
X128270000Y-47930000D01*
X128270000Y-47930000D02*
X128300000Y-47900000D01*
G04 #@! TO.N,/DQ4*
X130810000Y-46310000D02*
X130787340Y-46287340D01*
X130810000Y-53340000D02*
X130810000Y-46310000D01*
G04 #@! TO.N,/DQ5*
X133350000Y-53340000D02*
X133350000Y-45850000D01*
X133350000Y-45850000D02*
X134600000Y-44600000D01*
G04 #@! TO.N,/DQ6*
X135890000Y-53340000D02*
X135890000Y-43910000D01*
X135890000Y-43910000D02*
X136100000Y-43700000D01*
G04 #@! TO.N,/DQ7*
X138430000Y-53340000D02*
X138430000Y-43370000D01*
X138430000Y-43370000D02*
X138900000Y-42900000D01*
G04 #@! TO.N,/DQML*
X140970000Y-53340000D02*
X140970000Y-50200000D01*
X140970000Y-50200000D02*
X140978000Y-50133200D01*
X140978000Y-50133200D02*
X141000000Y-50069800D01*
X141000000Y-50069800D02*
X141035000Y-50013000D01*
X141035000Y-50013000D02*
X141083000Y-49965400D01*
X141083000Y-49965400D02*
X141140000Y-49929700D01*
X141140000Y-49929700D02*
X141203000Y-49907500D01*
X141203000Y-49907500D02*
X141270000Y-49900000D01*
X141270000Y-49900000D02*
X141480000Y-49900000D01*
X141480000Y-49900000D02*
X141547000Y-49892500D01*
X141547000Y-49892500D02*
X141610000Y-49870300D01*
X141610000Y-49870300D02*
X141667000Y-49834500D01*
X141667000Y-49834500D02*
X141714000Y-49787000D01*
X141714000Y-49787000D02*
X141750000Y-49730200D01*
X141750000Y-49730200D02*
X141772000Y-49666800D01*
X141772000Y-49666800D02*
X141780000Y-49600000D01*
X141780000Y-49600000D02*
X141772000Y-49533200D01*
X141772000Y-49533200D02*
X141750000Y-49469800D01*
X141750000Y-49469800D02*
X141714000Y-49413000D01*
X141714000Y-49413000D02*
X141667000Y-49365400D01*
X141667000Y-49365400D02*
X141610000Y-49329700D01*
X141610000Y-49329700D02*
X141547000Y-49307500D01*
X141547000Y-49307500D02*
X141480000Y-49300000D01*
X141480000Y-49300000D02*
X141270000Y-49300000D01*
X141270000Y-49300000D02*
X141203000Y-49292500D01*
X141203000Y-49292500D02*
X141140000Y-49270300D01*
X141140000Y-49270300D02*
X141083000Y-49234500D01*
X141083000Y-49234500D02*
X141035000Y-49187000D01*
X141035000Y-49187000D02*
X141000000Y-49130200D01*
X141000000Y-49130200D02*
X140978000Y-49066800D01*
X140978000Y-49066800D02*
X140970000Y-49000000D01*
X140970000Y-49000000D02*
X140970000Y-43630000D01*
X140970000Y-43630000D02*
X141600000Y-43000000D01*
G04 #@! TO.N,/WE*
X143510000Y-53340000D02*
X143510000Y-50000000D01*
X143510000Y-50000000D02*
X143518000Y-49933200D01*
X143518000Y-49933200D02*
X143540000Y-49869800D01*
X143540000Y-49869800D02*
X143575000Y-49813000D01*
X143575000Y-49813000D02*
X143623000Y-49765400D01*
X143623000Y-49765400D02*
X143680000Y-49729700D01*
X143680000Y-49729700D02*
X143743000Y-49707500D01*
X143743000Y-49707500D02*
X143810000Y-49700000D01*
X143810000Y-49700000D02*
X143860000Y-49700000D01*
X143860000Y-49700000D02*
X143927000Y-49692500D01*
X143927000Y-49692500D02*
X143990000Y-49670300D01*
X143990000Y-49670300D02*
X144047000Y-49634500D01*
X144047000Y-49634500D02*
X144095000Y-49587000D01*
X144095000Y-49587000D02*
X144130000Y-49530200D01*
X144130000Y-49530200D02*
X144152000Y-49466800D01*
X144152000Y-49466800D02*
X144160000Y-49400000D01*
X144160000Y-49400000D02*
X144152000Y-49333200D01*
X144152000Y-49333200D02*
X144130000Y-49269800D01*
X144130000Y-49269800D02*
X144095000Y-49213000D01*
X144095000Y-49213000D02*
X144047000Y-49165400D01*
X144047000Y-49165400D02*
X143990000Y-49129700D01*
X143990000Y-49129700D02*
X143927000Y-49107500D01*
X143927000Y-49107500D02*
X143860000Y-49100000D01*
X143860000Y-49100000D02*
X143160000Y-49100000D01*
X143160000Y-49100000D02*
X143093000Y-49092500D01*
X143093000Y-49092500D02*
X143030000Y-49070300D01*
X143030000Y-49070300D02*
X142973000Y-49034500D01*
X142973000Y-49034500D02*
X142925000Y-48987000D01*
X142925000Y-48987000D02*
X142890000Y-48930200D01*
X142890000Y-48930200D02*
X142868000Y-48866800D01*
X142868000Y-48866800D02*
X142860000Y-48800000D01*
X142860000Y-48800000D02*
X142868000Y-48733200D01*
X142868000Y-48733200D02*
X142890000Y-48669800D01*
X142890000Y-48669800D02*
X142925000Y-48613000D01*
X142925000Y-48613000D02*
X142973000Y-48565400D01*
X142973000Y-48565400D02*
X143030000Y-48529700D01*
X143030000Y-48529700D02*
X143093000Y-48507500D01*
X143093000Y-48507500D02*
X143160000Y-48500000D01*
X143160000Y-48500000D02*
X143210000Y-48500000D01*
X143210000Y-48500000D02*
X143277000Y-48492500D01*
X143277000Y-48492500D02*
X143340000Y-48470300D01*
X143340000Y-48470300D02*
X143397000Y-48434500D01*
X143397000Y-48434500D02*
X143445000Y-48387000D01*
X143445000Y-48387000D02*
X143480000Y-48330200D01*
X143480000Y-48330200D02*
X143502000Y-48266800D01*
X143502000Y-48266800D02*
X143510000Y-48200000D01*
X143510000Y-48200000D02*
X143510000Y-43490000D01*
X143510000Y-43490000D02*
X144000000Y-43000000D01*
G04 #@! TO.N,/CAS*
X146050000Y-53340000D02*
X146050000Y-50150000D01*
X146050000Y-50150000D02*
X146058000Y-50083200D01*
X146058000Y-50083200D02*
X146080000Y-50019800D01*
X146080000Y-50019800D02*
X146115000Y-49963000D01*
X146115000Y-49963000D02*
X146163000Y-49915400D01*
X146163000Y-49915400D02*
X146220000Y-49879700D01*
X146220000Y-49879700D02*
X146283000Y-49857500D01*
X146283000Y-49857500D02*
X146350000Y-49850000D01*
X146350000Y-49850000D02*
X146580000Y-49850000D01*
X146580000Y-49850000D02*
X146647000Y-49842500D01*
X146647000Y-49842500D02*
X146710000Y-49820300D01*
X146710000Y-49820300D02*
X146767000Y-49784500D01*
X146767000Y-49784500D02*
X146815000Y-49737000D01*
X146815000Y-49737000D02*
X146850000Y-49680200D01*
X146850000Y-49680200D02*
X146873000Y-49616800D01*
X146873000Y-49616800D02*
X146880000Y-49550000D01*
X146880000Y-49550000D02*
X146873000Y-49483200D01*
X146873000Y-49483200D02*
X146850000Y-49419800D01*
X146850000Y-49419800D02*
X146815000Y-49363000D01*
X146815000Y-49363000D02*
X146767000Y-49315400D01*
X146767000Y-49315400D02*
X146710000Y-49279700D01*
X146710000Y-49279700D02*
X146647000Y-49257500D01*
X146647000Y-49257500D02*
X146580000Y-49250000D01*
X146580000Y-49250000D02*
X145520000Y-49250000D01*
X145520000Y-49250000D02*
X145453000Y-49242500D01*
X145453000Y-49242500D02*
X145390000Y-49220300D01*
X145390000Y-49220300D02*
X145333000Y-49184500D01*
X145333000Y-49184500D02*
X145285000Y-49137000D01*
X145285000Y-49137000D02*
X145250000Y-49080200D01*
X145250000Y-49080200D02*
X145227000Y-49016800D01*
X145227000Y-49016800D02*
X145220000Y-48950000D01*
X145220000Y-48950000D02*
X145227000Y-48883200D01*
X145227000Y-48883200D02*
X145250000Y-48819800D01*
X145250000Y-48819800D02*
X145285000Y-48763000D01*
X145285000Y-48763000D02*
X145333000Y-48715400D01*
X145333000Y-48715400D02*
X145390000Y-48679700D01*
X145390000Y-48679700D02*
X145453000Y-48657500D01*
X145453000Y-48657500D02*
X145520000Y-48650000D01*
X145520000Y-48650000D02*
X145750000Y-48650000D01*
X145750000Y-48650000D02*
X145817000Y-48642500D01*
X145817000Y-48642500D02*
X145880000Y-48620300D01*
X145880000Y-48620300D02*
X145937000Y-48584500D01*
X145937000Y-48584500D02*
X145985000Y-48537000D01*
X145985000Y-48537000D02*
X146020000Y-48480200D01*
X146020000Y-48480200D02*
X146042000Y-48416800D01*
X146042000Y-48416800D02*
X146050000Y-48350000D01*
X146050000Y-48350000D02*
X146050000Y-43550000D01*
X146050000Y-43550000D02*
X146600000Y-43000000D01*
G04 #@! TO.N,/RAS*
X148590000Y-53340000D02*
X148590000Y-50050000D01*
X148590000Y-50050000D02*
X148598000Y-49983200D01*
X148598000Y-49983200D02*
X148620000Y-49919800D01*
X148620000Y-49919800D02*
X148655000Y-49863000D01*
X148655000Y-49863000D02*
X148703000Y-49815400D01*
X148703000Y-49815400D02*
X148760000Y-49779700D01*
X148760000Y-49779700D02*
X148823000Y-49757500D01*
X148823000Y-49757500D02*
X148890000Y-49750000D01*
X148890000Y-49750000D02*
X149199000Y-49750000D01*
X149199000Y-49750000D02*
X149266000Y-49742500D01*
X149266000Y-49742500D02*
X149329000Y-49720300D01*
X149329000Y-49720300D02*
X149386000Y-49684500D01*
X149386000Y-49684500D02*
X149433000Y-49637000D01*
X149433000Y-49637000D02*
X149469000Y-49580200D01*
X149469000Y-49580200D02*
X149491000Y-49516800D01*
X149491000Y-49516800D02*
X149499000Y-49450000D01*
X149499000Y-49450000D02*
X149491000Y-49383200D01*
X149491000Y-49383200D02*
X149469000Y-49319800D01*
X149469000Y-49319800D02*
X149433000Y-49263000D01*
X149433000Y-49263000D02*
X149386000Y-49215400D01*
X149386000Y-49215400D02*
X149329000Y-49179700D01*
X149329000Y-49179700D02*
X149266000Y-49157500D01*
X149266000Y-49157500D02*
X149199000Y-49150000D01*
X149199000Y-49150000D02*
X147981000Y-49150000D01*
X147981000Y-49150000D02*
X147914000Y-49142500D01*
X147914000Y-49142500D02*
X147851000Y-49120300D01*
X147851000Y-49120300D02*
X147794000Y-49084500D01*
X147794000Y-49084500D02*
X147747000Y-49037000D01*
X147747000Y-49037000D02*
X147711000Y-48980200D01*
X147711000Y-48980200D02*
X147689000Y-48916800D01*
X147689000Y-48916800D02*
X147681000Y-48850000D01*
X147681000Y-48850000D02*
X147689000Y-48783200D01*
X147689000Y-48783200D02*
X147711000Y-48719800D01*
X147711000Y-48719800D02*
X147747000Y-48663000D01*
X147747000Y-48663000D02*
X147794000Y-48615400D01*
X147794000Y-48615400D02*
X147851000Y-48579700D01*
X147851000Y-48579700D02*
X147914000Y-48557500D01*
X147914000Y-48557500D02*
X147981000Y-48550000D01*
X147981000Y-48550000D02*
X148290000Y-48550000D01*
X148290000Y-48550000D02*
X148357000Y-48542500D01*
X148357000Y-48542500D02*
X148420000Y-48520300D01*
X148420000Y-48520300D02*
X148477000Y-48484500D01*
X148477000Y-48484500D02*
X148525000Y-48437000D01*
X148525000Y-48437000D02*
X148560000Y-48380200D01*
X148560000Y-48380200D02*
X148582000Y-48316800D01*
X148582000Y-48316800D02*
X148590000Y-48250000D01*
X148590000Y-48250000D02*
X148590000Y-43190000D01*
X148590000Y-43190000D02*
X148400000Y-43000000D01*
G04 #@! TO.N,/CS*
X151130000Y-53340000D02*
X151130000Y-50050000D01*
X151130000Y-50050000D02*
X151138000Y-49983200D01*
X151138000Y-49983200D02*
X151160000Y-49919800D01*
X151160000Y-49919800D02*
X151195000Y-49863000D01*
X151195000Y-49863000D02*
X151243000Y-49815400D01*
X151243000Y-49815400D02*
X151300000Y-49779700D01*
X151300000Y-49779700D02*
X151363000Y-49757500D01*
X151363000Y-49757500D02*
X151430000Y-49750000D01*
X151430000Y-49750000D02*
X151559000Y-49750000D01*
X151559000Y-49750000D02*
X151625000Y-49742500D01*
X151625000Y-49742500D02*
X151689000Y-49720300D01*
X151689000Y-49720300D02*
X151746000Y-49684500D01*
X151746000Y-49684500D02*
X151793000Y-49637000D01*
X151793000Y-49637000D02*
X151829000Y-49580200D01*
X151829000Y-49580200D02*
X151851000Y-49516800D01*
X151851000Y-49516800D02*
X151859000Y-49450000D01*
X151859000Y-49450000D02*
X151851000Y-49383200D01*
X151851000Y-49383200D02*
X151829000Y-49319800D01*
X151829000Y-49319800D02*
X151793000Y-49263000D01*
X151793000Y-49263000D02*
X151746000Y-49215400D01*
X151746000Y-49215400D02*
X151689000Y-49179700D01*
X151689000Y-49179700D02*
X151625000Y-49157500D01*
X151625000Y-49157500D02*
X151559000Y-49150000D01*
X151559000Y-49150000D02*
X150701000Y-49150000D01*
X150701000Y-49150000D02*
X150635000Y-49142500D01*
X150635000Y-49142500D02*
X150571000Y-49120300D01*
X150571000Y-49120300D02*
X150514000Y-49084500D01*
X150514000Y-49084500D02*
X150467000Y-49037000D01*
X150467000Y-49037000D02*
X150431000Y-48980200D01*
X150431000Y-48980200D02*
X150409000Y-48916800D01*
X150409000Y-48916800D02*
X150401000Y-48850000D01*
X150401000Y-48850000D02*
X150409000Y-48783200D01*
X150409000Y-48783200D02*
X150431000Y-48719800D01*
X150431000Y-48719800D02*
X150467000Y-48663000D01*
X150467000Y-48663000D02*
X150514000Y-48615400D01*
X150514000Y-48615400D02*
X150571000Y-48579700D01*
X150571000Y-48579700D02*
X150635000Y-48557500D01*
X150635000Y-48557500D02*
X150701000Y-48550000D01*
X150701000Y-48550000D02*
X150830000Y-48550000D01*
X150830000Y-48550000D02*
X150897000Y-48542500D01*
X150897000Y-48542500D02*
X150960000Y-48520300D01*
X150960000Y-48520300D02*
X151017000Y-48484500D01*
X151017000Y-48484500D02*
X151065000Y-48437000D01*
X151065000Y-48437000D02*
X151100000Y-48380200D01*
X151100000Y-48380200D02*
X151122000Y-48316800D01*
X151122000Y-48316800D02*
X151130000Y-48250000D01*
X151130000Y-48250000D02*
X151130000Y-44230000D01*
X151130000Y-44230000D02*
X149900000Y-43000000D01*
G04 #@! TO.N,/BA0*
X153670000Y-53340000D02*
X153670000Y-49250000D01*
X153670000Y-49250000D02*
X153678000Y-49183200D01*
X153678000Y-49183200D02*
X153700000Y-49119800D01*
X153700000Y-49119800D02*
X153735000Y-49063000D01*
X153735000Y-49063000D02*
X153783000Y-49015400D01*
X153783000Y-49015400D02*
X153840000Y-48979700D01*
X153840000Y-48979700D02*
X153903000Y-48957500D01*
X153903000Y-48957500D02*
X153970000Y-48950000D01*
X153970000Y-48950000D02*
X154337000Y-48950000D01*
X154337000Y-48950000D02*
X154404000Y-48942500D01*
X154404000Y-48942500D02*
X154467000Y-48920300D01*
X154467000Y-48920300D02*
X154524000Y-48884500D01*
X154524000Y-48884500D02*
X154572000Y-48837000D01*
X154572000Y-48837000D02*
X154608000Y-48780200D01*
X154608000Y-48780200D02*
X154630000Y-48716800D01*
X154630000Y-48716800D02*
X154637000Y-48650000D01*
X154637000Y-48650000D02*
X154630000Y-48583200D01*
X154630000Y-48583200D02*
X154608000Y-48519800D01*
X154608000Y-48519800D02*
X154572000Y-48463000D01*
X154572000Y-48463000D02*
X154524000Y-48415400D01*
X154524000Y-48415400D02*
X154467000Y-48379700D01*
X154467000Y-48379700D02*
X154404000Y-48357500D01*
X154404000Y-48357500D02*
X154337000Y-48350000D01*
X154337000Y-48350000D02*
X153970000Y-48350000D01*
X153970000Y-48350000D02*
X153903000Y-48342500D01*
X153903000Y-48342500D02*
X153840000Y-48320300D01*
X153840000Y-48320300D02*
X153783000Y-48284500D01*
X153783000Y-48284500D02*
X153735000Y-48237000D01*
X153735000Y-48237000D02*
X153700000Y-48180200D01*
X153700000Y-48180200D02*
X153678000Y-48116800D01*
X153678000Y-48116800D02*
X153670000Y-48050000D01*
X153670000Y-48050000D02*
X153670000Y-44470000D01*
X153670000Y-44470000D02*
X152200000Y-43000000D01*
G04 #@! TO.N,/BA1*
X156210000Y-53340000D02*
X156210000Y-43410000D01*
X156210000Y-43410000D02*
X156200000Y-43400000D01*
G04 #@! TO.N,/A10*
X158750000Y-53340000D02*
X158750000Y-44650000D01*
X158750000Y-44650000D02*
X158800000Y-44600000D01*
G04 #@! TO.N,/A0*
X161290000Y-53340000D02*
X161290000Y-46090000D01*
X161290000Y-46090000D02*
X161200000Y-46000000D01*
G04 #@! TO.N,/A1*
X163830000Y-53340000D02*
X163830000Y-48080000D01*
X163830000Y-48080000D02*
X163250000Y-47500000D01*
G04 #@! TO.N,/A2*
X166370000Y-53340000D02*
X166370000Y-50230000D01*
X166370000Y-50230000D02*
X166400000Y-50200000D01*
G04 #@! TO.N,/DQ15*
X120800000Y-30630000D02*
X120650000Y-30480000D01*
G04 #@! TO.N,/DQ14*
X123190000Y-30480000D02*
X123190000Y-31990000D01*
X123190000Y-31990000D02*
X124300000Y-33100000D01*
X124300000Y-33100000D02*
X124800000Y-33100000D01*
G04 #@! TO.N,/DQ13*
X125730000Y-30480000D02*
X125730000Y-34180000D01*
X125730000Y-34180000D02*
X126000000Y-34450000D01*
G04 #@! TO.N,/DQ12*
X128270000Y-30480000D02*
X128050000Y-30700000D01*
X128050000Y-30700000D02*
X128050000Y-34450000D01*
X128050000Y-34450000D02*
X128800000Y-35200000D01*
G04 #@! TO.N,/DQ11*
X130810000Y-30480000D02*
X130650000Y-30640000D01*
X130650000Y-30640000D02*
X130650000Y-36750000D01*
X130650000Y-36750000D02*
X131600000Y-37700000D01*
G04 #@! TO.N,/DQ10*
X133350000Y-30480000D02*
X133350000Y-37550000D01*
X133350000Y-37550000D02*
X135600000Y-39800000D01*
G04 #@! TO.N,/DQ9*
X135890000Y-30480000D02*
X135890000Y-38690000D01*
X135890000Y-38690000D02*
X138000000Y-40800000D01*
X138000000Y-40800000D02*
X139400000Y-40800000D01*
G04 #@! TO.N,/DQ8*
X138430000Y-30480000D02*
X138430000Y-32700000D01*
X138430000Y-32700000D02*
X138422000Y-32766800D01*
X138422000Y-32766800D02*
X138400000Y-32830200D01*
X138400000Y-32830200D02*
X138365000Y-32887000D01*
X138365000Y-32887000D02*
X138317000Y-32934500D01*
X138317000Y-32934500D02*
X138260000Y-32970300D01*
X138260000Y-32970300D02*
X138197000Y-32992500D01*
X138197000Y-32992500D02*
X138130000Y-33000000D01*
X138130000Y-33000000D02*
X137905000Y-33000000D01*
X137905000Y-33000000D02*
X137838000Y-33007500D01*
X137838000Y-33007500D02*
X137775000Y-33029700D01*
X137775000Y-33029700D02*
X137718000Y-33065400D01*
X137718000Y-33065400D02*
X137670000Y-33113000D01*
X137670000Y-33113000D02*
X137634000Y-33169800D01*
X137634000Y-33169800D02*
X137612000Y-33233200D01*
X137612000Y-33233200D02*
X137605000Y-33300000D01*
X137605000Y-33300000D02*
X137612000Y-33366800D01*
X137612000Y-33366800D02*
X137634000Y-33430200D01*
X137634000Y-33430200D02*
X137670000Y-33487000D01*
X137670000Y-33487000D02*
X137718000Y-33534500D01*
X137718000Y-33534500D02*
X137775000Y-33570300D01*
X137775000Y-33570300D02*
X137838000Y-33592500D01*
X137838000Y-33592500D02*
X137905000Y-33600000D01*
X137905000Y-33600000D02*
X138130000Y-33600000D01*
X138130000Y-33600000D02*
X138197000Y-33607500D01*
X138197000Y-33607500D02*
X138260000Y-33629700D01*
X138260000Y-33629700D02*
X138317000Y-33665400D01*
X138317000Y-33665400D02*
X138365000Y-33713000D01*
X138365000Y-33713000D02*
X138400000Y-33769800D01*
X138400000Y-33769800D02*
X138422000Y-33833200D01*
X138422000Y-33833200D02*
X138430000Y-33900000D01*
X138430000Y-33900000D02*
X138430000Y-38330000D01*
X138430000Y-38330000D02*
X140900000Y-40800000D01*
G04 #@! TO.N,/DQMH*
X143200000Y-32200000D02*
X143200000Y-33000000D01*
X143200000Y-33000000D02*
X143192000Y-33066800D01*
X143192000Y-33066800D02*
X143170000Y-33130200D01*
X143170000Y-33130200D02*
X143135000Y-33187000D01*
X143135000Y-33187000D02*
X143087000Y-33234500D01*
X143087000Y-33234500D02*
X143030000Y-33270300D01*
X143030000Y-33270300D02*
X142967000Y-33292500D01*
X142967000Y-33292500D02*
X142900000Y-33300000D01*
X142900000Y-33300000D02*
X142688000Y-33300000D01*
X142688000Y-33300000D02*
X142621000Y-33307500D01*
X142621000Y-33307500D02*
X142558000Y-33329700D01*
X142558000Y-33329700D02*
X142501000Y-33365400D01*
X142501000Y-33365400D02*
X142454000Y-33413000D01*
X142454000Y-33413000D02*
X142418000Y-33469800D01*
X142418000Y-33469800D02*
X142396000Y-33533200D01*
X142396000Y-33533200D02*
X142388000Y-33600000D01*
X142388000Y-33600000D02*
X142396000Y-33666800D01*
X142396000Y-33666800D02*
X142418000Y-33730200D01*
X142418000Y-33730200D02*
X142454000Y-33787000D01*
X142454000Y-33787000D02*
X142501000Y-33834500D01*
X142501000Y-33834500D02*
X142558000Y-33870300D01*
X142558000Y-33870300D02*
X142621000Y-33892500D01*
X142621000Y-33892500D02*
X142688000Y-33900000D01*
X142688000Y-33900000D02*
X143712000Y-33900000D01*
X143712000Y-33900000D02*
X143779000Y-33907500D01*
X143779000Y-33907500D02*
X143842000Y-33929700D01*
X143842000Y-33929700D02*
X143899000Y-33965400D01*
X143899000Y-33965400D02*
X143946000Y-34013000D01*
X143946000Y-34013000D02*
X143982000Y-34069800D01*
X143982000Y-34069800D02*
X144004000Y-34133200D01*
X144004000Y-34133200D02*
X144012000Y-34200000D01*
X144012000Y-34200000D02*
X144004000Y-34266800D01*
X144004000Y-34266800D02*
X143982000Y-34330200D01*
X143982000Y-34330200D02*
X143946000Y-34387000D01*
X143946000Y-34387000D02*
X143899000Y-34434500D01*
X143899000Y-34434500D02*
X143842000Y-34470300D01*
X143842000Y-34470300D02*
X143779000Y-34492500D01*
X143779000Y-34492500D02*
X143712000Y-34500000D01*
X143712000Y-34500000D02*
X142688000Y-34500000D01*
X142688000Y-34500000D02*
X142621000Y-34507500D01*
X142621000Y-34507500D02*
X142558000Y-34529700D01*
X142558000Y-34529700D02*
X142501000Y-34565400D01*
X142501000Y-34565400D02*
X142454000Y-34613000D01*
X142454000Y-34613000D02*
X142418000Y-34669800D01*
X142418000Y-34669800D02*
X142396000Y-34733200D01*
X142396000Y-34733200D02*
X142388000Y-34800000D01*
X142388000Y-34800000D02*
X142396000Y-34866800D01*
X142396000Y-34866800D02*
X142418000Y-34930200D01*
X142418000Y-34930200D02*
X142454000Y-34987000D01*
X142454000Y-34987000D02*
X142501000Y-35034500D01*
X142501000Y-35034500D02*
X142558000Y-35070300D01*
X142558000Y-35070300D02*
X142621000Y-35092500D01*
X142621000Y-35092500D02*
X142688000Y-35100000D01*
X142688000Y-35100000D02*
X142900000Y-35100000D01*
X142900000Y-35100000D02*
X142967000Y-35107500D01*
X142967000Y-35107500D02*
X143030000Y-35129700D01*
X143030000Y-35129700D02*
X143087000Y-35165400D01*
X143087000Y-35165400D02*
X143135000Y-35213000D01*
X143135000Y-35213000D02*
X143170000Y-35269800D01*
X143170000Y-35269800D02*
X143192000Y-35333200D01*
X143192000Y-35333200D02*
X143200000Y-35400000D01*
X143200000Y-35400000D02*
X143200000Y-39400000D01*
X143200000Y-39400000D02*
X144600000Y-40800000D01*
X143200000Y-32200000D02*
X143192000Y-32266800D01*
X143510000Y-30480000D02*
X143200000Y-30790000D01*
X143200000Y-30790000D02*
X143200000Y-32200000D01*
G04 #@! TO.N,/CLK*
X146050000Y-30480000D02*
X146050000Y-33350000D01*
X146050000Y-33350000D02*
X146042000Y-33416800D01*
X146042000Y-33416800D02*
X146020000Y-33480200D01*
X146020000Y-33480200D02*
X145985000Y-33537000D01*
X145985000Y-33537000D02*
X145937000Y-33584500D01*
X145937000Y-33584500D02*
X145880000Y-33620300D01*
X145880000Y-33620300D02*
X145817000Y-33642500D01*
X145817000Y-33642500D02*
X145750000Y-33650000D01*
X145750000Y-33650000D02*
X145415000Y-33650000D01*
X145415000Y-33650000D02*
X145348000Y-33657500D01*
X145348000Y-33657500D02*
X145285000Y-33679700D01*
X145285000Y-33679700D02*
X145228000Y-33715400D01*
X145228000Y-33715400D02*
X145180000Y-33763000D01*
X145180000Y-33763000D02*
X145145000Y-33819800D01*
X145145000Y-33819800D02*
X145122000Y-33883200D01*
X145122000Y-33883200D02*
X145115000Y-33950000D01*
X145115000Y-33950000D02*
X145122000Y-34016800D01*
X145122000Y-34016800D02*
X145145000Y-34080200D01*
X145145000Y-34080200D02*
X145180000Y-34137000D01*
X145180000Y-34137000D02*
X145228000Y-34184500D01*
X145228000Y-34184500D02*
X145285000Y-34220300D01*
X145285000Y-34220300D02*
X145348000Y-34242500D01*
X145348000Y-34242500D02*
X145415000Y-34250000D01*
X145415000Y-34250000D02*
X146685000Y-34250000D01*
X146685000Y-34250000D02*
X146752000Y-34257500D01*
X146752000Y-34257500D02*
X146815000Y-34279700D01*
X146815000Y-34279700D02*
X146872000Y-34315400D01*
X146872000Y-34315400D02*
X146920000Y-34363000D01*
X146920000Y-34363000D02*
X146955000Y-34419800D01*
X146955000Y-34419800D02*
X146978000Y-34483200D01*
X146978000Y-34483200D02*
X146985000Y-34550000D01*
X146985000Y-34550000D02*
X146978000Y-34616800D01*
X146978000Y-34616800D02*
X146955000Y-34680200D01*
X146955000Y-34680200D02*
X146920000Y-34737000D01*
X146920000Y-34737000D02*
X146872000Y-34784500D01*
X146872000Y-34784500D02*
X146815000Y-34820300D01*
X146815000Y-34820300D02*
X146752000Y-34842500D01*
X146752000Y-34842500D02*
X146685000Y-34850000D01*
X146685000Y-34850000D02*
X146350000Y-34850000D01*
X146350000Y-34850000D02*
X146283000Y-34857500D01*
X146283000Y-34857500D02*
X146220000Y-34879700D01*
X146220000Y-34879700D02*
X146163000Y-34915400D01*
X146163000Y-34915400D02*
X146115000Y-34963000D01*
X146115000Y-34963000D02*
X146080000Y-35019800D01*
X146080000Y-35019800D02*
X146058000Y-35083200D01*
X146058000Y-35083200D02*
X146050000Y-35150000D01*
X146050000Y-35150000D02*
X146050000Y-40250000D01*
X146050000Y-40250000D02*
X146600000Y-40800000D01*
G04 #@! TO.N,/CKE*
X148590000Y-30480000D02*
X148200000Y-30870000D01*
X148200000Y-30870000D02*
X148200000Y-33400000D01*
X148200000Y-33400000D02*
X148192000Y-33466800D01*
X148192000Y-33466800D02*
X148170000Y-33530200D01*
X148170000Y-33530200D02*
X148135000Y-33587000D01*
X148135000Y-33587000D02*
X148087000Y-33634500D01*
X148087000Y-33634500D02*
X148030000Y-33670300D01*
X148030000Y-33670300D02*
X147967000Y-33692500D01*
X147967000Y-33692500D02*
X147900000Y-33700000D01*
X147900000Y-33700000D02*
X147831000Y-33700000D01*
X147831000Y-33700000D02*
X147764000Y-33707500D01*
X147764000Y-33707500D02*
X147701000Y-33729700D01*
X147701000Y-33729700D02*
X147644000Y-33765400D01*
X147644000Y-33765400D02*
X147596000Y-33813000D01*
X147596000Y-33813000D02*
X147561000Y-33869800D01*
X147561000Y-33869800D02*
X147538000Y-33933200D01*
X147538000Y-33933200D02*
X147531000Y-34000000D01*
X147531000Y-34000000D02*
X147538000Y-34066800D01*
X147538000Y-34066800D02*
X147561000Y-34130200D01*
X147561000Y-34130200D02*
X147596000Y-34187000D01*
X147596000Y-34187000D02*
X147644000Y-34234500D01*
X147644000Y-34234500D02*
X147701000Y-34270300D01*
X147701000Y-34270300D02*
X147764000Y-34292500D01*
X147764000Y-34292500D02*
X147831000Y-34300000D01*
X147831000Y-34300000D02*
X148669000Y-34300000D01*
X148669000Y-34300000D02*
X148736000Y-34307500D01*
X148736000Y-34307500D02*
X148799000Y-34329700D01*
X148799000Y-34329700D02*
X148856000Y-34365400D01*
X148856000Y-34365400D02*
X148904000Y-34413000D01*
X148904000Y-34413000D02*
X148939000Y-34469800D01*
X148939000Y-34469800D02*
X148962000Y-34533200D01*
X148962000Y-34533200D02*
X148969000Y-34600000D01*
X148969000Y-34600000D02*
X148962000Y-34666800D01*
X148962000Y-34666800D02*
X148939000Y-34730200D01*
X148939000Y-34730200D02*
X148904000Y-34787000D01*
X148904000Y-34787000D02*
X148856000Y-34834500D01*
X148856000Y-34834500D02*
X148799000Y-34870300D01*
X148799000Y-34870300D02*
X148736000Y-34892500D01*
X148736000Y-34892500D02*
X148669000Y-34900000D01*
X148669000Y-34900000D02*
X147781000Y-34900000D01*
X147781000Y-34900000D02*
X147714000Y-34907500D01*
X147714000Y-34907500D02*
X147651000Y-34929700D01*
X147651000Y-34929700D02*
X147594000Y-34965400D01*
X147594000Y-34965400D02*
X147546000Y-35013000D01*
X147546000Y-35013000D02*
X147511000Y-35069800D01*
X147511000Y-35069800D02*
X147488000Y-35133200D01*
X147488000Y-35133200D02*
X147481000Y-35200000D01*
X147481000Y-35200000D02*
X147488000Y-35266800D01*
X147488000Y-35266800D02*
X147511000Y-35330200D01*
X147511000Y-35330200D02*
X147546000Y-35387000D01*
X147546000Y-35387000D02*
X147594000Y-35434500D01*
X147594000Y-35434500D02*
X147651000Y-35470300D01*
X147651000Y-35470300D02*
X147714000Y-35492500D01*
X147714000Y-35492500D02*
X147781000Y-35500000D01*
X147781000Y-35500000D02*
X147900000Y-35500000D01*
X147900000Y-35500000D02*
X147967000Y-35507500D01*
X147967000Y-35507500D02*
X148030000Y-35529700D01*
X148030000Y-35529700D02*
X148087000Y-35565400D01*
X148087000Y-35565400D02*
X148135000Y-35613000D01*
X148135000Y-35613000D02*
X148170000Y-35669800D01*
X148170000Y-35669800D02*
X148192000Y-35733200D01*
X148192000Y-35733200D02*
X148200000Y-35800000D01*
X148200000Y-35800000D02*
X148200000Y-40800000D01*
G04 #@! TO.N,/A11*
X153187000Y-40812700D02*
X153187000Y-30962700D01*
X153187000Y-30962700D02*
X153670000Y-30480000D01*
G04 #@! TO.N,/A9*
X156210000Y-30480000D02*
X156210000Y-40790000D01*
X156210000Y-40790000D02*
X156200000Y-40800000D01*
G04 #@! TO.N,/A8*
X158750000Y-30480000D02*
X158750000Y-38850000D01*
X158750000Y-38850000D02*
X158600000Y-39000000D01*
G04 #@! TO.N,/A7*
X161290000Y-30480000D02*
X161290000Y-36690000D01*
X161290000Y-36690000D02*
X161600000Y-37000000D01*
G04 #@! TO.N,/A6*
X163830000Y-30480000D02*
X163830000Y-35170000D01*
X163830000Y-35170000D02*
X163800000Y-35200000D01*
G04 #@! TO.N,/A5*
X166370000Y-30480000D02*
X166370000Y-33370000D01*
X166370000Y-33370000D02*
X166400000Y-33400000D01*
G04 #@! TD*
D13*
G04 #@! TO.N,GND*
G36*
X134402298Y-43565000D02*
X134394126Y-43565000D01*
X134013720Y-43722569D01*
X133722569Y-44013720D01*
X133565000Y-44394126D01*
X133565000Y-44560198D01*
X132865528Y-45259671D01*
X132802072Y-45302071D01*
X132759672Y-45365527D01*
X132759671Y-45365528D01*
X132634097Y-45553463D01*
X132575112Y-45850000D01*
X132590001Y-45924852D01*
X132590000Y-51405660D01*
X132342821Y-51570820D01*
X132080001Y-51964159D01*
X131817180Y-51570820D01*
X131570000Y-51405660D01*
X131570000Y-46968391D01*
X131664771Y-46873620D01*
X131822340Y-46493214D01*
X131822340Y-46081466D01*
X131664771Y-45701060D01*
X131373620Y-45409909D01*
X130993214Y-45252340D01*
X130581466Y-45252340D01*
X130201060Y-45409909D01*
X129909909Y-45701060D01*
X129752340Y-46081466D01*
X129752340Y-46493214D01*
X129909909Y-46873620D01*
X130050001Y-47013712D01*
X130050000Y-51405660D01*
X129802821Y-51570820D01*
X129540001Y-51964159D01*
X129277180Y-51570820D01*
X129030000Y-51405660D01*
X129030000Y-48633711D01*
X129177431Y-48486280D01*
X129335000Y-48105874D01*
X129335000Y-47694126D01*
X129177431Y-47313720D01*
X128886280Y-47022569D01*
X128505874Y-46865000D01*
X128094126Y-46865000D01*
X127713720Y-47022569D01*
X127422569Y-47313720D01*
X127265000Y-47694126D01*
X127265000Y-48105874D01*
X127422569Y-48486280D01*
X127510001Y-48573712D01*
X127510000Y-51405660D01*
X127262821Y-51570820D01*
X127000001Y-51964159D01*
X126737180Y-51570820D01*
X126490000Y-51405660D01*
X126490000Y-49717311D01*
X126586280Y-49677431D01*
X126877431Y-49386280D01*
X127035000Y-49005874D01*
X127035000Y-48594126D01*
X126877431Y-48213720D01*
X126586280Y-47922569D01*
X126205874Y-47765000D01*
X125794126Y-47765000D01*
X125413720Y-47922569D01*
X125122569Y-48213720D01*
X124965000Y-48594126D01*
X124965000Y-49005874D01*
X124966937Y-49010551D01*
X124955112Y-49070000D01*
X124970001Y-49144852D01*
X124970001Y-49806290D01*
X124886280Y-49722569D01*
X124505874Y-49565000D01*
X124094126Y-49565000D01*
X123713720Y-49722569D01*
X123422569Y-50013720D01*
X123359701Y-50165496D01*
X122815527Y-50709672D01*
X122752072Y-50752071D01*
X122709672Y-50815527D01*
X122709671Y-50815528D01*
X122584097Y-51003463D01*
X122525112Y-51300000D01*
X122532505Y-51337168D01*
X122182821Y-51570820D01*
X121920001Y-51964159D01*
X121657180Y-51570820D01*
X121235643Y-51289158D01*
X129626902Y-42897900D01*
X133735199Y-42897900D01*
X134402298Y-43565000D01*
X134402298Y-43565000D01*
G37*
X134402298Y-43565000D02*
X134394126Y-43565000D01*
X134013720Y-43722569D01*
X133722569Y-44013720D01*
X133565000Y-44394126D01*
X133565000Y-44560198D01*
X132865528Y-45259671D01*
X132802072Y-45302071D01*
X132759672Y-45365527D01*
X132759671Y-45365528D01*
X132634097Y-45553463D01*
X132575112Y-45850000D01*
X132590001Y-45924852D01*
X132590000Y-51405660D01*
X132342821Y-51570820D01*
X132080001Y-51964159D01*
X131817180Y-51570820D01*
X131570000Y-51405660D01*
X131570000Y-46968391D01*
X131664771Y-46873620D01*
X131822340Y-46493214D01*
X131822340Y-46081466D01*
X131664771Y-45701060D01*
X131373620Y-45409909D01*
X130993214Y-45252340D01*
X130581466Y-45252340D01*
X130201060Y-45409909D01*
X129909909Y-45701060D01*
X129752340Y-46081466D01*
X129752340Y-46493214D01*
X129909909Y-46873620D01*
X130050001Y-47013712D01*
X130050000Y-51405660D01*
X129802821Y-51570820D01*
X129540001Y-51964159D01*
X129277180Y-51570820D01*
X129030000Y-51405660D01*
X129030000Y-48633711D01*
X129177431Y-48486280D01*
X129335000Y-48105874D01*
X129335000Y-47694126D01*
X129177431Y-47313720D01*
X128886280Y-47022569D01*
X128505874Y-46865000D01*
X128094126Y-46865000D01*
X127713720Y-47022569D01*
X127422569Y-47313720D01*
X127265000Y-47694126D01*
X127265000Y-48105874D01*
X127422569Y-48486280D01*
X127510001Y-48573712D01*
X127510000Y-51405660D01*
X127262821Y-51570820D01*
X127000001Y-51964159D01*
X126737180Y-51570820D01*
X126490000Y-51405660D01*
X126490000Y-49717311D01*
X126586280Y-49677431D01*
X126877431Y-49386280D01*
X127035000Y-49005874D01*
X127035000Y-48594126D01*
X126877431Y-48213720D01*
X126586280Y-47922569D01*
X126205874Y-47765000D01*
X125794126Y-47765000D01*
X125413720Y-47922569D01*
X125122569Y-48213720D01*
X124965000Y-48594126D01*
X124965000Y-49005874D01*
X124966937Y-49010551D01*
X124955112Y-49070000D01*
X124970001Y-49144852D01*
X124970001Y-49806290D01*
X124886280Y-49722569D01*
X124505874Y-49565000D01*
X124094126Y-49565000D01*
X123713720Y-49722569D01*
X123422569Y-50013720D01*
X123359701Y-50165496D01*
X122815527Y-50709672D01*
X122752072Y-50752071D01*
X122709672Y-50815527D01*
X122709671Y-50815528D01*
X122584097Y-51003463D01*
X122525112Y-51300000D01*
X122532505Y-51337168D01*
X122182821Y-51570820D01*
X121920001Y-51964159D01*
X121657180Y-51570820D01*
X121235643Y-51289158D01*
X129626902Y-42897900D01*
X133735199Y-42897900D01*
X134402298Y-43565000D01*
G36*
X167902821Y-32249180D02*
X168364919Y-32557944D01*
X168910000Y-32666368D01*
X169290001Y-32590781D01*
X169290000Y-51229219D01*
X168910000Y-51153632D01*
X168364919Y-51262056D01*
X167902821Y-51570820D01*
X167640001Y-51964159D01*
X167377180Y-51570820D01*
X167130000Y-51405660D01*
X167130000Y-50933711D01*
X167277431Y-50786280D01*
X167435000Y-50405874D01*
X167435000Y-49994126D01*
X167277431Y-49613720D01*
X166986280Y-49322569D01*
X166605874Y-49165000D01*
X166194126Y-49165000D01*
X165813720Y-49322569D01*
X165522569Y-49613720D01*
X165365000Y-49994126D01*
X165365000Y-50405874D01*
X165522569Y-50786280D01*
X165610001Y-50873712D01*
X165610001Y-51405660D01*
X165362821Y-51570820D01*
X165100001Y-51964159D01*
X164837180Y-51570820D01*
X164590000Y-51405660D01*
X164590000Y-48154847D01*
X164604888Y-48080000D01*
X164590000Y-48005153D01*
X164590000Y-48005148D01*
X164545904Y-47783463D01*
X164377929Y-47532071D01*
X164314473Y-47489671D01*
X164285000Y-47460198D01*
X164285000Y-47294126D01*
X164127431Y-46913720D01*
X163836280Y-46622569D01*
X163455874Y-46465000D01*
X163044126Y-46465000D01*
X162663720Y-46622569D01*
X162372569Y-46913720D01*
X162215000Y-47294126D01*
X162215000Y-47705874D01*
X162372569Y-48086280D01*
X162663720Y-48377431D01*
X163044126Y-48535000D01*
X163070001Y-48535000D01*
X163070000Y-51405660D01*
X162822821Y-51570820D01*
X162560001Y-51964159D01*
X162297180Y-51570820D01*
X162050000Y-51405660D01*
X162050000Y-46613711D01*
X162077431Y-46586280D01*
X162235000Y-46205874D01*
X162235000Y-45794126D01*
X162077431Y-45413720D01*
X161786280Y-45122569D01*
X161405874Y-44965000D01*
X160994126Y-44965000D01*
X160613720Y-45122569D01*
X160322569Y-45413720D01*
X160165000Y-45794126D01*
X160165000Y-46205874D01*
X160322569Y-46586280D01*
X160530001Y-46793712D01*
X160530000Y-51405660D01*
X160282821Y-51570820D01*
X160020001Y-51964159D01*
X159757180Y-51570820D01*
X159510000Y-51405660D01*
X159510000Y-45353711D01*
X159677431Y-45186280D01*
X159835000Y-44805874D01*
X159835000Y-44394126D01*
X159677431Y-44013720D01*
X159386280Y-43722569D01*
X159005874Y-43565000D01*
X158594126Y-43565000D01*
X158213720Y-43722569D01*
X157922569Y-44013720D01*
X157765000Y-44394126D01*
X157765000Y-44805874D01*
X157922569Y-45186280D01*
X157990001Y-45253712D01*
X157990000Y-51405660D01*
X157742821Y-51570820D01*
X157480001Y-51964159D01*
X157217180Y-51570820D01*
X156970000Y-51405660D01*
X156970000Y-44093711D01*
X157077431Y-43986280D01*
X157235000Y-43605874D01*
X157235000Y-43194126D01*
X157077431Y-42813720D01*
X156786280Y-42522569D01*
X156405874Y-42365000D01*
X155994126Y-42365000D01*
X155613720Y-42522569D01*
X155322569Y-42813720D01*
X155165000Y-43194126D01*
X155165000Y-43605874D01*
X155322569Y-43986280D01*
X155450001Y-44113712D01*
X155450000Y-51405660D01*
X155202821Y-51570820D01*
X154940001Y-51964159D01*
X154677180Y-51570820D01*
X154430000Y-51405660D01*
X154430000Y-49706547D01*
X154500240Y-49696473D01*
X154562933Y-49689455D01*
X154574241Y-49685860D01*
X154585989Y-49684175D01*
X154586544Y-49683979D01*
X154596650Y-49684265D01*
X154683638Y-49651080D01*
X154778337Y-49620972D01*
X154787662Y-49613109D01*
X154790183Y-49612221D01*
X154798643Y-49607206D01*
X154807832Y-49603700D01*
X154807882Y-49603668D01*
X154816785Y-49601946D01*
X154897861Y-49548385D01*
X154984611Y-49496955D01*
X154990674Y-49488862D01*
X154991605Y-49488277D01*
X154998015Y-49482219D01*
X155005375Y-49477357D01*
X155007352Y-49475401D01*
X155017934Y-49470715D01*
X155088016Y-49397164D01*
X155155881Y-49333029D01*
X155159586Y-49324753D01*
X155159785Y-49324556D01*
X155166089Y-49315227D01*
X155173855Y-49307077D01*
X155176281Y-49303250D01*
X155187128Y-49295042D01*
X155235664Y-49212272D01*
X155286341Y-49137281D01*
X155288658Y-49125944D01*
X155289997Y-49123831D01*
X155294765Y-49111484D01*
X155301462Y-49100064D01*
X155302734Y-49096398D01*
X155311100Y-49086333D01*
X155338112Y-48999244D01*
X155371427Y-48912981D01*
X155371099Y-48899383D01*
X155372539Y-48895232D01*
X155374287Y-48882617D01*
X155375513Y-48878661D01*
X155379910Y-48870311D01*
X155387709Y-48785724D01*
X155403554Y-48671343D01*
X155400252Y-48658677D01*
X155400662Y-48654763D01*
X155400223Y-48650000D01*
X155400662Y-48645237D01*
X155400252Y-48641323D01*
X155403554Y-48628657D01*
X155387709Y-48514276D01*
X155379910Y-48429689D01*
X155375513Y-48421339D01*
X155374287Y-48417383D01*
X155372539Y-48404768D01*
X155371099Y-48400617D01*
X155371427Y-48387019D01*
X155338112Y-48300756D01*
X155311100Y-48213667D01*
X155302734Y-48203602D01*
X155301462Y-48199936D01*
X155294765Y-48188516D01*
X155289997Y-48176169D01*
X155288879Y-48174404D01*
X155286656Y-48163470D01*
X155236175Y-48088600D01*
X155187128Y-48004958D01*
X155176281Y-47996750D01*
X155173855Y-47992923D01*
X155166366Y-47985064D01*
X155160297Y-47976062D01*
X155159404Y-47975177D01*
X155155316Y-47966076D01*
X155086135Y-47900862D01*
X155017934Y-47829285D01*
X155007730Y-47824767D01*
X155005998Y-47823049D01*
X154997905Y-47817690D01*
X154990845Y-47811035D01*
X154990377Y-47810742D01*
X154984611Y-47803045D01*
X154900297Y-47753060D01*
X154817539Y-47698262D01*
X154807747Y-47696357D01*
X154806971Y-47695871D01*
X154798227Y-47692548D01*
X154790183Y-47687779D01*
X154787662Y-47686891D01*
X154778337Y-47679028D01*
X154682395Y-47648525D01*
X154595688Y-47615572D01*
X154586076Y-47615856D01*
X154585989Y-47615825D01*
X154574241Y-47614140D01*
X154562933Y-47610545D01*
X154500240Y-47603527D01*
X154430000Y-47593453D01*
X154430000Y-44544847D01*
X154444888Y-44470000D01*
X154430000Y-44395153D01*
X154430000Y-44395148D01*
X154385904Y-44173463D01*
X154217929Y-43922071D01*
X154154473Y-43879671D01*
X153235000Y-42960199D01*
X153235000Y-42794126D01*
X153077431Y-42413720D01*
X152786280Y-42122569D01*
X152405874Y-41965000D01*
X151994126Y-41965000D01*
X151613720Y-42122569D01*
X151373195Y-42363094D01*
X150141231Y-41131130D01*
X150098829Y-41067671D01*
X149847437Y-40899696D01*
X149625752Y-40855600D01*
X149625747Y-40855600D01*
X149550900Y-40840712D01*
X149476053Y-40855600D01*
X149235000Y-40855600D01*
X149235000Y-40594126D01*
X149077431Y-40213720D01*
X148960000Y-40096289D01*
X148960000Y-35829324D01*
X148963227Y-35787582D01*
X148965554Y-35778657D01*
X148960000Y-35738564D01*
X148960000Y-35725148D01*
X148953878Y-35694370D01*
X148945777Y-35635891D01*
X148944842Y-35628088D01*
X149015638Y-35601080D01*
X149110337Y-35570972D01*
X149119662Y-35563109D01*
X149122183Y-35562221D01*
X149130643Y-35557206D01*
X149139832Y-35553700D01*
X149139882Y-35553668D01*
X149148785Y-35551946D01*
X149229861Y-35498385D01*
X149316611Y-35446955D01*
X149322674Y-35438862D01*
X149323605Y-35438277D01*
X149330015Y-35432219D01*
X149337375Y-35427357D01*
X149342882Y-35421907D01*
X149357921Y-35415019D01*
X149427717Y-35339887D01*
X149487881Y-35283029D01*
X149491586Y-35274753D01*
X149491785Y-35274556D01*
X149500800Y-35261216D01*
X149502905Y-35258949D01*
X149510860Y-35253104D01*
X149550224Y-35188078D01*
X149618341Y-35087281D01*
X149621652Y-35071077D01*
X149625293Y-35065169D01*
X149626348Y-35062332D01*
X149627913Y-35059746D01*
X149631223Y-35050623D01*
X149643100Y-35036333D01*
X149678819Y-34921173D01*
X149704047Y-34853305D01*
X149703712Y-34844195D01*
X149704699Y-34837736D01*
X149707513Y-34828661D01*
X149711910Y-34820311D01*
X149718825Y-34745307D01*
X149736115Y-34632184D01*
X149731679Y-34614140D01*
X149732662Y-34604763D01*
X149732223Y-34600000D01*
X149732662Y-34595237D01*
X149731679Y-34585860D01*
X149736115Y-34567816D01*
X149718825Y-34454693D01*
X149711910Y-34379689D01*
X149707513Y-34371339D01*
X149704699Y-34362264D01*
X149703712Y-34355805D01*
X149704047Y-34346695D01*
X149678819Y-34278827D01*
X149643100Y-34163667D01*
X149631223Y-34149377D01*
X149627913Y-34140254D01*
X149626348Y-34137668D01*
X149625293Y-34134831D01*
X149621868Y-34129273D01*
X149618656Y-34113470D01*
X149550550Y-34012460D01*
X149510860Y-33946896D01*
X149502905Y-33941051D01*
X149501073Y-33939078D01*
X149492297Y-33926062D01*
X149491404Y-33925177D01*
X149487316Y-33916076D01*
X149426078Y-33858349D01*
X149357921Y-33784981D01*
X149343258Y-33778265D01*
X149337998Y-33773049D01*
X149329905Y-33767690D01*
X149322845Y-33761035D01*
X149322377Y-33760742D01*
X149316611Y-33753045D01*
X149232297Y-33703060D01*
X149149539Y-33648262D01*
X149139747Y-33646357D01*
X149138971Y-33645871D01*
X149130227Y-33642548D01*
X149122183Y-33637779D01*
X149119662Y-33636891D01*
X149110337Y-33629028D01*
X149014395Y-33598525D01*
X148944822Y-33572084D01*
X148945777Y-33564109D01*
X148953878Y-33505630D01*
X148960000Y-33474852D01*
X148960000Y-33461436D01*
X148965554Y-33421343D01*
X148963227Y-33412418D01*
X148960000Y-33370676D01*
X148960000Y-32592770D01*
X149135082Y-32557944D01*
X149597180Y-32249180D01*
X149860001Y-31855841D01*
X150122821Y-32249180D01*
X150584919Y-32557944D01*
X151130000Y-32666368D01*
X151675082Y-32557944D01*
X152137180Y-32249180D01*
X152400001Y-31855841D01*
X152427001Y-31896250D01*
X152427000Y-40108989D01*
X152309569Y-40226420D01*
X152152000Y-40606826D01*
X152152000Y-41018574D01*
X152309569Y-41398980D01*
X152600720Y-41690131D01*
X152981126Y-41847700D01*
X153392874Y-41847700D01*
X153773280Y-41690131D01*
X154064431Y-41398980D01*
X154222000Y-41018574D01*
X154222000Y-40606826D01*
X154064431Y-40226420D01*
X153947000Y-40108989D01*
X153947000Y-32611269D01*
X154215082Y-32557944D01*
X154677180Y-32249180D01*
X154940001Y-31855841D01*
X155202821Y-32249180D01*
X155450000Y-32414340D01*
X155450001Y-40086288D01*
X155322569Y-40213720D01*
X155165000Y-40594126D01*
X155165000Y-41005874D01*
X155322569Y-41386280D01*
X155613720Y-41677431D01*
X155994126Y-41835000D01*
X156405874Y-41835000D01*
X156786280Y-41677431D01*
X157077431Y-41386280D01*
X157235000Y-41005874D01*
X157235000Y-40594126D01*
X157077431Y-40213720D01*
X156970000Y-40106289D01*
X156970000Y-32414340D01*
X157217180Y-32249180D01*
X157480001Y-31855841D01*
X157742821Y-32249180D01*
X157990000Y-32414340D01*
X157990001Y-38146288D01*
X157722569Y-38413720D01*
X157565000Y-38794126D01*
X157565000Y-39205874D01*
X157722569Y-39586280D01*
X158013720Y-39877431D01*
X158394126Y-40035000D01*
X158805874Y-40035000D01*
X159186280Y-39877431D01*
X159477431Y-39586280D01*
X159635000Y-39205874D01*
X159635000Y-38794126D01*
X159510000Y-38492349D01*
X159510000Y-32414340D01*
X159757180Y-32249180D01*
X160020001Y-31855841D01*
X160282821Y-32249180D01*
X160530000Y-32414340D01*
X160530001Y-36615148D01*
X160515112Y-36690000D01*
X160565000Y-36940803D01*
X160565000Y-37205874D01*
X160722569Y-37586280D01*
X161013720Y-37877431D01*
X161394126Y-38035000D01*
X161805874Y-38035000D01*
X162186280Y-37877431D01*
X162477431Y-37586280D01*
X162635000Y-37205874D01*
X162635000Y-36794126D01*
X162477431Y-36413720D01*
X162186280Y-36122569D01*
X162050000Y-36066120D01*
X162050000Y-32414340D01*
X162297180Y-32249180D01*
X162560001Y-31855841D01*
X162822821Y-32249180D01*
X163070000Y-32414340D01*
X163070001Y-34466288D01*
X162922569Y-34613720D01*
X162765000Y-34994126D01*
X162765000Y-35405874D01*
X162922569Y-35786280D01*
X163213720Y-36077431D01*
X163594126Y-36235000D01*
X164005874Y-36235000D01*
X164386280Y-36077431D01*
X164677431Y-35786280D01*
X164835000Y-35405874D01*
X164835000Y-34994126D01*
X164677431Y-34613720D01*
X164590000Y-34526289D01*
X164590000Y-32414340D01*
X164837180Y-32249180D01*
X165100001Y-31855841D01*
X165362821Y-32249180D01*
X165610001Y-32414340D01*
X165610001Y-32726288D01*
X165522569Y-32813720D01*
X165365000Y-33194126D01*
X165365000Y-33605874D01*
X165522569Y-33986280D01*
X165813720Y-34277431D01*
X166194126Y-34435000D01*
X166605874Y-34435000D01*
X166986280Y-34277431D01*
X167277431Y-33986280D01*
X167435000Y-33605874D01*
X167435000Y-33194126D01*
X167277431Y-32813720D01*
X167130000Y-32666289D01*
X167130000Y-32414340D01*
X167377180Y-32249180D01*
X167640001Y-31855841D01*
X167902821Y-32249180D01*
X167902821Y-32249180D01*
G37*
X167902821Y-32249180D02*
X168364919Y-32557944D01*
X168910000Y-32666368D01*
X169290001Y-32590781D01*
X169290000Y-51229219D01*
X168910000Y-51153632D01*
X168364919Y-51262056D01*
X167902821Y-51570820D01*
X167640001Y-51964159D01*
X167377180Y-51570820D01*
X167130000Y-51405660D01*
X167130000Y-50933711D01*
X167277431Y-50786280D01*
X167435000Y-50405874D01*
X167435000Y-49994126D01*
X167277431Y-49613720D01*
X166986280Y-49322569D01*
X166605874Y-49165000D01*
X166194126Y-49165000D01*
X165813720Y-49322569D01*
X165522569Y-49613720D01*
X165365000Y-49994126D01*
X165365000Y-50405874D01*
X165522569Y-50786280D01*
X165610001Y-50873712D01*
X165610001Y-51405660D01*
X165362821Y-51570820D01*
X165100001Y-51964159D01*
X164837180Y-51570820D01*
X164590000Y-51405660D01*
X164590000Y-48154847D01*
X164604888Y-48080000D01*
X164590000Y-48005153D01*
X164590000Y-48005148D01*
X164545904Y-47783463D01*
X164377929Y-47532071D01*
X164314473Y-47489671D01*
X164285000Y-47460198D01*
X164285000Y-47294126D01*
X164127431Y-46913720D01*
X163836280Y-46622569D01*
X163455874Y-46465000D01*
X163044126Y-46465000D01*
X162663720Y-46622569D01*
X162372569Y-46913720D01*
X162215000Y-47294126D01*
X162215000Y-47705874D01*
X162372569Y-48086280D01*
X162663720Y-48377431D01*
X163044126Y-48535000D01*
X163070001Y-48535000D01*
X163070000Y-51405660D01*
X162822821Y-51570820D01*
X162560001Y-51964159D01*
X162297180Y-51570820D01*
X162050000Y-51405660D01*
X162050000Y-46613711D01*
X162077431Y-46586280D01*
X162235000Y-46205874D01*
X162235000Y-45794126D01*
X162077431Y-45413720D01*
X161786280Y-45122569D01*
X161405874Y-44965000D01*
X160994126Y-44965000D01*
X160613720Y-45122569D01*
X160322569Y-45413720D01*
X160165000Y-45794126D01*
X160165000Y-46205874D01*
X160322569Y-46586280D01*
X160530001Y-46793712D01*
X160530000Y-51405660D01*
X160282821Y-51570820D01*
X160020001Y-51964159D01*
X159757180Y-51570820D01*
X159510000Y-51405660D01*
X159510000Y-45353711D01*
X159677431Y-45186280D01*
X159835000Y-44805874D01*
X159835000Y-44394126D01*
X159677431Y-44013720D01*
X159386280Y-43722569D01*
X159005874Y-43565000D01*
X158594126Y-43565000D01*
X158213720Y-43722569D01*
X157922569Y-44013720D01*
X157765000Y-44394126D01*
X157765000Y-44805874D01*
X157922569Y-45186280D01*
X157990001Y-45253712D01*
X157990000Y-51405660D01*
X157742821Y-51570820D01*
X157480001Y-51964159D01*
X157217180Y-51570820D01*
X156970000Y-51405660D01*
X156970000Y-44093711D01*
X157077431Y-43986280D01*
X157235000Y-43605874D01*
X157235000Y-43194126D01*
X157077431Y-42813720D01*
X156786280Y-42522569D01*
X156405874Y-42365000D01*
X155994126Y-42365000D01*
X155613720Y-42522569D01*
X155322569Y-42813720D01*
X155165000Y-43194126D01*
X155165000Y-43605874D01*
X155322569Y-43986280D01*
X155450001Y-44113712D01*
X155450000Y-51405660D01*
X155202821Y-51570820D01*
X154940001Y-51964159D01*
X154677180Y-51570820D01*
X154430000Y-51405660D01*
X154430000Y-49706547D01*
X154500240Y-49696473D01*
X154562933Y-49689455D01*
X154574241Y-49685860D01*
X154585989Y-49684175D01*
X154586544Y-49683979D01*
X154596650Y-49684265D01*
X154683638Y-49651080D01*
X154778337Y-49620972D01*
X154787662Y-49613109D01*
X154790183Y-49612221D01*
X154798643Y-49607206D01*
X154807832Y-49603700D01*
X154807882Y-49603668D01*
X154816785Y-49601946D01*
X154897861Y-49548385D01*
X154984611Y-49496955D01*
X154990674Y-49488862D01*
X154991605Y-49488277D01*
X154998015Y-49482219D01*
X155005375Y-49477357D01*
X155007352Y-49475401D01*
X155017934Y-49470715D01*
X155088016Y-49397164D01*
X155155881Y-49333029D01*
X155159586Y-49324753D01*
X155159785Y-49324556D01*
X155166089Y-49315227D01*
X155173855Y-49307077D01*
X155176281Y-49303250D01*
X155187128Y-49295042D01*
X155235664Y-49212272D01*
X155286341Y-49137281D01*
X155288658Y-49125944D01*
X155289997Y-49123831D01*
X155294765Y-49111484D01*
X155301462Y-49100064D01*
X155302734Y-49096398D01*
X155311100Y-49086333D01*
X155338112Y-48999244D01*
X155371427Y-48912981D01*
X155371099Y-48899383D01*
X155372539Y-48895232D01*
X155374287Y-48882617D01*
X155375513Y-48878661D01*
X155379910Y-48870311D01*
X155387709Y-48785724D01*
X155403554Y-48671343D01*
X155400252Y-48658677D01*
X155400662Y-48654763D01*
X155400223Y-48650000D01*
X155400662Y-48645237D01*
X155400252Y-48641323D01*
X155403554Y-48628657D01*
X155387709Y-48514276D01*
X155379910Y-48429689D01*
X155375513Y-48421339D01*
X155374287Y-48417383D01*
X155372539Y-48404768D01*
X155371099Y-48400617D01*
X155371427Y-48387019D01*
X155338112Y-48300756D01*
X155311100Y-48213667D01*
X155302734Y-48203602D01*
X155301462Y-48199936D01*
X155294765Y-48188516D01*
X155289997Y-48176169D01*
X155288879Y-48174404D01*
X155286656Y-48163470D01*
X155236175Y-48088600D01*
X155187128Y-48004958D01*
X155176281Y-47996750D01*
X155173855Y-47992923D01*
X155166366Y-47985064D01*
X155160297Y-47976062D01*
X155159404Y-47975177D01*
X155155316Y-47966076D01*
X155086135Y-47900862D01*
X155017934Y-47829285D01*
X155007730Y-47824767D01*
X155005998Y-47823049D01*
X154997905Y-47817690D01*
X154990845Y-47811035D01*
X154990377Y-47810742D01*
X154984611Y-47803045D01*
X154900297Y-47753060D01*
X154817539Y-47698262D01*
X154807747Y-47696357D01*
X154806971Y-47695871D01*
X154798227Y-47692548D01*
X154790183Y-47687779D01*
X154787662Y-47686891D01*
X154778337Y-47679028D01*
X154682395Y-47648525D01*
X154595688Y-47615572D01*
X154586076Y-47615856D01*
X154585989Y-47615825D01*
X154574241Y-47614140D01*
X154562933Y-47610545D01*
X154500240Y-47603527D01*
X154430000Y-47593453D01*
X154430000Y-44544847D01*
X154444888Y-44470000D01*
X154430000Y-44395153D01*
X154430000Y-44395148D01*
X154385904Y-44173463D01*
X154217929Y-43922071D01*
X154154473Y-43879671D01*
X153235000Y-42960199D01*
X153235000Y-42794126D01*
X153077431Y-42413720D01*
X152786280Y-42122569D01*
X152405874Y-41965000D01*
X151994126Y-41965000D01*
X151613720Y-42122569D01*
X151373195Y-42363094D01*
X150141231Y-41131130D01*
X150098829Y-41067671D01*
X149847437Y-40899696D01*
X149625752Y-40855600D01*
X149625747Y-40855600D01*
X149550900Y-40840712D01*
X149476053Y-40855600D01*
X149235000Y-40855600D01*
X149235000Y-40594126D01*
X149077431Y-40213720D01*
X148960000Y-40096289D01*
X148960000Y-35829324D01*
X148963227Y-35787582D01*
X148965554Y-35778657D01*
X148960000Y-35738564D01*
X148960000Y-35725148D01*
X148953878Y-35694370D01*
X148945777Y-35635891D01*
X148944842Y-35628088D01*
X149015638Y-35601080D01*
X149110337Y-35570972D01*
X149119662Y-35563109D01*
X149122183Y-35562221D01*
X149130643Y-35557206D01*
X149139832Y-35553700D01*
X149139882Y-35553668D01*
X149148785Y-35551946D01*
X149229861Y-35498385D01*
X149316611Y-35446955D01*
X149322674Y-35438862D01*
X149323605Y-35438277D01*
X149330015Y-35432219D01*
X149337375Y-35427357D01*
X149342882Y-35421907D01*
X149357921Y-35415019D01*
X149427717Y-35339887D01*
X149487881Y-35283029D01*
X149491586Y-35274753D01*
X149491785Y-35274556D01*
X149500800Y-35261216D01*
X149502905Y-35258949D01*
X149510860Y-35253104D01*
X149550224Y-35188078D01*
X149618341Y-35087281D01*
X149621652Y-35071077D01*
X149625293Y-35065169D01*
X149626348Y-35062332D01*
X149627913Y-35059746D01*
X149631223Y-35050623D01*
X149643100Y-35036333D01*
X149678819Y-34921173D01*
X149704047Y-34853305D01*
X149703712Y-34844195D01*
X149704699Y-34837736D01*
X149707513Y-34828661D01*
X149711910Y-34820311D01*
X149718825Y-34745307D01*
X149736115Y-34632184D01*
X149731679Y-34614140D01*
X149732662Y-34604763D01*
X149732223Y-34600000D01*
X149732662Y-34595237D01*
X149731679Y-34585860D01*
X149736115Y-34567816D01*
X149718825Y-34454693D01*
X149711910Y-34379689D01*
X149707513Y-34371339D01*
X149704699Y-34362264D01*
X149703712Y-34355805D01*
X149704047Y-34346695D01*
X149678819Y-34278827D01*
X149643100Y-34163667D01*
X149631223Y-34149377D01*
X149627913Y-34140254D01*
X149626348Y-34137668D01*
X149625293Y-34134831D01*
X149621868Y-34129273D01*
X149618656Y-34113470D01*
X149550550Y-34012460D01*
X149510860Y-33946896D01*
X149502905Y-33941051D01*
X149501073Y-33939078D01*
X149492297Y-33926062D01*
X149491404Y-33925177D01*
X149487316Y-33916076D01*
X149426078Y-33858349D01*
X149357921Y-33784981D01*
X149343258Y-33778265D01*
X149337998Y-33773049D01*
X149329905Y-33767690D01*
X149322845Y-33761035D01*
X149322377Y-33760742D01*
X149316611Y-33753045D01*
X149232297Y-33703060D01*
X149149539Y-33648262D01*
X149139747Y-33646357D01*
X149138971Y-33645871D01*
X149130227Y-33642548D01*
X149122183Y-33637779D01*
X149119662Y-33636891D01*
X149110337Y-33629028D01*
X149014395Y-33598525D01*
X148944822Y-33572084D01*
X148945777Y-33564109D01*
X148953878Y-33505630D01*
X148960000Y-33474852D01*
X148960000Y-33461436D01*
X148965554Y-33421343D01*
X148963227Y-33412418D01*
X148960000Y-33370676D01*
X148960000Y-32592770D01*
X149135082Y-32557944D01*
X149597180Y-32249180D01*
X149860001Y-31855841D01*
X150122821Y-32249180D01*
X150584919Y-32557944D01*
X151130000Y-32666368D01*
X151675082Y-32557944D01*
X152137180Y-32249180D01*
X152400001Y-31855841D01*
X152427001Y-31896250D01*
X152427000Y-40108989D01*
X152309569Y-40226420D01*
X152152000Y-40606826D01*
X152152000Y-41018574D01*
X152309569Y-41398980D01*
X152600720Y-41690131D01*
X152981126Y-41847700D01*
X153392874Y-41847700D01*
X153773280Y-41690131D01*
X154064431Y-41398980D01*
X154222000Y-41018574D01*
X154222000Y-40606826D01*
X154064431Y-40226420D01*
X153947000Y-40108989D01*
X153947000Y-32611269D01*
X154215082Y-32557944D01*
X154677180Y-32249180D01*
X154940001Y-31855841D01*
X155202821Y-32249180D01*
X155450000Y-32414340D01*
X155450001Y-40086288D01*
X155322569Y-40213720D01*
X155165000Y-40594126D01*
X155165000Y-41005874D01*
X155322569Y-41386280D01*
X155613720Y-41677431D01*
X155994126Y-41835000D01*
X156405874Y-41835000D01*
X156786280Y-41677431D01*
X157077431Y-41386280D01*
X157235000Y-41005874D01*
X157235000Y-40594126D01*
X157077431Y-40213720D01*
X156970000Y-40106289D01*
X156970000Y-32414340D01*
X157217180Y-32249180D01*
X157480001Y-31855841D01*
X157742821Y-32249180D01*
X157990000Y-32414340D01*
X157990001Y-38146288D01*
X157722569Y-38413720D01*
X157565000Y-38794126D01*
X157565000Y-39205874D01*
X157722569Y-39586280D01*
X158013720Y-39877431D01*
X158394126Y-40035000D01*
X158805874Y-40035000D01*
X159186280Y-39877431D01*
X159477431Y-39586280D01*
X159635000Y-39205874D01*
X159635000Y-38794126D01*
X159510000Y-38492349D01*
X159510000Y-32414340D01*
X159757180Y-32249180D01*
X160020001Y-31855841D01*
X160282821Y-32249180D01*
X160530000Y-32414340D01*
X160530001Y-36615148D01*
X160515112Y-36690000D01*
X160565000Y-36940803D01*
X160565000Y-37205874D01*
X160722569Y-37586280D01*
X161013720Y-37877431D01*
X161394126Y-38035000D01*
X161805874Y-38035000D01*
X162186280Y-37877431D01*
X162477431Y-37586280D01*
X162635000Y-37205874D01*
X162635000Y-36794126D01*
X162477431Y-36413720D01*
X162186280Y-36122569D01*
X162050000Y-36066120D01*
X162050000Y-32414340D01*
X162297180Y-32249180D01*
X162560001Y-31855841D01*
X162822821Y-32249180D01*
X163070000Y-32414340D01*
X163070001Y-34466288D01*
X162922569Y-34613720D01*
X162765000Y-34994126D01*
X162765000Y-35405874D01*
X162922569Y-35786280D01*
X163213720Y-36077431D01*
X163594126Y-36235000D01*
X164005874Y-36235000D01*
X164386280Y-36077431D01*
X164677431Y-35786280D01*
X164835000Y-35405874D01*
X164835000Y-34994126D01*
X164677431Y-34613720D01*
X164590000Y-34526289D01*
X164590000Y-32414340D01*
X164837180Y-32249180D01*
X165100001Y-31855841D01*
X165362821Y-32249180D01*
X165610001Y-32414340D01*
X165610001Y-32726288D01*
X165522569Y-32813720D01*
X165365000Y-33194126D01*
X165365000Y-33605874D01*
X165522569Y-33986280D01*
X165813720Y-34277431D01*
X166194126Y-34435000D01*
X166605874Y-34435000D01*
X166986280Y-34277431D01*
X167277431Y-33986280D01*
X167435000Y-33605874D01*
X167435000Y-33194126D01*
X167277431Y-32813720D01*
X167130000Y-32666289D01*
X167130000Y-32414340D01*
X167377180Y-32249180D01*
X167640001Y-31855841D01*
X167902821Y-32249180D01*
G36*
X118237000Y-30353000D02*
X118257000Y-30353000D01*
X118257000Y-30607000D01*
X118237000Y-30607000D01*
X118237000Y-32473720D01*
X118453070Y-32596220D01*
X118527277Y-32581260D01*
X119008026Y-32319630D01*
X119352059Y-31893941D01*
X119368420Y-31838510D01*
X119642821Y-32249180D01*
X120104919Y-32557944D01*
X120650000Y-32666368D01*
X121195082Y-32557944D01*
X121657180Y-32249180D01*
X121920001Y-31855841D01*
X122182821Y-32249180D01*
X122644919Y-32557944D01*
X122683517Y-32565622D01*
X122705528Y-32580329D01*
X123709671Y-33584473D01*
X123752071Y-33647929D01*
X124003463Y-33815904D01*
X124064293Y-33828004D01*
X124213720Y-33977431D01*
X124594126Y-34135000D01*
X124964063Y-34135000D01*
X124955112Y-34180000D01*
X124966937Y-34239449D01*
X124965000Y-34244126D01*
X124965000Y-34655874D01*
X125122569Y-35036280D01*
X125413720Y-35327431D01*
X125794126Y-35485000D01*
X126205874Y-35485000D01*
X126586280Y-35327431D01*
X126877431Y-35036280D01*
X127035000Y-34655874D01*
X127035000Y-34244126D01*
X126877431Y-33863720D01*
X126586280Y-33572569D01*
X126490000Y-33532689D01*
X126490000Y-32414340D01*
X126737180Y-32249180D01*
X127000001Y-31855841D01*
X127262821Y-32249180D01*
X127290000Y-32267341D01*
X127290001Y-34375148D01*
X127275112Y-34450000D01*
X127290001Y-34524852D01*
X127291254Y-34531150D01*
X127334097Y-34746537D01*
X127458167Y-34932220D01*
X127502072Y-34997929D01*
X127565528Y-35040329D01*
X127765000Y-35239801D01*
X127765000Y-35405874D01*
X127922569Y-35786280D01*
X128213720Y-36077431D01*
X128594126Y-36235000D01*
X129005874Y-36235000D01*
X129386280Y-36077431D01*
X129677431Y-35786280D01*
X129835000Y-35405874D01*
X129835000Y-34994126D01*
X129677431Y-34613720D01*
X129386280Y-34322569D01*
X129005874Y-34165000D01*
X128839801Y-34165000D01*
X128810000Y-34135199D01*
X128810000Y-32558955D01*
X128815082Y-32557944D01*
X129277180Y-32249180D01*
X129540001Y-31855841D01*
X129802821Y-32249180D01*
X129890000Y-32307431D01*
X129890001Y-36675148D01*
X129875112Y-36750000D01*
X129934097Y-37046537D01*
X130047013Y-37215527D01*
X130102072Y-37297929D01*
X130165528Y-37340329D01*
X130565000Y-37739801D01*
X130565000Y-37905874D01*
X130722569Y-38286280D01*
X131013720Y-38577431D01*
X131394126Y-38735000D01*
X131805874Y-38735000D01*
X132186280Y-38577431D01*
X132477431Y-38286280D01*
X132635000Y-37905874D01*
X132635000Y-37847888D01*
X132713252Y-37965000D01*
X132802072Y-38097929D01*
X132865528Y-38140329D01*
X134565000Y-39839802D01*
X134565000Y-40005874D01*
X134722569Y-40386280D01*
X135013720Y-40677431D01*
X135394126Y-40835000D01*
X135805874Y-40835000D01*
X136186280Y-40677431D01*
X136477431Y-40386280D01*
X136487403Y-40362205D01*
X137409671Y-41284473D01*
X137452071Y-41347929D01*
X137496926Y-41377900D01*
X137474852Y-41377900D01*
X137400000Y-41363011D01*
X137325148Y-41377900D01*
X134124847Y-41377900D01*
X134050000Y-41363012D01*
X133975153Y-41377900D01*
X129386948Y-41377900D01*
X129312100Y-41363012D01*
X129237252Y-41377900D01*
X129237248Y-41377900D01*
X129063705Y-41412420D01*
X129015562Y-41421996D01*
X128889986Y-41505904D01*
X128764171Y-41589971D01*
X128721771Y-41653427D01*
X118929669Y-51445529D01*
X118655082Y-51262056D01*
X118110000Y-51153632D01*
X117710000Y-51233197D01*
X117710000Y-32584743D01*
X117766930Y-32596220D01*
X117983000Y-32473720D01*
X117983000Y-30607000D01*
X117963000Y-30607000D01*
X117963000Y-30353000D01*
X117983000Y-30353000D01*
X117983000Y-30333000D01*
X118237000Y-30333000D01*
X118237000Y-30353000D01*
X118237000Y-30353000D01*
G37*
X118237000Y-30353000D02*
X118257000Y-30353000D01*
X118257000Y-30607000D01*
X118237000Y-30607000D01*
X118237000Y-32473720D01*
X118453070Y-32596220D01*
X118527277Y-32581260D01*
X119008026Y-32319630D01*
X119352059Y-31893941D01*
X119368420Y-31838510D01*
X119642821Y-32249180D01*
X120104919Y-32557944D01*
X120650000Y-32666368D01*
X121195082Y-32557944D01*
X121657180Y-32249180D01*
X121920001Y-31855841D01*
X122182821Y-32249180D01*
X122644919Y-32557944D01*
X122683517Y-32565622D01*
X122705528Y-32580329D01*
X123709671Y-33584473D01*
X123752071Y-33647929D01*
X124003463Y-33815904D01*
X124064293Y-33828004D01*
X124213720Y-33977431D01*
X124594126Y-34135000D01*
X124964063Y-34135000D01*
X124955112Y-34180000D01*
X124966937Y-34239449D01*
X124965000Y-34244126D01*
X124965000Y-34655874D01*
X125122569Y-35036280D01*
X125413720Y-35327431D01*
X125794126Y-35485000D01*
X126205874Y-35485000D01*
X126586280Y-35327431D01*
X126877431Y-35036280D01*
X127035000Y-34655874D01*
X127035000Y-34244126D01*
X126877431Y-33863720D01*
X126586280Y-33572569D01*
X126490000Y-33532689D01*
X126490000Y-32414340D01*
X126737180Y-32249180D01*
X127000001Y-31855841D01*
X127262821Y-32249180D01*
X127290000Y-32267341D01*
X127290001Y-34375148D01*
X127275112Y-34450000D01*
X127290001Y-34524852D01*
X127291254Y-34531150D01*
X127334097Y-34746537D01*
X127458167Y-34932220D01*
X127502072Y-34997929D01*
X127565528Y-35040329D01*
X127765000Y-35239801D01*
X127765000Y-35405874D01*
X127922569Y-35786280D01*
X128213720Y-36077431D01*
X128594126Y-36235000D01*
X129005874Y-36235000D01*
X129386280Y-36077431D01*
X129677431Y-35786280D01*
X129835000Y-35405874D01*
X129835000Y-34994126D01*
X129677431Y-34613720D01*
X129386280Y-34322569D01*
X129005874Y-34165000D01*
X128839801Y-34165000D01*
X128810000Y-34135199D01*
X128810000Y-32558955D01*
X128815082Y-32557944D01*
X129277180Y-32249180D01*
X129540001Y-31855841D01*
X129802821Y-32249180D01*
X129890000Y-32307431D01*
X129890001Y-36675148D01*
X129875112Y-36750000D01*
X129934097Y-37046537D01*
X130047013Y-37215527D01*
X130102072Y-37297929D01*
X130165528Y-37340329D01*
X130565000Y-37739801D01*
X130565000Y-37905874D01*
X130722569Y-38286280D01*
X131013720Y-38577431D01*
X131394126Y-38735000D01*
X131805874Y-38735000D01*
X132186280Y-38577431D01*
X132477431Y-38286280D01*
X132635000Y-37905874D01*
X132635000Y-37847888D01*
X132713252Y-37965000D01*
X132802072Y-38097929D01*
X132865528Y-38140329D01*
X134565000Y-39839802D01*
X134565000Y-40005874D01*
X134722569Y-40386280D01*
X135013720Y-40677431D01*
X135394126Y-40835000D01*
X135805874Y-40835000D01*
X136186280Y-40677431D01*
X136477431Y-40386280D01*
X136487403Y-40362205D01*
X137409671Y-41284473D01*
X137452071Y-41347929D01*
X137496926Y-41377900D01*
X137474852Y-41377900D01*
X137400000Y-41363011D01*
X137325148Y-41377900D01*
X134124847Y-41377900D01*
X134050000Y-41363012D01*
X133975153Y-41377900D01*
X129386948Y-41377900D01*
X129312100Y-41363012D01*
X129237252Y-41377900D01*
X129237248Y-41377900D01*
X129063705Y-41412420D01*
X129015562Y-41421996D01*
X128889986Y-41505904D01*
X128764171Y-41589971D01*
X128721771Y-41653427D01*
X118929669Y-51445529D01*
X118655082Y-51262056D01*
X118110000Y-51153632D01*
X117710000Y-51233197D01*
X117710000Y-32584743D01*
X117766930Y-32596220D01*
X117983000Y-32473720D01*
X117983000Y-30607000D01*
X117963000Y-30607000D01*
X117963000Y-30353000D01*
X117983000Y-30353000D01*
X117983000Y-30333000D01*
X118237000Y-30333000D01*
X118237000Y-30353000D01*
G36*
X132342821Y-32249180D02*
X132590000Y-32414340D01*
X132590001Y-37385489D01*
X132477431Y-37113720D01*
X132186280Y-36822569D01*
X131805874Y-36665000D01*
X131639801Y-36665000D01*
X131410000Y-36435199D01*
X131410000Y-32521249D01*
X131817180Y-32249180D01*
X132080001Y-31855841D01*
X132342821Y-32249180D01*
X132342821Y-32249180D01*
G37*
X132342821Y-32249180D02*
X132590000Y-32414340D01*
X132590001Y-37385489D01*
X132477431Y-37113720D01*
X132186280Y-36822569D01*
X131805874Y-36665000D01*
X131639801Y-36665000D01*
X131410000Y-36435199D01*
X131410000Y-32521249D01*
X131817180Y-32249180D01*
X132080001Y-31855841D01*
X132342821Y-32249180D01*
G04 #@! TD*
M02*
