G04 #@! TF.GenerationSoftware,KiCad,Pcbnew,(5.0.2)-1*
G04 #@! TF.CreationDate,2019-01-04T01:39:08+09:00*
G04 #@! TF.ProjectId,sdram,73647261-6d2e-46b6-9963-61645f706362,v1.0*
G04 #@! TF.SameCoordinates,Original*
G04 #@! TF.FileFunction,Paste,Top*
G04 #@! TF.FilePolarity,Positive*
%FSLAX46Y46*%
G04 Gerber Fmt 4.6, Leading zero omitted, Abs format (unit mm)*
G04 Created by KiCad (PCBNEW (5.0.2)-1) date 2019/01/04 1:39:08*
%MOMM*%
%LPD*%
G01*
G04 APERTURE LIST*
%ADD10O,1.524000X3.048000*%
%ADD11R,1.049020X1.079500*%
%ADD12R,0.550000X1.500000*%
G04 APERTURE END LIST*
D10*
G04 #@! TO.C,J1*
X118110000Y-53340000D03*
X120650000Y-53340000D03*
X123190000Y-53340000D03*
X125730000Y-53340000D03*
X128270000Y-53340000D03*
X130810000Y-53340000D03*
X133350000Y-53340000D03*
X135890000Y-53340000D03*
X138430000Y-53340000D03*
X140970000Y-53340000D03*
X143510000Y-53340000D03*
X146050000Y-53340000D03*
X148590000Y-53340000D03*
X151130000Y-53340000D03*
X153670000Y-53340000D03*
X156210000Y-53340000D03*
X158750000Y-53340000D03*
X161290000Y-53340000D03*
X163830000Y-53340000D03*
X166370000Y-53340000D03*
X168910000Y-53340000D03*
G04 #@! TD*
G04 #@! TO.C,J2*
X118110000Y-30480000D03*
X120650000Y-30480000D03*
X123190000Y-30480000D03*
X125730000Y-30480000D03*
X128270000Y-30480000D03*
X130810000Y-30480000D03*
X133350000Y-30480000D03*
X135890000Y-30480000D03*
X138430000Y-30480000D03*
X140970000Y-30480000D03*
X143510000Y-30480000D03*
X146050000Y-30480000D03*
X148590000Y-30480000D03*
X151130000Y-30480000D03*
X153670000Y-30480000D03*
X156210000Y-30480000D03*
X158750000Y-30480000D03*
X161290000Y-30480000D03*
X163830000Y-30480000D03*
X166370000Y-30480000D03*
X168910000Y-30480000D03*
G04 #@! TD*
D11*
G04 #@! TO.C,C1*
X136452240Y-50300000D03*
X138199760Y-50300000D03*
G04 #@! TD*
G04 #@! TO.C,C2*
X132452480Y-50400000D03*
X134200000Y-50400000D03*
G04 #@! TD*
G04 #@! TO.C,C3*
X140752240Y-50300000D03*
X142499760Y-50300000D03*
G04 #@! TD*
G04 #@! TO.C,C4*
X143950240Y-50300000D03*
X145697760Y-50300000D03*
G04 #@! TD*
G04 #@! TO.C,C5*
X155476240Y-50100000D03*
X157223760Y-50100000D03*
G04 #@! TD*
G04 #@! TO.C,C6*
X144999760Y-33900000D03*
X143252240Y-33900000D03*
G04 #@! TD*
G04 #@! TO.C,C7*
X138099760Y-33850000D03*
X136352240Y-33850000D03*
G04 #@! TD*
D12*
G04 #@! TO.C,U1*
X134500000Y-48100000D03*
X135300000Y-48100000D03*
X136100000Y-48100000D03*
X136900000Y-48100000D03*
X137700000Y-48100000D03*
X138500000Y-48100000D03*
X139300000Y-48100000D03*
X140100000Y-48100000D03*
X140900000Y-48100000D03*
X141700000Y-48100000D03*
X142500000Y-48100000D03*
X143300000Y-48100000D03*
X144100000Y-48100000D03*
X144900000Y-48100000D03*
X145700000Y-48100000D03*
X146500000Y-48100000D03*
X147300000Y-48100000D03*
X148100000Y-48100000D03*
X148900000Y-48100000D03*
X149700000Y-48100000D03*
X150500000Y-48100000D03*
X151300000Y-48100000D03*
X152100000Y-48100000D03*
X152900000Y-48100000D03*
X153700000Y-48100000D03*
X154500000Y-48100000D03*
X155300000Y-48100000D03*
X155300000Y-36100000D03*
X154500000Y-36100000D03*
X153700000Y-36100000D03*
X152900000Y-36100000D03*
X152100000Y-36100000D03*
X151300000Y-36100000D03*
X150500000Y-36100000D03*
X149700000Y-36100000D03*
X148900000Y-36100000D03*
X148100000Y-36100000D03*
X147300000Y-36100000D03*
X146500000Y-36100000D03*
X145700000Y-36100000D03*
X144900000Y-36100000D03*
X144100000Y-36100000D03*
X143300000Y-36100000D03*
X142500000Y-36100000D03*
X141700000Y-36100000D03*
X140900000Y-36100000D03*
X140100000Y-36100000D03*
X139300000Y-36100000D03*
X138500000Y-36100000D03*
X137700000Y-36100000D03*
X136900000Y-36100000D03*
X136100000Y-36100000D03*
X135300000Y-36100000D03*
X134500000Y-36100000D03*
G04 #@! TD*
M02*
