G04 #@! TF.GenerationSoftware,KiCad,Pcbnew,(5.0.2)-1*
G04 #@! TF.CreationDate,2019-01-04T01:39:08+09:00*
G04 #@! TF.ProjectId,sdram,73647261-6d2e-46b6-9963-61645f706362,v1.0*
G04 #@! TF.SameCoordinates,Original*
G04 #@! TF.FileFunction,Legend,Top*
G04 #@! TF.FilePolarity,Positive*
%FSLAX46Y46*%
G04 Gerber Fmt 4.6, Leading zero omitted, Abs format (unit mm)*
G04 Created by KiCad (PCBNEW (5.0.2)-1) date 2019/01/04 1:39:08*
%MOMM*%
%LPD*%
G01*
G04 APERTURE LIST*
%ADD10C,0.100000*%
%ADD11C,0.200000*%
%ADD12C,0.066040*%
%ADD13C,0.152400*%
%ADD14C,0.101600*%
%ADD15C,0.150000*%
%ADD16C,0.076200*%
G04 APERTURE END LIST*
D10*
X145742857Y-32814285D02*
X145714285Y-32842857D01*
X145628571Y-32871428D01*
X145571428Y-32871428D01*
X145485714Y-32842857D01*
X145428571Y-32785714D01*
X145400000Y-32728571D01*
X145371428Y-32614285D01*
X145371428Y-32528571D01*
X145400000Y-32414285D01*
X145428571Y-32357142D01*
X145485714Y-32300000D01*
X145571428Y-32271428D01*
X145628571Y-32271428D01*
X145714285Y-32300000D01*
X145742857Y-32328571D01*
X146285714Y-32871428D02*
X146000000Y-32871428D01*
X146000000Y-32271428D01*
X146485714Y-32871428D02*
X146485714Y-32271428D01*
X146828571Y-32871428D02*
X146571428Y-32528571D01*
X146828571Y-32271428D02*
X146485714Y-32614285D01*
X142371428Y-32871428D02*
X142371428Y-32271428D01*
X142514285Y-32271428D01*
X142600000Y-32300000D01*
X142657142Y-32357142D01*
X142685714Y-32414285D01*
X142714285Y-32528571D01*
X142714285Y-32614285D01*
X142685714Y-32728571D01*
X142657142Y-32785714D01*
X142600000Y-32842857D01*
X142514285Y-32871428D01*
X142371428Y-32871428D01*
X143371428Y-32928571D02*
X143314285Y-32900000D01*
X143257142Y-32842857D01*
X143171428Y-32757142D01*
X143114285Y-32728571D01*
X143057142Y-32728571D01*
X143085714Y-32871428D02*
X143028571Y-32842857D01*
X142971428Y-32785714D01*
X142942857Y-32671428D01*
X142942857Y-32471428D01*
X142971428Y-32357142D01*
X143028571Y-32300000D01*
X143085714Y-32271428D01*
X143200000Y-32271428D01*
X143257142Y-32300000D01*
X143314285Y-32357142D01*
X143342857Y-32471428D01*
X143342857Y-32671428D01*
X143314285Y-32785714D01*
X143257142Y-32842857D01*
X143200000Y-32871428D01*
X143085714Y-32871428D01*
X143600000Y-32871428D02*
X143600000Y-32271428D01*
X143800000Y-32700000D01*
X144000000Y-32271428D01*
X144000000Y-32871428D01*
X144285714Y-32871428D02*
X144285714Y-32271428D01*
X144285714Y-32557142D02*
X144628571Y-32557142D01*
X144628571Y-32871428D02*
X144628571Y-32271428D01*
D11*
X141361904Y-33728571D02*
X140561904Y-33728571D01*
X141361904Y-33271428D01*
X140561904Y-33271428D01*
X141285714Y-32433333D02*
X141323809Y-32471428D01*
X141361904Y-32585714D01*
X141361904Y-32661904D01*
X141323809Y-32776190D01*
X141247619Y-32852380D01*
X141171428Y-32890476D01*
X141019047Y-32928571D01*
X140904761Y-32928571D01*
X140752380Y-32890476D01*
X140676190Y-32852380D01*
X140600000Y-32776190D01*
X140561904Y-32661904D01*
X140561904Y-32585714D01*
X140600000Y-32471428D01*
X140638095Y-32433333D01*
D10*
X137642857Y-32871428D02*
X137642857Y-32271428D01*
X137785714Y-32271428D01*
X137871428Y-32300000D01*
X137928571Y-32357142D01*
X137957142Y-32414285D01*
X137985714Y-32528571D01*
X137985714Y-32614285D01*
X137957142Y-32728571D01*
X137928571Y-32785714D01*
X137871428Y-32842857D01*
X137785714Y-32871428D01*
X137642857Y-32871428D01*
X138642857Y-32928571D02*
X138585714Y-32900000D01*
X138528571Y-32842857D01*
X138442857Y-32757142D01*
X138385714Y-32728571D01*
X138328571Y-32728571D01*
X138357142Y-32871428D02*
X138300000Y-32842857D01*
X138242857Y-32785714D01*
X138214285Y-32671428D01*
X138214285Y-32471428D01*
X138242857Y-32357142D01*
X138300000Y-32300000D01*
X138357142Y-32271428D01*
X138471428Y-32271428D01*
X138528571Y-32300000D01*
X138585714Y-32357142D01*
X138614285Y-32471428D01*
X138614285Y-32671428D01*
X138585714Y-32785714D01*
X138528571Y-32842857D01*
X138471428Y-32871428D01*
X138357142Y-32871428D01*
X138957142Y-32528571D02*
X138900000Y-32500000D01*
X138871428Y-32471428D01*
X138842857Y-32414285D01*
X138842857Y-32385714D01*
X138871428Y-32328571D01*
X138900000Y-32300000D01*
X138957142Y-32271428D01*
X139071428Y-32271428D01*
X139128571Y-32300000D01*
X139157142Y-32328571D01*
X139185714Y-32385714D01*
X139185714Y-32414285D01*
X139157142Y-32471428D01*
X139128571Y-32500000D01*
X139071428Y-32528571D01*
X138957142Y-32528571D01*
X138900000Y-32557142D01*
X138871428Y-32585714D01*
X138842857Y-32642857D01*
X138842857Y-32757142D01*
X138871428Y-32814285D01*
X138900000Y-32842857D01*
X138957142Y-32871428D01*
X139071428Y-32871428D01*
X139128571Y-32842857D01*
X139157142Y-32814285D01*
X139185714Y-32757142D01*
X139185714Y-32642857D01*
X139157142Y-32585714D01*
X139128571Y-32557142D01*
X139071428Y-32528571D01*
X135142857Y-32871428D02*
X135142857Y-32271428D01*
X135285714Y-32271428D01*
X135371428Y-32300000D01*
X135428571Y-32357142D01*
X135457142Y-32414285D01*
X135485714Y-32528571D01*
X135485714Y-32614285D01*
X135457142Y-32728571D01*
X135428571Y-32785714D01*
X135371428Y-32842857D01*
X135285714Y-32871428D01*
X135142857Y-32871428D01*
X136142857Y-32928571D02*
X136085714Y-32900000D01*
X136028571Y-32842857D01*
X135942857Y-32757142D01*
X135885714Y-32728571D01*
X135828571Y-32728571D01*
X135857142Y-32871428D02*
X135800000Y-32842857D01*
X135742857Y-32785714D01*
X135714285Y-32671428D01*
X135714285Y-32471428D01*
X135742857Y-32357142D01*
X135800000Y-32300000D01*
X135857142Y-32271428D01*
X135971428Y-32271428D01*
X136028571Y-32300000D01*
X136085714Y-32357142D01*
X136114285Y-32471428D01*
X136114285Y-32671428D01*
X136085714Y-32785714D01*
X136028571Y-32842857D01*
X135971428Y-32871428D01*
X135857142Y-32871428D01*
X136400000Y-32871428D02*
X136514285Y-32871428D01*
X136571428Y-32842857D01*
X136600000Y-32814285D01*
X136657142Y-32728571D01*
X136685714Y-32614285D01*
X136685714Y-32385714D01*
X136657142Y-32328571D01*
X136628571Y-32300000D01*
X136571428Y-32271428D01*
X136457142Y-32271428D01*
X136400000Y-32300000D01*
X136371428Y-32328571D01*
X136342857Y-32385714D01*
X136342857Y-32528571D01*
X136371428Y-32585714D01*
X136400000Y-32614285D01*
X136457142Y-32642857D01*
X136571428Y-32642857D01*
X136628571Y-32614285D01*
X136657142Y-32585714D01*
X136685714Y-32528571D01*
X132257142Y-32971428D02*
X132257142Y-32371428D01*
X132400000Y-32371428D01*
X132485714Y-32400000D01*
X132542857Y-32457142D01*
X132571428Y-32514285D01*
X132600000Y-32628571D01*
X132600000Y-32714285D01*
X132571428Y-32828571D01*
X132542857Y-32885714D01*
X132485714Y-32942857D01*
X132400000Y-32971428D01*
X132257142Y-32971428D01*
X133257142Y-33028571D02*
X133200000Y-33000000D01*
X133142857Y-32942857D01*
X133057142Y-32857142D01*
X133000000Y-32828571D01*
X132942857Y-32828571D01*
X132971428Y-32971428D02*
X132914285Y-32942857D01*
X132857142Y-32885714D01*
X132828571Y-32771428D01*
X132828571Y-32571428D01*
X132857142Y-32457142D01*
X132914285Y-32400000D01*
X132971428Y-32371428D01*
X133085714Y-32371428D01*
X133142857Y-32400000D01*
X133200000Y-32457142D01*
X133228571Y-32571428D01*
X133228571Y-32771428D01*
X133200000Y-32885714D01*
X133142857Y-32942857D01*
X133085714Y-32971428D01*
X132971428Y-32971428D01*
X133800000Y-32971428D02*
X133457142Y-32971428D01*
X133628571Y-32971428D02*
X133628571Y-32371428D01*
X133571428Y-32457142D01*
X133514285Y-32514285D01*
X133457142Y-32542857D01*
X134171428Y-32371428D02*
X134228571Y-32371428D01*
X134285714Y-32400000D01*
X134314285Y-32428571D01*
X134342857Y-32485714D01*
X134371428Y-32600000D01*
X134371428Y-32742857D01*
X134342857Y-32857142D01*
X134314285Y-32914285D01*
X134285714Y-32942857D01*
X134228571Y-32971428D01*
X134171428Y-32971428D01*
X134114285Y-32942857D01*
X134085714Y-32914285D01*
X134057142Y-32857142D01*
X134028571Y-32742857D01*
X134028571Y-32600000D01*
X134057142Y-32485714D01*
X134085714Y-32428571D01*
X134114285Y-32400000D01*
X134171428Y-32371428D01*
D11*
X131261904Y-35190476D02*
X130461904Y-35190476D01*
X130461904Y-35000000D01*
X130500000Y-34885714D01*
X130576190Y-34809523D01*
X130652380Y-34771428D01*
X130804761Y-34733333D01*
X130919047Y-34733333D01*
X131071428Y-34771428D01*
X131147619Y-34809523D01*
X131223809Y-34885714D01*
X131261904Y-35000000D01*
X131261904Y-35190476D01*
X131338095Y-33857142D02*
X131300000Y-33933333D01*
X131223809Y-34009523D01*
X131109523Y-34123809D01*
X131071428Y-34200000D01*
X131071428Y-34276190D01*
X131261904Y-34238095D02*
X131223809Y-34314285D01*
X131147619Y-34390476D01*
X130995238Y-34428571D01*
X130728571Y-34428571D01*
X130576190Y-34390476D01*
X130500000Y-34314285D01*
X130461904Y-34238095D01*
X130461904Y-34085714D01*
X130500000Y-34009523D01*
X130576190Y-33933333D01*
X130728571Y-33895238D01*
X130995238Y-33895238D01*
X131147619Y-33933333D01*
X131223809Y-34009523D01*
X131261904Y-34085714D01*
X131261904Y-34238095D01*
X131261904Y-33133333D02*
X131261904Y-33590476D01*
X131261904Y-33361904D02*
X130461904Y-33361904D01*
X130576190Y-33438095D01*
X130652380Y-33514285D01*
X130690476Y-33590476D01*
X131261904Y-32371428D02*
X131261904Y-32828571D01*
X131261904Y-32600000D02*
X130461904Y-32600000D01*
X130576190Y-32676190D01*
X130652380Y-32752380D01*
X130690476Y-32828571D01*
X128761904Y-35190476D02*
X127961904Y-35190476D01*
X127961904Y-35000000D01*
X128000000Y-34885714D01*
X128076190Y-34809523D01*
X128152380Y-34771428D01*
X128304761Y-34733333D01*
X128419047Y-34733333D01*
X128571428Y-34771428D01*
X128647619Y-34809523D01*
X128723809Y-34885714D01*
X128761904Y-35000000D01*
X128761904Y-35190476D01*
X128838095Y-33857142D02*
X128800000Y-33933333D01*
X128723809Y-34009523D01*
X128609523Y-34123809D01*
X128571428Y-34200000D01*
X128571428Y-34276190D01*
X128761904Y-34238095D02*
X128723809Y-34314285D01*
X128647619Y-34390476D01*
X128495238Y-34428571D01*
X128228571Y-34428571D01*
X128076190Y-34390476D01*
X128000000Y-34314285D01*
X127961904Y-34238095D01*
X127961904Y-34085714D01*
X128000000Y-34009523D01*
X128076190Y-33933333D01*
X128228571Y-33895238D01*
X128495238Y-33895238D01*
X128647619Y-33933333D01*
X128723809Y-34009523D01*
X128761904Y-34085714D01*
X128761904Y-34238095D01*
X128761904Y-33133333D02*
X128761904Y-33590476D01*
X128761904Y-33361904D02*
X127961904Y-33361904D01*
X128076190Y-33438095D01*
X128152380Y-33514285D01*
X128190476Y-33590476D01*
X128038095Y-32828571D02*
X128000000Y-32790476D01*
X127961904Y-32714285D01*
X127961904Y-32523809D01*
X128000000Y-32447619D01*
X128038095Y-32409523D01*
X128114285Y-32371428D01*
X128190476Y-32371428D01*
X128304761Y-32409523D01*
X128761904Y-32866666D01*
X128761904Y-32371428D01*
X126061904Y-35190476D02*
X125261904Y-35190476D01*
X125261904Y-35000000D01*
X125300000Y-34885714D01*
X125376190Y-34809523D01*
X125452380Y-34771428D01*
X125604761Y-34733333D01*
X125719047Y-34733333D01*
X125871428Y-34771428D01*
X125947619Y-34809523D01*
X126023809Y-34885714D01*
X126061904Y-35000000D01*
X126061904Y-35190476D01*
X126138095Y-33857142D02*
X126100000Y-33933333D01*
X126023809Y-34009523D01*
X125909523Y-34123809D01*
X125871428Y-34200000D01*
X125871428Y-34276190D01*
X126061904Y-34238095D02*
X126023809Y-34314285D01*
X125947619Y-34390476D01*
X125795238Y-34428571D01*
X125528571Y-34428571D01*
X125376190Y-34390476D01*
X125300000Y-34314285D01*
X125261904Y-34238095D01*
X125261904Y-34085714D01*
X125300000Y-34009523D01*
X125376190Y-33933333D01*
X125528571Y-33895238D01*
X125795238Y-33895238D01*
X125947619Y-33933333D01*
X126023809Y-34009523D01*
X126061904Y-34085714D01*
X126061904Y-34238095D01*
X126061904Y-33133333D02*
X126061904Y-33590476D01*
X126061904Y-33361904D02*
X125261904Y-33361904D01*
X125376190Y-33438095D01*
X125452380Y-33514285D01*
X125490476Y-33590476D01*
X125261904Y-32866666D02*
X125261904Y-32371428D01*
X125566666Y-32638095D01*
X125566666Y-32523809D01*
X125604761Y-32447619D01*
X125642857Y-32409523D01*
X125719047Y-32371428D01*
X125909523Y-32371428D01*
X125985714Y-32409523D01*
X126023809Y-32447619D01*
X126061904Y-32523809D01*
X126061904Y-32752380D01*
X126023809Y-32828571D01*
X125985714Y-32866666D01*
X123561904Y-35190476D02*
X122761904Y-35190476D01*
X122761904Y-35000000D01*
X122800000Y-34885714D01*
X122876190Y-34809523D01*
X122952380Y-34771428D01*
X123104761Y-34733333D01*
X123219047Y-34733333D01*
X123371428Y-34771428D01*
X123447619Y-34809523D01*
X123523809Y-34885714D01*
X123561904Y-35000000D01*
X123561904Y-35190476D01*
X123638095Y-33857142D02*
X123600000Y-33933333D01*
X123523809Y-34009523D01*
X123409523Y-34123809D01*
X123371428Y-34200000D01*
X123371428Y-34276190D01*
X123561904Y-34238095D02*
X123523809Y-34314285D01*
X123447619Y-34390476D01*
X123295238Y-34428571D01*
X123028571Y-34428571D01*
X122876190Y-34390476D01*
X122800000Y-34314285D01*
X122761904Y-34238095D01*
X122761904Y-34085714D01*
X122800000Y-34009523D01*
X122876190Y-33933333D01*
X123028571Y-33895238D01*
X123295238Y-33895238D01*
X123447619Y-33933333D01*
X123523809Y-34009523D01*
X123561904Y-34085714D01*
X123561904Y-34238095D01*
X123561904Y-33133333D02*
X123561904Y-33590476D01*
X123561904Y-33361904D02*
X122761904Y-33361904D01*
X122876190Y-33438095D01*
X122952380Y-33514285D01*
X122990476Y-33590476D01*
X123028571Y-32447619D02*
X123561904Y-32447619D01*
X122723809Y-32638095D02*
X123295238Y-32828571D01*
X123295238Y-32333333D01*
X121061904Y-35290476D02*
X120261904Y-35290476D01*
X120261904Y-35100000D01*
X120300000Y-34985714D01*
X120376190Y-34909523D01*
X120452380Y-34871428D01*
X120604761Y-34833333D01*
X120719047Y-34833333D01*
X120871428Y-34871428D01*
X120947619Y-34909523D01*
X121023809Y-34985714D01*
X121061904Y-35100000D01*
X121061904Y-35290476D01*
X121138095Y-33957142D02*
X121100000Y-34033333D01*
X121023809Y-34109523D01*
X120909523Y-34223809D01*
X120871428Y-34300000D01*
X120871428Y-34376190D01*
X121061904Y-34338095D02*
X121023809Y-34414285D01*
X120947619Y-34490476D01*
X120795238Y-34528571D01*
X120528571Y-34528571D01*
X120376190Y-34490476D01*
X120300000Y-34414285D01*
X120261904Y-34338095D01*
X120261904Y-34185714D01*
X120300000Y-34109523D01*
X120376190Y-34033333D01*
X120528571Y-33995238D01*
X120795238Y-33995238D01*
X120947619Y-34033333D01*
X121023809Y-34109523D01*
X121061904Y-34185714D01*
X121061904Y-34338095D01*
X121061904Y-33233333D02*
X121061904Y-33690476D01*
X121061904Y-33461904D02*
X120261904Y-33461904D01*
X120376190Y-33538095D01*
X120452380Y-33614285D01*
X120490476Y-33690476D01*
X120261904Y-32509523D02*
X120261904Y-32890476D01*
X120642857Y-32928571D01*
X120604761Y-32890476D01*
X120566666Y-32814285D01*
X120566666Y-32623809D01*
X120604761Y-32547619D01*
X120642857Y-32509523D01*
X120719047Y-32471428D01*
X120909523Y-32471428D01*
X120985714Y-32509523D01*
X121023809Y-32547619D01*
X121061904Y-32623809D01*
X121061904Y-32814285D01*
X121023809Y-32890476D01*
X120985714Y-32928571D01*
X117700000Y-34109523D02*
X117661904Y-34185714D01*
X117661904Y-34300000D01*
X117700000Y-34414285D01*
X117776190Y-34490476D01*
X117852380Y-34528571D01*
X118004761Y-34566666D01*
X118119047Y-34566666D01*
X118271428Y-34528571D01*
X118347619Y-34490476D01*
X118423809Y-34414285D01*
X118461904Y-34300000D01*
X118461904Y-34223809D01*
X118423809Y-34109523D01*
X118385714Y-34071428D01*
X118119047Y-34071428D01*
X118119047Y-34223809D01*
X118461904Y-33728571D02*
X117661904Y-33728571D01*
X118461904Y-33271428D01*
X117661904Y-33271428D01*
X118461904Y-32890476D02*
X117661904Y-32890476D01*
X117661904Y-32700000D01*
X117700000Y-32585714D01*
X117776190Y-32509523D01*
X117852380Y-32471428D01*
X118004761Y-32433333D01*
X118119047Y-32433333D01*
X118271428Y-32471428D01*
X118347619Y-32509523D01*
X118423809Y-32585714D01*
X118461904Y-32700000D01*
X118461904Y-32890476D01*
X148885714Y-33814285D02*
X148923809Y-33852380D01*
X148961904Y-33966666D01*
X148961904Y-34042857D01*
X148923809Y-34157142D01*
X148847619Y-34233333D01*
X148771428Y-34271428D01*
X148619047Y-34309523D01*
X148504761Y-34309523D01*
X148352380Y-34271428D01*
X148276190Y-34233333D01*
X148200000Y-34157142D01*
X148161904Y-34042857D01*
X148161904Y-33966666D01*
X148200000Y-33852380D01*
X148238095Y-33814285D01*
X148961904Y-33471428D02*
X148161904Y-33471428D01*
X148961904Y-33014285D02*
X148504761Y-33357142D01*
X148161904Y-33014285D02*
X148619047Y-33471428D01*
X148542857Y-32671428D02*
X148542857Y-32404761D01*
X148961904Y-32290476D02*
X148961904Y-32671428D01*
X148161904Y-32671428D01*
X148161904Y-32290476D01*
X151461904Y-33828571D02*
X150661904Y-33828571D01*
X151461904Y-33371428D01*
X150661904Y-33371428D01*
X151385714Y-32533333D02*
X151423809Y-32571428D01*
X151461904Y-32685714D01*
X151461904Y-32761904D01*
X151423809Y-32876190D01*
X151347619Y-32952380D01*
X151271428Y-32990476D01*
X151119047Y-33028571D01*
X151004761Y-33028571D01*
X150852380Y-32990476D01*
X150776190Y-32952380D01*
X150700000Y-32876190D01*
X150661904Y-32761904D01*
X150661904Y-32685714D01*
X150700000Y-32571428D01*
X150738095Y-32533333D01*
X153933333Y-34052380D02*
X153933333Y-33671428D01*
X154161904Y-34128571D02*
X153361904Y-33861904D01*
X154161904Y-33595238D01*
X154161904Y-32909523D02*
X154161904Y-33366666D01*
X154161904Y-33138095D02*
X153361904Y-33138095D01*
X153476190Y-33214285D01*
X153552380Y-33290476D01*
X153590476Y-33366666D01*
X154161904Y-32147619D02*
X154161904Y-32604761D01*
X154161904Y-32376190D02*
X153361904Y-32376190D01*
X153476190Y-32452380D01*
X153552380Y-32528571D01*
X153590476Y-32604761D01*
X156333333Y-33571428D02*
X156333333Y-33190476D01*
X156561904Y-33647619D02*
X155761904Y-33380952D01*
X156561904Y-33114285D01*
X156561904Y-32809523D02*
X156561904Y-32657142D01*
X156523809Y-32580952D01*
X156485714Y-32542857D01*
X156371428Y-32466666D01*
X156219047Y-32428571D01*
X155914285Y-32428571D01*
X155838095Y-32466666D01*
X155800000Y-32504761D01*
X155761904Y-32580952D01*
X155761904Y-32733333D01*
X155800000Y-32809523D01*
X155838095Y-32847619D01*
X155914285Y-32885714D01*
X156104761Y-32885714D01*
X156180952Y-32847619D01*
X156219047Y-32809523D01*
X156257142Y-32733333D01*
X156257142Y-32580952D01*
X156219047Y-32504761D01*
X156180952Y-32466666D01*
X156104761Y-32428571D01*
X159033333Y-33571428D02*
X159033333Y-33190476D01*
X159261904Y-33647619D02*
X158461904Y-33380952D01*
X159261904Y-33114285D01*
X158804761Y-32733333D02*
X158766666Y-32809523D01*
X158728571Y-32847619D01*
X158652380Y-32885714D01*
X158614285Y-32885714D01*
X158538095Y-32847619D01*
X158500000Y-32809523D01*
X158461904Y-32733333D01*
X158461904Y-32580952D01*
X158500000Y-32504761D01*
X158538095Y-32466666D01*
X158614285Y-32428571D01*
X158652380Y-32428571D01*
X158728571Y-32466666D01*
X158766666Y-32504761D01*
X158804761Y-32580952D01*
X158804761Y-32733333D01*
X158842857Y-32809523D01*
X158880952Y-32847619D01*
X158957142Y-32885714D01*
X159109523Y-32885714D01*
X159185714Y-32847619D01*
X159223809Y-32809523D01*
X159261904Y-32733333D01*
X159261904Y-32580952D01*
X159223809Y-32504761D01*
X159185714Y-32466666D01*
X159109523Y-32428571D01*
X158957142Y-32428571D01*
X158880952Y-32466666D01*
X158842857Y-32504761D01*
X158804761Y-32580952D01*
X161433333Y-33571428D02*
X161433333Y-33190476D01*
X161661904Y-33647619D02*
X160861904Y-33380952D01*
X161661904Y-33114285D01*
X160861904Y-32923809D02*
X160861904Y-32390476D01*
X161661904Y-32733333D01*
X163933333Y-33571428D02*
X163933333Y-33190476D01*
X164161904Y-33647619D02*
X163361904Y-33380952D01*
X164161904Y-33114285D01*
X163361904Y-32504761D02*
X163361904Y-32657142D01*
X163400000Y-32733333D01*
X163438095Y-32771428D01*
X163552380Y-32847619D01*
X163704761Y-32885714D01*
X164009523Y-32885714D01*
X164085714Y-32847619D01*
X164123809Y-32809523D01*
X164161904Y-32733333D01*
X164161904Y-32580952D01*
X164123809Y-32504761D01*
X164085714Y-32466666D01*
X164009523Y-32428571D01*
X163819047Y-32428571D01*
X163742857Y-32466666D01*
X163704761Y-32504761D01*
X163666666Y-32580952D01*
X163666666Y-32733333D01*
X163704761Y-32809523D01*
X163742857Y-32847619D01*
X163819047Y-32885714D01*
X166533333Y-33571428D02*
X166533333Y-33190476D01*
X166761904Y-33647619D02*
X165961904Y-33380952D01*
X166761904Y-33114285D01*
X165961904Y-32466666D02*
X165961904Y-32847619D01*
X166342857Y-32885714D01*
X166304761Y-32847619D01*
X166266666Y-32771428D01*
X166266666Y-32580952D01*
X166304761Y-32504761D01*
X166342857Y-32466666D01*
X166419047Y-32428571D01*
X166609523Y-32428571D01*
X166685714Y-32466666D01*
X166723809Y-32504761D01*
X166761904Y-32580952D01*
X166761904Y-32771428D01*
X166723809Y-32847619D01*
X166685714Y-32885714D01*
X169033333Y-33571428D02*
X169033333Y-33190476D01*
X169261904Y-33647619D02*
X168461904Y-33380952D01*
X169261904Y-33114285D01*
X168728571Y-32504761D02*
X169261904Y-32504761D01*
X168423809Y-32695238D02*
X168995238Y-32885714D01*
X168995238Y-32390476D01*
X169033333Y-51271428D02*
X169033333Y-50890476D01*
X169261904Y-51347619D02*
X168461904Y-51080952D01*
X169261904Y-50814285D01*
X168461904Y-50623809D02*
X168461904Y-50128571D01*
X168766666Y-50395238D01*
X168766666Y-50280952D01*
X168804761Y-50204761D01*
X168842857Y-50166666D01*
X168919047Y-50128571D01*
X169109523Y-50128571D01*
X169185714Y-50166666D01*
X169223809Y-50204761D01*
X169261904Y-50280952D01*
X169261904Y-50509523D01*
X169223809Y-50585714D01*
X169185714Y-50623809D01*
X166433333Y-51271428D02*
X166433333Y-50890476D01*
X166661904Y-51347619D02*
X165861904Y-51080952D01*
X166661904Y-50814285D01*
X165938095Y-50585714D02*
X165900000Y-50547619D01*
X165861904Y-50471428D01*
X165861904Y-50280952D01*
X165900000Y-50204761D01*
X165938095Y-50166666D01*
X166014285Y-50128571D01*
X166090476Y-50128571D01*
X166204761Y-50166666D01*
X166661904Y-50623809D01*
X166661904Y-50128571D01*
X163933333Y-51271428D02*
X163933333Y-50890476D01*
X164161904Y-51347619D02*
X163361904Y-51080952D01*
X164161904Y-50814285D01*
X164161904Y-50128571D02*
X164161904Y-50585714D01*
X164161904Y-50357142D02*
X163361904Y-50357142D01*
X163476190Y-50433333D01*
X163552380Y-50509523D01*
X163590476Y-50585714D01*
X161433333Y-51371428D02*
X161433333Y-50990476D01*
X161661904Y-51447619D02*
X160861904Y-51180952D01*
X161661904Y-50914285D01*
X160861904Y-50495238D02*
X160861904Y-50419047D01*
X160900000Y-50342857D01*
X160938095Y-50304761D01*
X161014285Y-50266666D01*
X161166666Y-50228571D01*
X161357142Y-50228571D01*
X161509523Y-50266666D01*
X161585714Y-50304761D01*
X161623809Y-50342857D01*
X161661904Y-50419047D01*
X161661904Y-50495238D01*
X161623809Y-50571428D01*
X161585714Y-50609523D01*
X161509523Y-50647619D01*
X161357142Y-50685714D01*
X161166666Y-50685714D01*
X161014285Y-50647619D01*
X160938095Y-50609523D01*
X160900000Y-50571428D01*
X160861904Y-50495238D01*
X158933333Y-51452380D02*
X158933333Y-51071428D01*
X159161904Y-51528571D02*
X158361904Y-51261904D01*
X159161904Y-50995238D01*
X159161904Y-50309523D02*
X159161904Y-50766666D01*
X159161904Y-50538095D02*
X158361904Y-50538095D01*
X158476190Y-50614285D01*
X158552380Y-50690476D01*
X158590476Y-50766666D01*
X158361904Y-49814285D02*
X158361904Y-49738095D01*
X158400000Y-49661904D01*
X158438095Y-49623809D01*
X158514285Y-49585714D01*
X158666666Y-49547619D01*
X158857142Y-49547619D01*
X159009523Y-49585714D01*
X159085714Y-49623809D01*
X159123809Y-49661904D01*
X159161904Y-49738095D01*
X159161904Y-49814285D01*
X159123809Y-49890476D01*
X159085714Y-49928571D01*
X159009523Y-49966666D01*
X158857142Y-50004761D01*
X158666666Y-50004761D01*
X158514285Y-49966666D01*
X158438095Y-49928571D01*
X158400000Y-49890476D01*
X158361904Y-49814285D01*
D10*
X155700000Y-51257142D02*
X155785714Y-51285714D01*
X155814285Y-51314285D01*
X155842857Y-51371428D01*
X155842857Y-51457142D01*
X155814285Y-51514285D01*
X155785714Y-51542857D01*
X155728571Y-51571428D01*
X155500000Y-51571428D01*
X155500000Y-50971428D01*
X155700000Y-50971428D01*
X155757142Y-51000000D01*
X155785714Y-51028571D01*
X155814285Y-51085714D01*
X155814285Y-51142857D01*
X155785714Y-51200000D01*
X155757142Y-51228571D01*
X155700000Y-51257142D01*
X155500000Y-51257142D01*
X156071428Y-51400000D02*
X156357142Y-51400000D01*
X156014285Y-51571428D02*
X156214285Y-50971428D01*
X156414285Y-51571428D01*
X156928571Y-51571428D02*
X156585714Y-51571428D01*
X156757142Y-51571428D02*
X156757142Y-50971428D01*
X156700000Y-51057142D01*
X156642857Y-51114285D01*
X156585714Y-51142857D01*
D11*
X153642857Y-51166666D02*
X153680952Y-51052380D01*
X153719047Y-51014285D01*
X153795238Y-50976190D01*
X153909523Y-50976190D01*
X153985714Y-51014285D01*
X154023809Y-51052380D01*
X154061904Y-51128571D01*
X154061904Y-51433333D01*
X153261904Y-51433333D01*
X153261904Y-51166666D01*
X153300000Y-51090476D01*
X153338095Y-51052380D01*
X153414285Y-51014285D01*
X153490476Y-51014285D01*
X153566666Y-51052380D01*
X153604761Y-51090476D01*
X153642857Y-51166666D01*
X153642857Y-51433333D01*
X153833333Y-50671428D02*
X153833333Y-50290476D01*
X154061904Y-50747619D02*
X153261904Y-50480952D01*
X154061904Y-50214285D01*
X153261904Y-49795238D02*
X153261904Y-49719047D01*
X153300000Y-49642857D01*
X153338095Y-49604761D01*
X153414285Y-49566666D01*
X153566666Y-49528571D01*
X153757142Y-49528571D01*
X153909523Y-49566666D01*
X153985714Y-49604761D01*
X154023809Y-49642857D01*
X154061904Y-49719047D01*
X154061904Y-49795238D01*
X154023809Y-49871428D01*
X153985714Y-49909523D01*
X153909523Y-49947619D01*
X153757142Y-49985714D01*
X153566666Y-49985714D01*
X153414285Y-49947619D01*
X153338095Y-49909523D01*
X153300000Y-49871428D01*
X153261904Y-49795238D01*
X151485714Y-50833333D02*
X151523809Y-50871428D01*
X151561904Y-50985714D01*
X151561904Y-51061904D01*
X151523809Y-51176190D01*
X151447619Y-51252380D01*
X151371428Y-51290476D01*
X151219047Y-51328571D01*
X151104761Y-51328571D01*
X150952380Y-51290476D01*
X150876190Y-51252380D01*
X150800000Y-51176190D01*
X150761904Y-51061904D01*
X150761904Y-50985714D01*
X150800000Y-50871428D01*
X150838095Y-50833333D01*
X151523809Y-50528571D02*
X151561904Y-50414285D01*
X151561904Y-50223809D01*
X151523809Y-50147619D01*
X151485714Y-50109523D01*
X151409523Y-50071428D01*
X151333333Y-50071428D01*
X151257142Y-50109523D01*
X151219047Y-50147619D01*
X151180952Y-50223809D01*
X151142857Y-50376190D01*
X151104761Y-50452380D01*
X151066666Y-50490476D01*
X150990476Y-50528571D01*
X150914285Y-50528571D01*
X150838095Y-50490476D01*
X150800000Y-50452380D01*
X150761904Y-50376190D01*
X150761904Y-50185714D01*
X150800000Y-50071428D01*
X148961904Y-50876190D02*
X148580952Y-51142857D01*
X148961904Y-51333333D02*
X148161904Y-51333333D01*
X148161904Y-51028571D01*
X148200000Y-50952380D01*
X148238095Y-50914285D01*
X148314285Y-50876190D01*
X148428571Y-50876190D01*
X148504761Y-50914285D01*
X148542857Y-50952380D01*
X148580952Y-51028571D01*
X148580952Y-51333333D01*
X148733333Y-50571428D02*
X148733333Y-50190476D01*
X148961904Y-50647619D02*
X148161904Y-50380952D01*
X148961904Y-50114285D01*
X148923809Y-49885714D02*
X148961904Y-49771428D01*
X148961904Y-49580952D01*
X148923809Y-49504761D01*
X148885714Y-49466666D01*
X148809523Y-49428571D01*
X148733333Y-49428571D01*
X148657142Y-49466666D01*
X148619047Y-49504761D01*
X148580952Y-49580952D01*
X148542857Y-49733333D01*
X148504761Y-49809523D01*
X148466666Y-49847619D01*
X148390476Y-49885714D01*
X148314285Y-49885714D01*
X148238095Y-49847619D01*
X148200000Y-49809523D01*
X148161904Y-49733333D01*
X148161904Y-49542857D01*
X148200000Y-49428571D01*
D10*
X145742857Y-51714285D02*
X145714285Y-51742857D01*
X145628571Y-51771428D01*
X145571428Y-51771428D01*
X145485714Y-51742857D01*
X145428571Y-51685714D01*
X145400000Y-51628571D01*
X145371428Y-51514285D01*
X145371428Y-51428571D01*
X145400000Y-51314285D01*
X145428571Y-51257142D01*
X145485714Y-51200000D01*
X145571428Y-51171428D01*
X145628571Y-51171428D01*
X145714285Y-51200000D01*
X145742857Y-51228571D01*
X145971428Y-51600000D02*
X146257142Y-51600000D01*
X145914285Y-51771428D02*
X146114285Y-51171428D01*
X146314285Y-51771428D01*
X146485714Y-51742857D02*
X146571428Y-51771428D01*
X146714285Y-51771428D01*
X146771428Y-51742857D01*
X146800000Y-51714285D01*
X146828571Y-51657142D01*
X146828571Y-51600000D01*
X146800000Y-51542857D01*
X146771428Y-51514285D01*
X146714285Y-51485714D01*
X146600000Y-51457142D01*
X146542857Y-51428571D01*
X146514285Y-51400000D01*
X146485714Y-51342857D01*
X146485714Y-51285714D01*
X146514285Y-51228571D01*
X146542857Y-51200000D01*
X146600000Y-51171428D01*
X146742857Y-51171428D01*
X146828571Y-51200000D01*
X143071428Y-51171428D02*
X143214285Y-51771428D01*
X143328571Y-51342857D01*
X143442857Y-51771428D01*
X143585714Y-51171428D01*
X143814285Y-51457142D02*
X144014285Y-51457142D01*
X144100000Y-51771428D02*
X143814285Y-51771428D01*
X143814285Y-51171428D01*
X144100000Y-51171428D01*
X139942857Y-51771428D02*
X139942857Y-51171428D01*
X140085714Y-51171428D01*
X140171428Y-51200000D01*
X140228571Y-51257142D01*
X140257142Y-51314285D01*
X140285714Y-51428571D01*
X140285714Y-51514285D01*
X140257142Y-51628571D01*
X140228571Y-51685714D01*
X140171428Y-51742857D01*
X140085714Y-51771428D01*
X139942857Y-51771428D01*
X140942857Y-51828571D02*
X140885714Y-51800000D01*
X140828571Y-51742857D01*
X140742857Y-51657142D01*
X140685714Y-51628571D01*
X140628571Y-51628571D01*
X140657142Y-51771428D02*
X140600000Y-51742857D01*
X140542857Y-51685714D01*
X140514285Y-51571428D01*
X140514285Y-51371428D01*
X140542857Y-51257142D01*
X140600000Y-51200000D01*
X140657142Y-51171428D01*
X140771428Y-51171428D01*
X140828571Y-51200000D01*
X140885714Y-51257142D01*
X140914285Y-51371428D01*
X140914285Y-51571428D01*
X140885714Y-51685714D01*
X140828571Y-51742857D01*
X140771428Y-51771428D01*
X140657142Y-51771428D01*
X141171428Y-51771428D02*
X141171428Y-51171428D01*
X141371428Y-51600000D01*
X141571428Y-51171428D01*
X141571428Y-51771428D01*
X142142857Y-51771428D02*
X141857142Y-51771428D01*
X141857142Y-51171428D01*
X137742857Y-51771428D02*
X137742857Y-51171428D01*
X137885714Y-51171428D01*
X137971428Y-51200000D01*
X138028571Y-51257142D01*
X138057142Y-51314285D01*
X138085714Y-51428571D01*
X138085714Y-51514285D01*
X138057142Y-51628571D01*
X138028571Y-51685714D01*
X137971428Y-51742857D01*
X137885714Y-51771428D01*
X137742857Y-51771428D01*
X138742857Y-51828571D02*
X138685714Y-51800000D01*
X138628571Y-51742857D01*
X138542857Y-51657142D01*
X138485714Y-51628571D01*
X138428571Y-51628571D01*
X138457142Y-51771428D02*
X138400000Y-51742857D01*
X138342857Y-51685714D01*
X138314285Y-51571428D01*
X138314285Y-51371428D01*
X138342857Y-51257142D01*
X138400000Y-51200000D01*
X138457142Y-51171428D01*
X138571428Y-51171428D01*
X138628571Y-51200000D01*
X138685714Y-51257142D01*
X138714285Y-51371428D01*
X138714285Y-51571428D01*
X138685714Y-51685714D01*
X138628571Y-51742857D01*
X138571428Y-51771428D01*
X138457142Y-51771428D01*
X138914285Y-51171428D02*
X139314285Y-51171428D01*
X139057142Y-51771428D01*
X135042857Y-51771428D02*
X135042857Y-51171428D01*
X135185714Y-51171428D01*
X135271428Y-51200000D01*
X135328571Y-51257142D01*
X135357142Y-51314285D01*
X135385714Y-51428571D01*
X135385714Y-51514285D01*
X135357142Y-51628571D01*
X135328571Y-51685714D01*
X135271428Y-51742857D01*
X135185714Y-51771428D01*
X135042857Y-51771428D01*
X136042857Y-51828571D02*
X135985714Y-51800000D01*
X135928571Y-51742857D01*
X135842857Y-51657142D01*
X135785714Y-51628571D01*
X135728571Y-51628571D01*
X135757142Y-51771428D02*
X135700000Y-51742857D01*
X135642857Y-51685714D01*
X135614285Y-51571428D01*
X135614285Y-51371428D01*
X135642857Y-51257142D01*
X135700000Y-51200000D01*
X135757142Y-51171428D01*
X135871428Y-51171428D01*
X135928571Y-51200000D01*
X135985714Y-51257142D01*
X136014285Y-51371428D01*
X136014285Y-51571428D01*
X135985714Y-51685714D01*
X135928571Y-51742857D01*
X135871428Y-51771428D01*
X135757142Y-51771428D01*
X136528571Y-51171428D02*
X136414285Y-51171428D01*
X136357142Y-51200000D01*
X136328571Y-51228571D01*
X136271428Y-51314285D01*
X136242857Y-51428571D01*
X136242857Y-51657142D01*
X136271428Y-51714285D01*
X136300000Y-51742857D01*
X136357142Y-51771428D01*
X136471428Y-51771428D01*
X136528571Y-51742857D01*
X136557142Y-51714285D01*
X136585714Y-51657142D01*
X136585714Y-51514285D01*
X136557142Y-51457142D01*
X136528571Y-51428571D01*
X136471428Y-51400000D01*
X136357142Y-51400000D01*
X136300000Y-51428571D01*
X136271428Y-51457142D01*
X136242857Y-51514285D01*
X132542857Y-51771428D02*
X132542857Y-51171428D01*
X132685714Y-51171428D01*
X132771428Y-51200000D01*
X132828571Y-51257142D01*
X132857142Y-51314285D01*
X132885714Y-51428571D01*
X132885714Y-51514285D01*
X132857142Y-51628571D01*
X132828571Y-51685714D01*
X132771428Y-51742857D01*
X132685714Y-51771428D01*
X132542857Y-51771428D01*
X133542857Y-51828571D02*
X133485714Y-51800000D01*
X133428571Y-51742857D01*
X133342857Y-51657142D01*
X133285714Y-51628571D01*
X133228571Y-51628571D01*
X133257142Y-51771428D02*
X133200000Y-51742857D01*
X133142857Y-51685714D01*
X133114285Y-51571428D01*
X133114285Y-51371428D01*
X133142857Y-51257142D01*
X133200000Y-51200000D01*
X133257142Y-51171428D01*
X133371428Y-51171428D01*
X133428571Y-51200000D01*
X133485714Y-51257142D01*
X133514285Y-51371428D01*
X133514285Y-51571428D01*
X133485714Y-51685714D01*
X133428571Y-51742857D01*
X133371428Y-51771428D01*
X133257142Y-51771428D01*
X134057142Y-51171428D02*
X133771428Y-51171428D01*
X133742857Y-51457142D01*
X133771428Y-51428571D01*
X133828571Y-51400000D01*
X133971428Y-51400000D01*
X134028571Y-51428571D01*
X134057142Y-51457142D01*
X134085714Y-51514285D01*
X134085714Y-51657142D01*
X134057142Y-51714285D01*
X134028571Y-51742857D01*
X133971428Y-51771428D01*
X133828571Y-51771428D01*
X133771428Y-51742857D01*
X133742857Y-51714285D01*
D11*
X131161904Y-51409523D02*
X130361904Y-51409523D01*
X130361904Y-51219047D01*
X130400000Y-51104761D01*
X130476190Y-51028571D01*
X130552380Y-50990476D01*
X130704761Y-50952380D01*
X130819047Y-50952380D01*
X130971428Y-50990476D01*
X131047619Y-51028571D01*
X131123809Y-51104761D01*
X131161904Y-51219047D01*
X131161904Y-51409523D01*
X131238095Y-50076190D02*
X131200000Y-50152380D01*
X131123809Y-50228571D01*
X131009523Y-50342857D01*
X130971428Y-50419047D01*
X130971428Y-50495238D01*
X131161904Y-50457142D02*
X131123809Y-50533333D01*
X131047619Y-50609523D01*
X130895238Y-50647619D01*
X130628571Y-50647619D01*
X130476190Y-50609523D01*
X130400000Y-50533333D01*
X130361904Y-50457142D01*
X130361904Y-50304761D01*
X130400000Y-50228571D01*
X130476190Y-50152380D01*
X130628571Y-50114285D01*
X130895238Y-50114285D01*
X131047619Y-50152380D01*
X131123809Y-50228571D01*
X131161904Y-50304761D01*
X131161904Y-50457142D01*
X130628571Y-49428571D02*
X131161904Y-49428571D01*
X130323809Y-49619047D02*
X130895238Y-49809523D01*
X130895238Y-49314285D01*
X128661904Y-51409523D02*
X127861904Y-51409523D01*
X127861904Y-51219047D01*
X127900000Y-51104761D01*
X127976190Y-51028571D01*
X128052380Y-50990476D01*
X128204761Y-50952380D01*
X128319047Y-50952380D01*
X128471428Y-50990476D01*
X128547619Y-51028571D01*
X128623809Y-51104761D01*
X128661904Y-51219047D01*
X128661904Y-51409523D01*
X128738095Y-50076190D02*
X128700000Y-50152380D01*
X128623809Y-50228571D01*
X128509523Y-50342857D01*
X128471428Y-50419047D01*
X128471428Y-50495238D01*
X128661904Y-50457142D02*
X128623809Y-50533333D01*
X128547619Y-50609523D01*
X128395238Y-50647619D01*
X128128571Y-50647619D01*
X127976190Y-50609523D01*
X127900000Y-50533333D01*
X127861904Y-50457142D01*
X127861904Y-50304761D01*
X127900000Y-50228571D01*
X127976190Y-50152380D01*
X128128571Y-50114285D01*
X128395238Y-50114285D01*
X128547619Y-50152380D01*
X128623809Y-50228571D01*
X128661904Y-50304761D01*
X128661904Y-50457142D01*
X127861904Y-49847619D02*
X127861904Y-49352380D01*
X128166666Y-49619047D01*
X128166666Y-49504761D01*
X128204761Y-49428571D01*
X128242857Y-49390476D01*
X128319047Y-49352380D01*
X128509523Y-49352380D01*
X128585714Y-49390476D01*
X128623809Y-49428571D01*
X128661904Y-49504761D01*
X128661904Y-49733333D01*
X128623809Y-49809523D01*
X128585714Y-49847619D01*
X126161904Y-51409523D02*
X125361904Y-51409523D01*
X125361904Y-51219047D01*
X125400000Y-51104761D01*
X125476190Y-51028571D01*
X125552380Y-50990476D01*
X125704761Y-50952380D01*
X125819047Y-50952380D01*
X125971428Y-50990476D01*
X126047619Y-51028571D01*
X126123809Y-51104761D01*
X126161904Y-51219047D01*
X126161904Y-51409523D01*
X126238095Y-50076190D02*
X126200000Y-50152380D01*
X126123809Y-50228571D01*
X126009523Y-50342857D01*
X125971428Y-50419047D01*
X125971428Y-50495238D01*
X126161904Y-50457142D02*
X126123809Y-50533333D01*
X126047619Y-50609523D01*
X125895238Y-50647619D01*
X125628571Y-50647619D01*
X125476190Y-50609523D01*
X125400000Y-50533333D01*
X125361904Y-50457142D01*
X125361904Y-50304761D01*
X125400000Y-50228571D01*
X125476190Y-50152380D01*
X125628571Y-50114285D01*
X125895238Y-50114285D01*
X126047619Y-50152380D01*
X126123809Y-50228571D01*
X126161904Y-50304761D01*
X126161904Y-50457142D01*
X125438095Y-49809523D02*
X125400000Y-49771428D01*
X125361904Y-49695238D01*
X125361904Y-49504761D01*
X125400000Y-49428571D01*
X125438095Y-49390476D01*
X125514285Y-49352380D01*
X125590476Y-49352380D01*
X125704761Y-49390476D01*
X126161904Y-49847619D01*
X126161904Y-49352380D01*
X123661904Y-51409523D02*
X122861904Y-51409523D01*
X122861904Y-51219047D01*
X122900000Y-51104761D01*
X122976190Y-51028571D01*
X123052380Y-50990476D01*
X123204761Y-50952380D01*
X123319047Y-50952380D01*
X123471428Y-50990476D01*
X123547619Y-51028571D01*
X123623809Y-51104761D01*
X123661904Y-51219047D01*
X123661904Y-51409523D01*
X123738095Y-50076190D02*
X123700000Y-50152380D01*
X123623809Y-50228571D01*
X123509523Y-50342857D01*
X123471428Y-50419047D01*
X123471428Y-50495238D01*
X123661904Y-50457142D02*
X123623809Y-50533333D01*
X123547619Y-50609523D01*
X123395238Y-50647619D01*
X123128571Y-50647619D01*
X122976190Y-50609523D01*
X122900000Y-50533333D01*
X122861904Y-50457142D01*
X122861904Y-50304761D01*
X122900000Y-50228571D01*
X122976190Y-50152380D01*
X123128571Y-50114285D01*
X123395238Y-50114285D01*
X123547619Y-50152380D01*
X123623809Y-50228571D01*
X123661904Y-50304761D01*
X123661904Y-50457142D01*
X123661904Y-49352380D02*
X123661904Y-49809523D01*
X123661904Y-49580952D02*
X122861904Y-49580952D01*
X122976190Y-49657142D01*
X123052380Y-49733333D01*
X123090476Y-49809523D01*
X121061904Y-51309523D02*
X120261904Y-51309523D01*
X120261904Y-51119047D01*
X120300000Y-51004761D01*
X120376190Y-50928571D01*
X120452380Y-50890476D01*
X120604761Y-50852380D01*
X120719047Y-50852380D01*
X120871428Y-50890476D01*
X120947619Y-50928571D01*
X121023809Y-51004761D01*
X121061904Y-51119047D01*
X121061904Y-51309523D01*
X121138095Y-49976190D02*
X121100000Y-50052380D01*
X121023809Y-50128571D01*
X120909523Y-50242857D01*
X120871428Y-50319047D01*
X120871428Y-50395238D01*
X121061904Y-50357142D02*
X121023809Y-50433333D01*
X120947619Y-50509523D01*
X120795238Y-50547619D01*
X120528571Y-50547619D01*
X120376190Y-50509523D01*
X120300000Y-50433333D01*
X120261904Y-50357142D01*
X120261904Y-50204761D01*
X120300000Y-50128571D01*
X120376190Y-50052380D01*
X120528571Y-50014285D01*
X120795238Y-50014285D01*
X120947619Y-50052380D01*
X121023809Y-50128571D01*
X121061904Y-50204761D01*
X121061904Y-50357142D01*
X120261904Y-49519047D02*
X120261904Y-49442857D01*
X120300000Y-49366666D01*
X120338095Y-49328571D01*
X120414285Y-49290476D01*
X120566666Y-49252380D01*
X120757142Y-49252380D01*
X120909523Y-49290476D01*
X120985714Y-49328571D01*
X121023809Y-49366666D01*
X121061904Y-49442857D01*
X121061904Y-49519047D01*
X121023809Y-49595238D01*
X120985714Y-49633333D01*
X120909523Y-49671428D01*
X120757142Y-49709523D01*
X120566666Y-49709523D01*
X120414285Y-49671428D01*
X120338095Y-49633333D01*
X120300000Y-49595238D01*
X120261904Y-49519047D01*
X117661904Y-51466666D02*
X118461904Y-51200000D01*
X117661904Y-50933333D01*
X118461904Y-50666666D02*
X117661904Y-50666666D01*
X117661904Y-50476190D01*
X117700000Y-50361904D01*
X117776190Y-50285714D01*
X117852380Y-50247619D01*
X118004761Y-50209523D01*
X118119047Y-50209523D01*
X118271428Y-50247619D01*
X118347619Y-50285714D01*
X118423809Y-50361904D01*
X118461904Y-50476190D01*
X118461904Y-50666666D01*
X118461904Y-49866666D02*
X117661904Y-49866666D01*
X117661904Y-49676190D01*
X117700000Y-49561904D01*
X117776190Y-49485714D01*
X117852380Y-49447619D01*
X118004761Y-49409523D01*
X118119047Y-49409523D01*
X118271428Y-49447619D01*
X118347619Y-49485714D01*
X118423809Y-49561904D01*
X118461904Y-49676190D01*
X118461904Y-49866666D01*
X118058571Y-41185714D02*
X118230000Y-41242857D01*
X118515714Y-41242857D01*
X118630000Y-41185714D01*
X118687142Y-41128571D01*
X118744285Y-41014285D01*
X118744285Y-40900000D01*
X118687142Y-40785714D01*
X118630000Y-40728571D01*
X118515714Y-40671428D01*
X118287142Y-40614285D01*
X118172857Y-40557142D01*
X118115714Y-40500000D01*
X118058571Y-40385714D01*
X118058571Y-40271428D01*
X118115714Y-40157142D01*
X118172857Y-40100000D01*
X118287142Y-40042857D01*
X118572857Y-40042857D01*
X118744285Y-40100000D01*
X119258571Y-41242857D02*
X119258571Y-40042857D01*
X119544285Y-40042857D01*
X119715714Y-40100000D01*
X119830000Y-40214285D01*
X119887142Y-40328571D01*
X119944285Y-40557142D01*
X119944285Y-40728571D01*
X119887142Y-40957142D01*
X119830000Y-41071428D01*
X119715714Y-41185714D01*
X119544285Y-41242857D01*
X119258571Y-41242857D01*
X121144285Y-41242857D02*
X120744285Y-40671428D01*
X120458571Y-41242857D02*
X120458571Y-40042857D01*
X120915714Y-40042857D01*
X121030000Y-40100000D01*
X121087142Y-40157142D01*
X121144285Y-40271428D01*
X121144285Y-40442857D01*
X121087142Y-40557142D01*
X121030000Y-40614285D01*
X120915714Y-40671428D01*
X120458571Y-40671428D01*
X121601428Y-40900000D02*
X122172857Y-40900000D01*
X121487142Y-41242857D02*
X121887142Y-40042857D01*
X122287142Y-41242857D01*
X122687142Y-41242857D02*
X122687142Y-40042857D01*
X123087142Y-40900000D01*
X123487142Y-40042857D01*
X123487142Y-41242857D01*
X124972857Y-40614285D02*
X125372857Y-40614285D01*
X125544285Y-41242857D02*
X124972857Y-41242857D01*
X124972857Y-40042857D01*
X125544285Y-40042857D01*
X125944285Y-41242857D02*
X126572857Y-40442857D01*
X125944285Y-40442857D02*
X126572857Y-41242857D01*
X127430000Y-40614285D02*
X127601428Y-40671428D01*
X127658571Y-40728571D01*
X127715714Y-40842857D01*
X127715714Y-41014285D01*
X127658571Y-41128571D01*
X127601428Y-41185714D01*
X127487142Y-41242857D01*
X127030000Y-41242857D01*
X127030000Y-40042857D01*
X127430000Y-40042857D01*
X127544285Y-40100000D01*
X127601428Y-40157142D01*
X127658571Y-40271428D01*
X127658571Y-40385714D01*
X127601428Y-40500000D01*
X127544285Y-40557142D01*
X127430000Y-40614285D01*
X127030000Y-40614285D01*
X128401428Y-41242857D02*
X128287142Y-41185714D01*
X128230000Y-41128571D01*
X128172857Y-41014285D01*
X128172857Y-40671428D01*
X128230000Y-40557142D01*
X128287142Y-40500000D01*
X128401428Y-40442857D01*
X128572857Y-40442857D01*
X128687142Y-40500000D01*
X128744285Y-40557142D01*
X128801428Y-40671428D01*
X128801428Y-41014285D01*
X128744285Y-41128571D01*
X128687142Y-41185714D01*
X128572857Y-41242857D01*
X128401428Y-41242857D01*
X129830000Y-41242857D02*
X129830000Y-40614285D01*
X129772857Y-40500000D01*
X129658571Y-40442857D01*
X129430000Y-40442857D01*
X129315714Y-40500000D01*
X129830000Y-41185714D02*
X129715714Y-41242857D01*
X129430000Y-41242857D01*
X129315714Y-41185714D01*
X129258571Y-41071428D01*
X129258571Y-40957142D01*
X129315714Y-40842857D01*
X129430000Y-40785714D01*
X129715714Y-40785714D01*
X129830000Y-40728571D01*
X130401428Y-41242857D02*
X130401428Y-40442857D01*
X130401428Y-40671428D02*
X130458571Y-40557142D01*
X130515714Y-40500000D01*
X130630000Y-40442857D01*
X130744285Y-40442857D01*
X131658571Y-41242857D02*
X131658571Y-40042857D01*
X131658571Y-41185714D02*
X131544285Y-41242857D01*
X131315714Y-41242857D01*
X131201428Y-41185714D01*
X131144285Y-41128571D01*
X131087142Y-41014285D01*
X131087142Y-40671428D01*
X131144285Y-40557142D01*
X131201428Y-40500000D01*
X131315714Y-40442857D01*
X131544285Y-40442857D01*
X131658571Y-40500000D01*
X118801428Y-43128571D02*
X118744285Y-43185714D01*
X118572857Y-43242857D01*
X118458571Y-43242857D01*
X118287142Y-43185714D01*
X118172857Y-43071428D01*
X118115714Y-42957142D01*
X118058571Y-42728571D01*
X118058571Y-42557142D01*
X118115714Y-42328571D01*
X118172857Y-42214285D01*
X118287142Y-42100000D01*
X118458571Y-42042857D01*
X118572857Y-42042857D01*
X118744285Y-42100000D01*
X118801428Y-42157142D01*
X119315714Y-43242857D02*
X119315714Y-42442857D01*
X119315714Y-42671428D02*
X119372857Y-42557142D01*
X119430000Y-42500000D01*
X119544285Y-42442857D01*
X119658571Y-42442857D01*
X120515714Y-43185714D02*
X120401428Y-43242857D01*
X120172857Y-43242857D01*
X120058571Y-43185714D01*
X120001428Y-43071428D01*
X120001428Y-42614285D01*
X120058571Y-42500000D01*
X120172857Y-42442857D01*
X120401428Y-42442857D01*
X120515714Y-42500000D01*
X120572857Y-42614285D01*
X120572857Y-42728571D01*
X120001428Y-42842857D01*
X121030000Y-43185714D02*
X121144285Y-43242857D01*
X121372857Y-43242857D01*
X121487142Y-43185714D01*
X121544285Y-43071428D01*
X121544285Y-43014285D01*
X121487142Y-42900000D01*
X121372857Y-42842857D01*
X121201428Y-42842857D01*
X121087142Y-42785714D01*
X121030000Y-42671428D01*
X121030000Y-42614285D01*
X121087142Y-42500000D01*
X121201428Y-42442857D01*
X121372857Y-42442857D01*
X121487142Y-42500000D01*
X122572857Y-43185714D02*
X122458571Y-43242857D01*
X122230000Y-43242857D01*
X122115714Y-43185714D01*
X122058571Y-43128571D01*
X122001428Y-43014285D01*
X122001428Y-42671428D01*
X122058571Y-42557142D01*
X122115714Y-42500000D01*
X122230000Y-42442857D01*
X122458571Y-42442857D01*
X122572857Y-42500000D01*
X123544285Y-43185714D02*
X123430000Y-43242857D01*
X123201428Y-43242857D01*
X123087142Y-43185714D01*
X123030000Y-43071428D01*
X123030000Y-42614285D01*
X123087142Y-42500000D01*
X123201428Y-42442857D01*
X123430000Y-42442857D01*
X123544285Y-42500000D01*
X123601428Y-42614285D01*
X123601428Y-42728571D01*
X123030000Y-42842857D01*
X124115714Y-42442857D02*
X124115714Y-43242857D01*
X124115714Y-42557142D02*
X124172857Y-42500000D01*
X124287142Y-42442857D01*
X124458571Y-42442857D01*
X124572857Y-42500000D01*
X124630000Y-42614285D01*
X124630000Y-43242857D01*
X125030000Y-42442857D02*
X125487142Y-42442857D01*
X125201428Y-42042857D02*
X125201428Y-43071428D01*
X125258571Y-43185714D01*
X125372857Y-43242857D01*
X125487142Y-43242857D01*
X118744285Y-45242857D02*
X118058571Y-45242857D01*
X118401428Y-45242857D02*
X118401428Y-44042857D01*
X118287142Y-44214285D01*
X118172857Y-44328571D01*
X118058571Y-44385714D01*
X119315714Y-45242857D02*
X119544285Y-45242857D01*
X119658571Y-45185714D01*
X119715714Y-45128571D01*
X119830000Y-44957142D01*
X119887142Y-44728571D01*
X119887142Y-44271428D01*
X119830000Y-44157142D01*
X119772857Y-44100000D01*
X119658571Y-44042857D01*
X119430000Y-44042857D01*
X119315714Y-44100000D01*
X119258571Y-44157142D01*
X119201428Y-44271428D01*
X119201428Y-44557142D01*
X119258571Y-44671428D01*
X119315714Y-44728571D01*
X119430000Y-44785714D01*
X119658571Y-44785714D01*
X119772857Y-44728571D01*
X119830000Y-44671428D01*
X119887142Y-44557142D01*
X120630000Y-44042857D02*
X120744285Y-44042857D01*
X120858571Y-44100000D01*
X120915714Y-44157142D01*
X120972857Y-44271428D01*
X121030000Y-44500000D01*
X121030000Y-44785714D01*
X120972857Y-45014285D01*
X120915714Y-45128571D01*
X120858571Y-45185714D01*
X120744285Y-45242857D01*
X120630000Y-45242857D01*
X120515714Y-45185714D01*
X120458571Y-45128571D01*
X120401428Y-45014285D01*
X120344285Y-44785714D01*
X120344285Y-44500000D01*
X120401428Y-44271428D01*
X120458571Y-44157142D01*
X120515714Y-44100000D01*
X120630000Y-44042857D01*
X122172857Y-45242857D02*
X121487142Y-45242857D01*
X121830000Y-45242857D02*
X121830000Y-44042857D01*
X121715714Y-44214285D01*
X121601428Y-44328571D01*
X121487142Y-44385714D01*
X123487142Y-44442857D02*
X123772857Y-45242857D01*
X124058571Y-44442857D01*
X125144285Y-45242857D02*
X124458571Y-45242857D01*
X124801428Y-45242857D02*
X124801428Y-44042857D01*
X124687142Y-44214285D01*
X124572857Y-44328571D01*
X124458571Y-44385714D01*
X125658571Y-45128571D02*
X125715714Y-45185714D01*
X125658571Y-45242857D01*
X125601428Y-45185714D01*
X125658571Y-45128571D01*
X125658571Y-45242857D01*
X126858571Y-45242857D02*
X126172857Y-45242857D01*
X126515714Y-45242857D02*
X126515714Y-44042857D01*
X126401428Y-44214285D01*
X126287142Y-44328571D01*
X126172857Y-44385714D01*
D12*
G04 #@! TO.C,J1*
X163576000Y-53594000D02*
X164084000Y-53594000D01*
X164084000Y-53594000D02*
X164084000Y-53086000D01*
X163576000Y-53086000D02*
X164084000Y-53086000D01*
X163576000Y-53594000D02*
X163576000Y-53086000D01*
X161036000Y-53594000D02*
X161544000Y-53594000D01*
X161544000Y-53594000D02*
X161544000Y-53086000D01*
X161036000Y-53086000D02*
X161544000Y-53086000D01*
X161036000Y-53594000D02*
X161036000Y-53086000D01*
X158496000Y-53594000D02*
X159004000Y-53594000D01*
X159004000Y-53594000D02*
X159004000Y-53086000D01*
X158496000Y-53086000D02*
X159004000Y-53086000D01*
X158496000Y-53594000D02*
X158496000Y-53086000D01*
X155956000Y-53594000D02*
X156464000Y-53594000D01*
X156464000Y-53594000D02*
X156464000Y-53086000D01*
X155956000Y-53086000D02*
X156464000Y-53086000D01*
X155956000Y-53594000D02*
X155956000Y-53086000D01*
X153416000Y-53594000D02*
X153924000Y-53594000D01*
X153924000Y-53594000D02*
X153924000Y-53086000D01*
X153416000Y-53086000D02*
X153924000Y-53086000D01*
X153416000Y-53594000D02*
X153416000Y-53086000D01*
X150876000Y-53594000D02*
X151384000Y-53594000D01*
X151384000Y-53594000D02*
X151384000Y-53086000D01*
X150876000Y-53086000D02*
X151384000Y-53086000D01*
X150876000Y-53594000D02*
X150876000Y-53086000D01*
X148336000Y-53594000D02*
X148844000Y-53594000D01*
X148844000Y-53594000D02*
X148844000Y-53086000D01*
X148336000Y-53086000D02*
X148844000Y-53086000D01*
X148336000Y-53594000D02*
X148336000Y-53086000D01*
X145796000Y-53594000D02*
X146304000Y-53594000D01*
X146304000Y-53594000D02*
X146304000Y-53086000D01*
X145796000Y-53086000D02*
X146304000Y-53086000D01*
X145796000Y-53594000D02*
X145796000Y-53086000D01*
X143256000Y-53594000D02*
X143764000Y-53594000D01*
X143764000Y-53594000D02*
X143764000Y-53086000D01*
X143256000Y-53086000D02*
X143764000Y-53086000D01*
X143256000Y-53594000D02*
X143256000Y-53086000D01*
X140716000Y-53594000D02*
X141224000Y-53594000D01*
X141224000Y-53594000D02*
X141224000Y-53086000D01*
X140716000Y-53086000D02*
X141224000Y-53086000D01*
X140716000Y-53594000D02*
X140716000Y-53086000D01*
X138176000Y-53594000D02*
X138684000Y-53594000D01*
X138684000Y-53594000D02*
X138684000Y-53086000D01*
X138176000Y-53086000D02*
X138684000Y-53086000D01*
X138176000Y-53594000D02*
X138176000Y-53086000D01*
X135636000Y-53594000D02*
X136144000Y-53594000D01*
X136144000Y-53594000D02*
X136144000Y-53086000D01*
X135636000Y-53086000D02*
X136144000Y-53086000D01*
X135636000Y-53594000D02*
X135636000Y-53086000D01*
X133096000Y-53594000D02*
X133604000Y-53594000D01*
X133604000Y-53594000D02*
X133604000Y-53086000D01*
X133096000Y-53086000D02*
X133604000Y-53086000D01*
X133096000Y-53594000D02*
X133096000Y-53086000D01*
X130556000Y-53594000D02*
X131064000Y-53594000D01*
X131064000Y-53594000D02*
X131064000Y-53086000D01*
X130556000Y-53086000D02*
X131064000Y-53086000D01*
X130556000Y-53594000D02*
X130556000Y-53086000D01*
X128016000Y-53594000D02*
X128524000Y-53594000D01*
X128524000Y-53594000D02*
X128524000Y-53086000D01*
X128016000Y-53086000D02*
X128524000Y-53086000D01*
X128016000Y-53594000D02*
X128016000Y-53086000D01*
X125476000Y-53594000D02*
X125984000Y-53594000D01*
X125984000Y-53594000D02*
X125984000Y-53086000D01*
X125476000Y-53086000D02*
X125984000Y-53086000D01*
X125476000Y-53594000D02*
X125476000Y-53086000D01*
X122936000Y-53594000D02*
X123444000Y-53594000D01*
X123444000Y-53594000D02*
X123444000Y-53086000D01*
X122936000Y-53086000D02*
X123444000Y-53086000D01*
X122936000Y-53594000D02*
X122936000Y-53086000D01*
X120396000Y-53594000D02*
X120904000Y-53594000D01*
X120904000Y-53594000D02*
X120904000Y-53086000D01*
X120396000Y-53086000D02*
X120904000Y-53086000D01*
X120396000Y-53594000D02*
X120396000Y-53086000D01*
X117856000Y-53594000D02*
X118364000Y-53594000D01*
X118364000Y-53594000D02*
X118364000Y-53086000D01*
X117856000Y-53086000D02*
X118364000Y-53086000D01*
X117856000Y-53594000D02*
X117856000Y-53086000D01*
X166116000Y-53594000D02*
X166624000Y-53594000D01*
X166624000Y-53594000D02*
X166624000Y-53086000D01*
X166116000Y-53086000D02*
X166624000Y-53086000D01*
X166116000Y-53594000D02*
X166116000Y-53086000D01*
X168656000Y-53594000D02*
X169164000Y-53594000D01*
X169164000Y-53594000D02*
X169164000Y-53086000D01*
X168656000Y-53086000D02*
X169164000Y-53086000D01*
X168656000Y-53594000D02*
X168656000Y-53086000D01*
D13*
X163195000Y-52070000D02*
X164465000Y-52070000D01*
X164465000Y-52070000D02*
X165100000Y-52705000D01*
X165100000Y-52705000D02*
X165100000Y-53975000D01*
X165100000Y-53975000D02*
X164465000Y-54610000D01*
X160020000Y-52705000D02*
X160655000Y-52070000D01*
X160655000Y-52070000D02*
X161925000Y-52070000D01*
X161925000Y-52070000D02*
X162560000Y-52705000D01*
X162560000Y-52705000D02*
X162560000Y-53975000D01*
X162560000Y-53975000D02*
X161925000Y-54610000D01*
X161925000Y-54610000D02*
X160655000Y-54610000D01*
X160655000Y-54610000D02*
X160020000Y-53975000D01*
X163195000Y-52070000D02*
X162560000Y-52705000D01*
X162560000Y-53975000D02*
X163195000Y-54610000D01*
X164465000Y-54610000D02*
X163195000Y-54610000D01*
X155575000Y-52070000D02*
X156845000Y-52070000D01*
X156845000Y-52070000D02*
X157480000Y-52705000D01*
X157480000Y-52705000D02*
X157480000Y-53975000D01*
X157480000Y-53975000D02*
X156845000Y-54610000D01*
X157480000Y-52705000D02*
X158115000Y-52070000D01*
X158115000Y-52070000D02*
X159385000Y-52070000D01*
X159385000Y-52070000D02*
X160020000Y-52705000D01*
X160020000Y-52705000D02*
X160020000Y-53975000D01*
X160020000Y-53975000D02*
X159385000Y-54610000D01*
X159385000Y-54610000D02*
X158115000Y-54610000D01*
X158115000Y-54610000D02*
X157480000Y-53975000D01*
X152400000Y-52705000D02*
X153035000Y-52070000D01*
X153035000Y-52070000D02*
X154305000Y-52070000D01*
X154305000Y-52070000D02*
X154940000Y-52705000D01*
X154940000Y-52705000D02*
X154940000Y-53975000D01*
X154940000Y-53975000D02*
X154305000Y-54610000D01*
X154305000Y-54610000D02*
X153035000Y-54610000D01*
X153035000Y-54610000D02*
X152400000Y-53975000D01*
X155575000Y-52070000D02*
X154940000Y-52705000D01*
X154940000Y-53975000D02*
X155575000Y-54610000D01*
X156845000Y-54610000D02*
X155575000Y-54610000D01*
X147955000Y-52070000D02*
X149225000Y-52070000D01*
X149225000Y-52070000D02*
X149860000Y-52705000D01*
X149860000Y-52705000D02*
X149860000Y-53975000D01*
X149860000Y-53975000D02*
X149225000Y-54610000D01*
X149860000Y-52705000D02*
X150495000Y-52070000D01*
X150495000Y-52070000D02*
X151765000Y-52070000D01*
X151765000Y-52070000D02*
X152400000Y-52705000D01*
X152400000Y-52705000D02*
X152400000Y-53975000D01*
X152400000Y-53975000D02*
X151765000Y-54610000D01*
X151765000Y-54610000D02*
X150495000Y-54610000D01*
X150495000Y-54610000D02*
X149860000Y-53975000D01*
X144780000Y-52705000D02*
X145415000Y-52070000D01*
X145415000Y-52070000D02*
X146685000Y-52070000D01*
X146685000Y-52070000D02*
X147320000Y-52705000D01*
X147320000Y-52705000D02*
X147320000Y-53975000D01*
X147320000Y-53975000D02*
X146685000Y-54610000D01*
X146685000Y-54610000D02*
X145415000Y-54610000D01*
X145415000Y-54610000D02*
X144780000Y-53975000D01*
X147955000Y-52070000D02*
X147320000Y-52705000D01*
X147320000Y-53975000D02*
X147955000Y-54610000D01*
X149225000Y-54610000D02*
X147955000Y-54610000D01*
X140335000Y-52070000D02*
X141605000Y-52070000D01*
X141605000Y-52070000D02*
X142240000Y-52705000D01*
X142240000Y-52705000D02*
X142240000Y-53975000D01*
X142240000Y-53975000D02*
X141605000Y-54610000D01*
X142240000Y-52705000D02*
X142875000Y-52070000D01*
X142875000Y-52070000D02*
X144145000Y-52070000D01*
X144145000Y-52070000D02*
X144780000Y-52705000D01*
X144780000Y-52705000D02*
X144780000Y-53975000D01*
X144780000Y-53975000D02*
X144145000Y-54610000D01*
X144145000Y-54610000D02*
X142875000Y-54610000D01*
X142875000Y-54610000D02*
X142240000Y-53975000D01*
X137160000Y-52705000D02*
X137795000Y-52070000D01*
X137795000Y-52070000D02*
X139065000Y-52070000D01*
X139065000Y-52070000D02*
X139700000Y-52705000D01*
X139700000Y-52705000D02*
X139700000Y-53975000D01*
X139700000Y-53975000D02*
X139065000Y-54610000D01*
X139065000Y-54610000D02*
X137795000Y-54610000D01*
X137795000Y-54610000D02*
X137160000Y-53975000D01*
X140335000Y-52070000D02*
X139700000Y-52705000D01*
X139700000Y-53975000D02*
X140335000Y-54610000D01*
X141605000Y-54610000D02*
X140335000Y-54610000D01*
X132715000Y-52070000D02*
X133985000Y-52070000D01*
X133985000Y-52070000D02*
X134620000Y-52705000D01*
X134620000Y-52705000D02*
X134620000Y-53975000D01*
X134620000Y-53975000D02*
X133985000Y-54610000D01*
X134620000Y-52705000D02*
X135255000Y-52070000D01*
X135255000Y-52070000D02*
X136525000Y-52070000D01*
X136525000Y-52070000D02*
X137160000Y-52705000D01*
X137160000Y-52705000D02*
X137160000Y-53975000D01*
X137160000Y-53975000D02*
X136525000Y-54610000D01*
X136525000Y-54610000D02*
X135255000Y-54610000D01*
X135255000Y-54610000D02*
X134620000Y-53975000D01*
X129540000Y-52705000D02*
X130175000Y-52070000D01*
X130175000Y-52070000D02*
X131445000Y-52070000D01*
X131445000Y-52070000D02*
X132080000Y-52705000D01*
X132080000Y-52705000D02*
X132080000Y-53975000D01*
X132080000Y-53975000D02*
X131445000Y-54610000D01*
X131445000Y-54610000D02*
X130175000Y-54610000D01*
X130175000Y-54610000D02*
X129540000Y-53975000D01*
X132715000Y-52070000D02*
X132080000Y-52705000D01*
X132080000Y-53975000D02*
X132715000Y-54610000D01*
X133985000Y-54610000D02*
X132715000Y-54610000D01*
X125095000Y-52070000D02*
X126365000Y-52070000D01*
X126365000Y-52070000D02*
X127000000Y-52705000D01*
X127000000Y-52705000D02*
X127000000Y-53975000D01*
X127000000Y-53975000D02*
X126365000Y-54610000D01*
X127000000Y-52705000D02*
X127635000Y-52070000D01*
X127635000Y-52070000D02*
X128905000Y-52070000D01*
X128905000Y-52070000D02*
X129540000Y-52705000D01*
X129540000Y-52705000D02*
X129540000Y-53975000D01*
X129540000Y-53975000D02*
X128905000Y-54610000D01*
X128905000Y-54610000D02*
X127635000Y-54610000D01*
X127635000Y-54610000D02*
X127000000Y-53975000D01*
X121920000Y-52705000D02*
X122555000Y-52070000D01*
X122555000Y-52070000D02*
X123825000Y-52070000D01*
X123825000Y-52070000D02*
X124460000Y-52705000D01*
X124460000Y-52705000D02*
X124460000Y-53975000D01*
X124460000Y-53975000D02*
X123825000Y-54610000D01*
X123825000Y-54610000D02*
X122555000Y-54610000D01*
X122555000Y-54610000D02*
X121920000Y-53975000D01*
X125095000Y-52070000D02*
X124460000Y-52705000D01*
X124460000Y-53975000D02*
X125095000Y-54610000D01*
X126365000Y-54610000D02*
X125095000Y-54610000D01*
X117475000Y-52070000D02*
X118745000Y-52070000D01*
X118745000Y-52070000D02*
X119380000Y-52705000D01*
X119380000Y-52705000D02*
X119380000Y-53975000D01*
X119380000Y-53975000D02*
X118745000Y-54610000D01*
X119380000Y-52705000D02*
X120015000Y-52070000D01*
X120015000Y-52070000D02*
X121285000Y-52070000D01*
X121285000Y-52070000D02*
X121920000Y-52705000D01*
X121920000Y-52705000D02*
X121920000Y-53975000D01*
X121920000Y-53975000D02*
X121285000Y-54610000D01*
X121285000Y-54610000D02*
X120015000Y-54610000D01*
X120015000Y-54610000D02*
X119380000Y-53975000D01*
X116840000Y-52705000D02*
X116840000Y-53975000D01*
X117475000Y-52070000D02*
X116840000Y-52705000D01*
X116840000Y-53975000D02*
X117475000Y-54610000D01*
X118745000Y-54610000D02*
X117475000Y-54610000D01*
X165735000Y-52070000D02*
X167005000Y-52070000D01*
X167005000Y-52070000D02*
X167640000Y-52705000D01*
X167640000Y-53975000D02*
X167005000Y-54610000D01*
X165735000Y-52070000D02*
X165100000Y-52705000D01*
X165100000Y-53975000D02*
X165735000Y-54610000D01*
X167005000Y-54610000D02*
X165735000Y-54610000D01*
X168275000Y-52070000D02*
X169545000Y-52070000D01*
X169545000Y-52070000D02*
X170180000Y-52705000D01*
X170180000Y-52705000D02*
X170180000Y-53975000D01*
X170180000Y-53975000D02*
X169545000Y-54610000D01*
X167640000Y-52705000D02*
X167640000Y-53975000D01*
X168275000Y-52070000D02*
X167640000Y-52705000D01*
X167640000Y-53975000D02*
X168275000Y-54610000D01*
X169545000Y-54610000D02*
X168275000Y-54610000D01*
G04 #@! TO.C,J2*
X117475000Y-29210000D02*
X118745000Y-29210000D01*
X119380000Y-29845000D02*
X118745000Y-29210000D01*
X118745000Y-31750000D02*
X119380000Y-31115000D01*
X119380000Y-31115000D02*
X119380000Y-29845000D01*
X116840000Y-29845000D02*
X117475000Y-29210000D01*
X116840000Y-31115000D02*
X116840000Y-29845000D01*
X117475000Y-31750000D02*
X116840000Y-31115000D01*
X118745000Y-31750000D02*
X117475000Y-31750000D01*
X120015000Y-29210000D02*
X121285000Y-29210000D01*
X121920000Y-29845000D02*
X121285000Y-29210000D01*
X121285000Y-31750000D02*
X121920000Y-31115000D01*
X119380000Y-29845000D02*
X120015000Y-29210000D01*
X120015000Y-31750000D02*
X119380000Y-31115000D01*
X121285000Y-31750000D02*
X120015000Y-31750000D01*
X168275000Y-29210000D02*
X169545000Y-29210000D01*
X170180000Y-29845000D02*
X169545000Y-29210000D01*
X169545000Y-31750000D02*
X170180000Y-31115000D01*
X170180000Y-31115000D02*
X170180000Y-29845000D01*
X167005000Y-29210000D02*
X167640000Y-29845000D01*
X165735000Y-29210000D02*
X167005000Y-29210000D01*
X165100000Y-29845000D02*
X165735000Y-29210000D01*
X165100000Y-31115000D02*
X165100000Y-29845000D01*
X165735000Y-31750000D02*
X165100000Y-31115000D01*
X167005000Y-31750000D02*
X165735000Y-31750000D01*
X167640000Y-31115000D02*
X167005000Y-31750000D01*
X167640000Y-29845000D02*
X168275000Y-29210000D01*
X167640000Y-31115000D02*
X167640000Y-29845000D01*
X168275000Y-31750000D02*
X167640000Y-31115000D01*
X169545000Y-31750000D02*
X168275000Y-31750000D01*
X160655000Y-29210000D02*
X161925000Y-29210000D01*
X162560000Y-29845000D02*
X161925000Y-29210000D01*
X161925000Y-31750000D02*
X162560000Y-31115000D01*
X164465000Y-29210000D02*
X165100000Y-29845000D01*
X163195000Y-29210000D02*
X164465000Y-29210000D01*
X162560000Y-29845000D02*
X163195000Y-29210000D01*
X162560000Y-31115000D02*
X162560000Y-29845000D01*
X163195000Y-31750000D02*
X162560000Y-31115000D01*
X164465000Y-31750000D02*
X163195000Y-31750000D01*
X165100000Y-31115000D02*
X164465000Y-31750000D01*
X159385000Y-29210000D02*
X160020000Y-29845000D01*
X158115000Y-29210000D02*
X159385000Y-29210000D01*
X157480000Y-29845000D02*
X158115000Y-29210000D01*
X157480000Y-31115000D02*
X157480000Y-29845000D01*
X158115000Y-31750000D02*
X157480000Y-31115000D01*
X159385000Y-31750000D02*
X158115000Y-31750000D01*
X160020000Y-31115000D02*
X159385000Y-31750000D01*
X160020000Y-29845000D02*
X160655000Y-29210000D01*
X160020000Y-31115000D02*
X160020000Y-29845000D01*
X160655000Y-31750000D02*
X160020000Y-31115000D01*
X161925000Y-31750000D02*
X160655000Y-31750000D01*
X153035000Y-29210000D02*
X154305000Y-29210000D01*
X154940000Y-29845000D02*
X154305000Y-29210000D01*
X154305000Y-31750000D02*
X154940000Y-31115000D01*
X156845000Y-29210000D02*
X157480000Y-29845000D01*
X155575000Y-29210000D02*
X156845000Y-29210000D01*
X154940000Y-29845000D02*
X155575000Y-29210000D01*
X154940000Y-31115000D02*
X154940000Y-29845000D01*
X155575000Y-31750000D02*
X154940000Y-31115000D01*
X156845000Y-31750000D02*
X155575000Y-31750000D01*
X157480000Y-31115000D02*
X156845000Y-31750000D01*
X151765000Y-29210000D02*
X152400000Y-29845000D01*
X150495000Y-29210000D02*
X151765000Y-29210000D01*
X149860000Y-29845000D02*
X150495000Y-29210000D01*
X149860000Y-31115000D02*
X149860000Y-29845000D01*
X150495000Y-31750000D02*
X149860000Y-31115000D01*
X151765000Y-31750000D02*
X150495000Y-31750000D01*
X152400000Y-31115000D02*
X151765000Y-31750000D01*
X152400000Y-29845000D02*
X153035000Y-29210000D01*
X152400000Y-31115000D02*
X152400000Y-29845000D01*
X153035000Y-31750000D02*
X152400000Y-31115000D01*
X154305000Y-31750000D02*
X153035000Y-31750000D01*
X145415000Y-29210000D02*
X146685000Y-29210000D01*
X147320000Y-29845000D02*
X146685000Y-29210000D01*
X146685000Y-31750000D02*
X147320000Y-31115000D01*
X149225000Y-29210000D02*
X149860000Y-29845000D01*
X147955000Y-29210000D02*
X149225000Y-29210000D01*
X147320000Y-29845000D02*
X147955000Y-29210000D01*
X147320000Y-31115000D02*
X147320000Y-29845000D01*
X147955000Y-31750000D02*
X147320000Y-31115000D01*
X149225000Y-31750000D02*
X147955000Y-31750000D01*
X149860000Y-31115000D02*
X149225000Y-31750000D01*
X144145000Y-29210000D02*
X144780000Y-29845000D01*
X142875000Y-29210000D02*
X144145000Y-29210000D01*
X142240000Y-29845000D02*
X142875000Y-29210000D01*
X142240000Y-31115000D02*
X142240000Y-29845000D01*
X142875000Y-31750000D02*
X142240000Y-31115000D01*
X144145000Y-31750000D02*
X142875000Y-31750000D01*
X144780000Y-31115000D02*
X144145000Y-31750000D01*
X144780000Y-29845000D02*
X145415000Y-29210000D01*
X144780000Y-31115000D02*
X144780000Y-29845000D01*
X145415000Y-31750000D02*
X144780000Y-31115000D01*
X146685000Y-31750000D02*
X145415000Y-31750000D01*
X137795000Y-29210000D02*
X139065000Y-29210000D01*
X139700000Y-29845000D02*
X139065000Y-29210000D01*
X139065000Y-31750000D02*
X139700000Y-31115000D01*
X141605000Y-29210000D02*
X142240000Y-29845000D01*
X140335000Y-29210000D02*
X141605000Y-29210000D01*
X139700000Y-29845000D02*
X140335000Y-29210000D01*
X139700000Y-31115000D02*
X139700000Y-29845000D01*
X140335000Y-31750000D02*
X139700000Y-31115000D01*
X141605000Y-31750000D02*
X140335000Y-31750000D01*
X142240000Y-31115000D02*
X141605000Y-31750000D01*
X136525000Y-29210000D02*
X137160000Y-29845000D01*
X135255000Y-29210000D02*
X136525000Y-29210000D01*
X134620000Y-29845000D02*
X135255000Y-29210000D01*
X134620000Y-31115000D02*
X134620000Y-29845000D01*
X135255000Y-31750000D02*
X134620000Y-31115000D01*
X136525000Y-31750000D02*
X135255000Y-31750000D01*
X137160000Y-31115000D02*
X136525000Y-31750000D01*
X137160000Y-29845000D02*
X137795000Y-29210000D01*
X137160000Y-31115000D02*
X137160000Y-29845000D01*
X137795000Y-31750000D02*
X137160000Y-31115000D01*
X139065000Y-31750000D02*
X137795000Y-31750000D01*
X130175000Y-29210000D02*
X131445000Y-29210000D01*
X132080000Y-29845000D02*
X131445000Y-29210000D01*
X131445000Y-31750000D02*
X132080000Y-31115000D01*
X133985000Y-29210000D02*
X134620000Y-29845000D01*
X132715000Y-29210000D02*
X133985000Y-29210000D01*
X132080000Y-29845000D02*
X132715000Y-29210000D01*
X132080000Y-31115000D02*
X132080000Y-29845000D01*
X132715000Y-31750000D02*
X132080000Y-31115000D01*
X133985000Y-31750000D02*
X132715000Y-31750000D01*
X134620000Y-31115000D02*
X133985000Y-31750000D01*
X128905000Y-29210000D02*
X129540000Y-29845000D01*
X127635000Y-29210000D02*
X128905000Y-29210000D01*
X127000000Y-29845000D02*
X127635000Y-29210000D01*
X127000000Y-31115000D02*
X127000000Y-29845000D01*
X127635000Y-31750000D02*
X127000000Y-31115000D01*
X128905000Y-31750000D02*
X127635000Y-31750000D01*
X129540000Y-31115000D02*
X128905000Y-31750000D01*
X129540000Y-29845000D02*
X130175000Y-29210000D01*
X129540000Y-31115000D02*
X129540000Y-29845000D01*
X130175000Y-31750000D02*
X129540000Y-31115000D01*
X131445000Y-31750000D02*
X130175000Y-31750000D01*
X122555000Y-29210000D02*
X123825000Y-29210000D01*
X124460000Y-29845000D02*
X123825000Y-29210000D01*
X123825000Y-31750000D02*
X124460000Y-31115000D01*
X126365000Y-29210000D02*
X127000000Y-29845000D01*
X125095000Y-29210000D02*
X126365000Y-29210000D01*
X124460000Y-29845000D02*
X125095000Y-29210000D01*
X124460000Y-31115000D02*
X124460000Y-29845000D01*
X125095000Y-31750000D02*
X124460000Y-31115000D01*
X126365000Y-31750000D02*
X125095000Y-31750000D01*
X127000000Y-31115000D02*
X126365000Y-31750000D01*
X121920000Y-29845000D02*
X122555000Y-29210000D01*
X121920000Y-31115000D02*
X121920000Y-29845000D01*
X122555000Y-31750000D02*
X121920000Y-31115000D01*
X123825000Y-31750000D02*
X122555000Y-31750000D01*
D12*
X118364000Y-30226000D02*
X118364000Y-30734000D01*
X118364000Y-30734000D02*
X117856000Y-30734000D01*
X117856000Y-30226000D02*
X117856000Y-30734000D01*
X118364000Y-30226000D02*
X117856000Y-30226000D01*
X120904000Y-30226000D02*
X120904000Y-30734000D01*
X120904000Y-30734000D02*
X120396000Y-30734000D01*
X120396000Y-30226000D02*
X120396000Y-30734000D01*
X120904000Y-30226000D02*
X120396000Y-30226000D01*
X169164000Y-30226000D02*
X169164000Y-30734000D01*
X169164000Y-30734000D02*
X168656000Y-30734000D01*
X168656000Y-30226000D02*
X168656000Y-30734000D01*
X169164000Y-30226000D02*
X168656000Y-30226000D01*
X166624000Y-30226000D02*
X166624000Y-30734000D01*
X166624000Y-30734000D02*
X166116000Y-30734000D01*
X166116000Y-30226000D02*
X166116000Y-30734000D01*
X166624000Y-30226000D02*
X166116000Y-30226000D01*
X164084000Y-30226000D02*
X164084000Y-30734000D01*
X164084000Y-30734000D02*
X163576000Y-30734000D01*
X163576000Y-30226000D02*
X163576000Y-30734000D01*
X164084000Y-30226000D02*
X163576000Y-30226000D01*
X161544000Y-30226000D02*
X161544000Y-30734000D01*
X161544000Y-30734000D02*
X161036000Y-30734000D01*
X161036000Y-30226000D02*
X161036000Y-30734000D01*
X161544000Y-30226000D02*
X161036000Y-30226000D01*
X159004000Y-30226000D02*
X159004000Y-30734000D01*
X159004000Y-30734000D02*
X158496000Y-30734000D01*
X158496000Y-30226000D02*
X158496000Y-30734000D01*
X159004000Y-30226000D02*
X158496000Y-30226000D01*
X156464000Y-30226000D02*
X156464000Y-30734000D01*
X156464000Y-30734000D02*
X155956000Y-30734000D01*
X155956000Y-30226000D02*
X155956000Y-30734000D01*
X156464000Y-30226000D02*
X155956000Y-30226000D01*
X153924000Y-30226000D02*
X153924000Y-30734000D01*
X153924000Y-30734000D02*
X153416000Y-30734000D01*
X153416000Y-30226000D02*
X153416000Y-30734000D01*
X153924000Y-30226000D02*
X153416000Y-30226000D01*
X151384000Y-30226000D02*
X151384000Y-30734000D01*
X151384000Y-30734000D02*
X150876000Y-30734000D01*
X150876000Y-30226000D02*
X150876000Y-30734000D01*
X151384000Y-30226000D02*
X150876000Y-30226000D01*
X148844000Y-30226000D02*
X148844000Y-30734000D01*
X148844000Y-30734000D02*
X148336000Y-30734000D01*
X148336000Y-30226000D02*
X148336000Y-30734000D01*
X148844000Y-30226000D02*
X148336000Y-30226000D01*
X146304000Y-30226000D02*
X146304000Y-30734000D01*
X146304000Y-30734000D02*
X145796000Y-30734000D01*
X145796000Y-30226000D02*
X145796000Y-30734000D01*
X146304000Y-30226000D02*
X145796000Y-30226000D01*
X143764000Y-30226000D02*
X143764000Y-30734000D01*
X143764000Y-30734000D02*
X143256000Y-30734000D01*
X143256000Y-30226000D02*
X143256000Y-30734000D01*
X143764000Y-30226000D02*
X143256000Y-30226000D01*
X141224000Y-30226000D02*
X141224000Y-30734000D01*
X141224000Y-30734000D02*
X140716000Y-30734000D01*
X140716000Y-30226000D02*
X140716000Y-30734000D01*
X141224000Y-30226000D02*
X140716000Y-30226000D01*
X138684000Y-30226000D02*
X138684000Y-30734000D01*
X138684000Y-30734000D02*
X138176000Y-30734000D01*
X138176000Y-30226000D02*
X138176000Y-30734000D01*
X138684000Y-30226000D02*
X138176000Y-30226000D01*
X136144000Y-30226000D02*
X136144000Y-30734000D01*
X136144000Y-30734000D02*
X135636000Y-30734000D01*
X135636000Y-30226000D02*
X135636000Y-30734000D01*
X136144000Y-30226000D02*
X135636000Y-30226000D01*
X133604000Y-30226000D02*
X133604000Y-30734000D01*
X133604000Y-30734000D02*
X133096000Y-30734000D01*
X133096000Y-30226000D02*
X133096000Y-30734000D01*
X133604000Y-30226000D02*
X133096000Y-30226000D01*
X131064000Y-30226000D02*
X131064000Y-30734000D01*
X131064000Y-30734000D02*
X130556000Y-30734000D01*
X130556000Y-30226000D02*
X130556000Y-30734000D01*
X131064000Y-30226000D02*
X130556000Y-30226000D01*
X128524000Y-30226000D02*
X128524000Y-30734000D01*
X128524000Y-30734000D02*
X128016000Y-30734000D01*
X128016000Y-30226000D02*
X128016000Y-30734000D01*
X128524000Y-30226000D02*
X128016000Y-30226000D01*
X125984000Y-30226000D02*
X125984000Y-30734000D01*
X125984000Y-30734000D02*
X125476000Y-30734000D01*
X125476000Y-30226000D02*
X125476000Y-30734000D01*
X125984000Y-30226000D02*
X125476000Y-30226000D01*
X123444000Y-30226000D02*
X123444000Y-30734000D01*
X123444000Y-30734000D02*
X122936000Y-30734000D01*
X122936000Y-30226000D02*
X122936000Y-30734000D01*
X123444000Y-30226000D02*
X122936000Y-30226000D01*
G04 #@! TO.C,C1*
X136528440Y-50698780D02*
X136876420Y-50698780D01*
X136876420Y-50698780D02*
X136876420Y-49901220D01*
X136528440Y-49901220D02*
X136876420Y-49901220D01*
X136528440Y-50698780D02*
X136528440Y-49901220D01*
X137775580Y-50698780D02*
X138123560Y-50698780D01*
X138123560Y-50698780D02*
X138123560Y-49901220D01*
X137775580Y-49901220D02*
X138123560Y-49901220D01*
X137775580Y-50698780D02*
X137775580Y-49901220D01*
X135926460Y-51097560D02*
X138725540Y-51097560D01*
X138725540Y-51097560D02*
X138725540Y-49502440D01*
X135926460Y-49502440D02*
X138725540Y-49502440D01*
X135926460Y-51097560D02*
X135926460Y-49502440D01*
D14*
X136602100Y-49952020D02*
X138049900Y-49952020D01*
X138049900Y-50647980D02*
X136602100Y-50647980D01*
G04 #@! TO.C,C2*
X132602340Y-50052020D02*
X134050140Y-50052020D01*
X134050140Y-50747980D02*
X132602340Y-50747980D01*
D12*
X134725780Y-49602440D02*
X134725780Y-51197560D01*
X134725780Y-51197560D02*
X131926700Y-51197560D01*
X131926700Y-49602440D02*
X131926700Y-51197560D01*
X134725780Y-49602440D02*
X131926700Y-49602440D01*
X132876660Y-50001220D02*
X132876660Y-50798780D01*
X132876660Y-50798780D02*
X132528680Y-50798780D01*
X132528680Y-50001220D02*
X132528680Y-50798780D01*
X132876660Y-50001220D02*
X132528680Y-50001220D01*
X134123800Y-50001220D02*
X134123800Y-50798780D01*
X134123800Y-50798780D02*
X133775820Y-50798780D01*
X133775820Y-50001220D02*
X133775820Y-50798780D01*
X134123800Y-50001220D02*
X133775820Y-50001220D01*
G04 #@! TO.C,C3*
X140828440Y-50698780D02*
X141176420Y-50698780D01*
X141176420Y-50698780D02*
X141176420Y-49901220D01*
X140828440Y-49901220D02*
X141176420Y-49901220D01*
X140828440Y-50698780D02*
X140828440Y-49901220D01*
X142075580Y-50698780D02*
X142423560Y-50698780D01*
X142423560Y-50698780D02*
X142423560Y-49901220D01*
X142075580Y-49901220D02*
X142423560Y-49901220D01*
X142075580Y-50698780D02*
X142075580Y-49901220D01*
X140226460Y-51097560D02*
X143025540Y-51097560D01*
X143025540Y-51097560D02*
X143025540Y-49502440D01*
X140226460Y-49502440D02*
X143025540Y-49502440D01*
X140226460Y-51097560D02*
X140226460Y-49502440D01*
D14*
X140902100Y-49952020D02*
X142349900Y-49952020D01*
X142349900Y-50647980D02*
X140902100Y-50647980D01*
G04 #@! TO.C,C4*
X144100100Y-49952020D02*
X145547900Y-49952020D01*
X145547900Y-50647980D02*
X144100100Y-50647980D01*
D12*
X146223540Y-49502440D02*
X146223540Y-51097560D01*
X146223540Y-51097560D02*
X143424460Y-51097560D01*
X143424460Y-49502440D02*
X143424460Y-51097560D01*
X146223540Y-49502440D02*
X143424460Y-49502440D01*
X144374420Y-49901220D02*
X144374420Y-50698780D01*
X144374420Y-50698780D02*
X144026440Y-50698780D01*
X144026440Y-49901220D02*
X144026440Y-50698780D01*
X144374420Y-49901220D02*
X144026440Y-49901220D01*
X145621560Y-49901220D02*
X145621560Y-50698780D01*
X145621560Y-50698780D02*
X145273580Y-50698780D01*
X145273580Y-49901220D02*
X145273580Y-50698780D01*
X145621560Y-49901220D02*
X145273580Y-49901220D01*
G04 #@! TO.C,C5*
X155552440Y-50498780D02*
X155900420Y-50498780D01*
X155900420Y-50498780D02*
X155900420Y-49701220D01*
X155552440Y-49701220D02*
X155900420Y-49701220D01*
X155552440Y-50498780D02*
X155552440Y-49701220D01*
X156799580Y-50498780D02*
X157147560Y-50498780D01*
X157147560Y-50498780D02*
X157147560Y-49701220D01*
X156799580Y-49701220D02*
X157147560Y-49701220D01*
X156799580Y-50498780D02*
X156799580Y-49701220D01*
X154950460Y-50897560D02*
X157749540Y-50897560D01*
X157749540Y-50897560D02*
X157749540Y-49302440D01*
X154950460Y-49302440D02*
X157749540Y-49302440D01*
X154950460Y-50897560D02*
X154950460Y-49302440D01*
D14*
X155626100Y-49752020D02*
X157073900Y-49752020D01*
X157073900Y-50447980D02*
X155626100Y-50447980D01*
G04 #@! TO.C,C6*
X144849900Y-34247980D02*
X143402100Y-34247980D01*
X143402100Y-33552020D02*
X144849900Y-33552020D01*
D12*
X142726460Y-34697560D02*
X142726460Y-33102440D01*
X142726460Y-33102440D02*
X145525540Y-33102440D01*
X145525540Y-34697560D02*
X145525540Y-33102440D01*
X142726460Y-34697560D02*
X145525540Y-34697560D01*
X144575580Y-34298780D02*
X144575580Y-33501220D01*
X144575580Y-33501220D02*
X144923560Y-33501220D01*
X144923560Y-34298780D02*
X144923560Y-33501220D01*
X144575580Y-34298780D02*
X144923560Y-34298780D01*
X143328440Y-34298780D02*
X143328440Y-33501220D01*
X143328440Y-33501220D02*
X143676420Y-33501220D01*
X143676420Y-34298780D02*
X143676420Y-33501220D01*
X143328440Y-34298780D02*
X143676420Y-34298780D01*
G04 #@! TO.C,C7*
X138023560Y-33451220D02*
X137675580Y-33451220D01*
X137675580Y-33451220D02*
X137675580Y-34248780D01*
X138023560Y-34248780D02*
X137675580Y-34248780D01*
X138023560Y-33451220D02*
X138023560Y-34248780D01*
X136776420Y-33451220D02*
X136428440Y-33451220D01*
X136428440Y-33451220D02*
X136428440Y-34248780D01*
X136776420Y-34248780D02*
X136428440Y-34248780D01*
X136776420Y-33451220D02*
X136776420Y-34248780D01*
X138625540Y-33052440D02*
X135826460Y-33052440D01*
X135826460Y-33052440D02*
X135826460Y-34647560D01*
X138625540Y-34647560D02*
X135826460Y-34647560D01*
X138625540Y-33052440D02*
X138625540Y-34647560D01*
D14*
X137949900Y-34197980D02*
X136502100Y-34197980D01*
X136502100Y-33502020D02*
X137949900Y-33502020D01*
D15*
G04 #@! TO.C,U1*
X135283177Y-46100000D02*
G75*
G03X135283177Y-46100000I-459675J0D01*
G01*
X156000000Y-37050000D02*
X133800000Y-37050000D01*
X156000000Y-47150000D02*
X156000000Y-37050000D01*
X133800000Y-47150000D02*
X156000000Y-47150000D01*
X133800000Y-37050000D02*
X133800000Y-47150000D01*
G04 #@! TO.C,C1*
D16*
X135812857Y-50429333D02*
X135861238Y-50477714D01*
X135909619Y-50622857D01*
X135909619Y-50719619D01*
X135861238Y-50864761D01*
X135764476Y-50961523D01*
X135667714Y-51009904D01*
X135474190Y-51058285D01*
X135329047Y-51058285D01*
X135135523Y-51009904D01*
X135038761Y-50961523D01*
X134942000Y-50864761D01*
X134893619Y-50719619D01*
X134893619Y-50622857D01*
X134942000Y-50477714D01*
X134990380Y-50429333D01*
X135909619Y-49461714D02*
X135909619Y-50042285D01*
X135909619Y-49752000D02*
X134893619Y-49752000D01*
X135038761Y-49848761D01*
X135135523Y-49945523D01*
X135183904Y-50042285D01*
G04 #@! TO.C,C2*
X133130666Y-49362857D02*
X133082285Y-49411238D01*
X132937142Y-49459619D01*
X132840380Y-49459619D01*
X132695238Y-49411238D01*
X132598476Y-49314476D01*
X132550095Y-49217714D01*
X132501714Y-49024190D01*
X132501714Y-48879047D01*
X132550095Y-48685523D01*
X132598476Y-48588761D01*
X132695238Y-48492000D01*
X132840380Y-48443619D01*
X132937142Y-48443619D01*
X133082285Y-48492000D01*
X133130666Y-48540380D01*
X133517714Y-48540380D02*
X133566095Y-48492000D01*
X133662857Y-48443619D01*
X133904761Y-48443619D01*
X134001523Y-48492000D01*
X134049904Y-48540380D01*
X134098285Y-48637142D01*
X134098285Y-48733904D01*
X134049904Y-48879047D01*
X133469333Y-49459619D01*
X134098285Y-49459619D01*
G04 #@! TO.C,C3*
X139832857Y-50519333D02*
X139881238Y-50567714D01*
X139929619Y-50712857D01*
X139929619Y-50809619D01*
X139881238Y-50954761D01*
X139784476Y-51051523D01*
X139687714Y-51099904D01*
X139494190Y-51148285D01*
X139349047Y-51148285D01*
X139155523Y-51099904D01*
X139058761Y-51051523D01*
X138962000Y-50954761D01*
X138913619Y-50809619D01*
X138913619Y-50712857D01*
X138962000Y-50567714D01*
X139010380Y-50519333D01*
X138913619Y-50180666D02*
X138913619Y-49551714D01*
X139300666Y-49890380D01*
X139300666Y-49745238D01*
X139349047Y-49648476D01*
X139397428Y-49600095D01*
X139494190Y-49551714D01*
X139736095Y-49551714D01*
X139832857Y-49600095D01*
X139881238Y-49648476D01*
X139929619Y-49745238D01*
X139929619Y-50035523D01*
X139881238Y-50132285D01*
X139832857Y-50180666D01*
G04 #@! TO.C,C4*
X146954666Y-50662857D02*
X146906285Y-50711238D01*
X146761142Y-50759619D01*
X146664380Y-50759619D01*
X146519238Y-50711238D01*
X146422476Y-50614476D01*
X146374095Y-50517714D01*
X146325714Y-50324190D01*
X146325714Y-50179047D01*
X146374095Y-49985523D01*
X146422476Y-49888761D01*
X146519238Y-49792000D01*
X146664380Y-49743619D01*
X146761142Y-49743619D01*
X146906285Y-49792000D01*
X146954666Y-49840380D01*
X147825523Y-50082285D02*
X147825523Y-50759619D01*
X147583619Y-49695238D02*
X147341714Y-50420952D01*
X147970666Y-50420952D01*
G04 #@! TO.C,C5*
X156762857Y-48469333D02*
X156811238Y-48517714D01*
X156859619Y-48662857D01*
X156859619Y-48759619D01*
X156811238Y-48904761D01*
X156714476Y-49001523D01*
X156617714Y-49049904D01*
X156424190Y-49098285D01*
X156279047Y-49098285D01*
X156085523Y-49049904D01*
X155988761Y-49001523D01*
X155892000Y-48904761D01*
X155843619Y-48759619D01*
X155843619Y-48662857D01*
X155892000Y-48517714D01*
X155940380Y-48469333D01*
X155843619Y-47550095D02*
X155843619Y-48033904D01*
X156327428Y-48082285D01*
X156279047Y-48033904D01*
X156230666Y-47937142D01*
X156230666Y-47695238D01*
X156279047Y-47598476D01*
X156327428Y-47550095D01*
X156424190Y-47501714D01*
X156666095Y-47501714D01*
X156762857Y-47550095D01*
X156811238Y-47598476D01*
X156859619Y-47695238D01*
X156859619Y-47937142D01*
X156811238Y-48033904D01*
X156762857Y-48082285D01*
G04 #@! TO.C,C6*
X146450666Y-34302857D02*
X146402285Y-34351238D01*
X146257142Y-34399619D01*
X146160380Y-34399619D01*
X146015238Y-34351238D01*
X145918476Y-34254476D01*
X145870095Y-34157714D01*
X145821714Y-33964190D01*
X145821714Y-33819047D01*
X145870095Y-33625523D01*
X145918476Y-33528761D01*
X146015238Y-33432000D01*
X146160380Y-33383619D01*
X146257142Y-33383619D01*
X146402285Y-33432000D01*
X146450666Y-33480380D01*
X147321523Y-33383619D02*
X147128000Y-33383619D01*
X147031238Y-33432000D01*
X146982857Y-33480380D01*
X146886095Y-33625523D01*
X146837714Y-33819047D01*
X146837714Y-34206095D01*
X146886095Y-34302857D01*
X146934476Y-34351238D01*
X147031238Y-34399619D01*
X147224761Y-34399619D01*
X147321523Y-34351238D01*
X147369904Y-34302857D01*
X147418285Y-34206095D01*
X147418285Y-33964190D01*
X147369904Y-33867428D01*
X147321523Y-33819047D01*
X147224761Y-33770666D01*
X147031238Y-33770666D01*
X146934476Y-33819047D01*
X146886095Y-33867428D01*
X146837714Y-33964190D01*
G04 #@! TO.C,C7*
X134456666Y-34312857D02*
X134408285Y-34361238D01*
X134263142Y-34409619D01*
X134166380Y-34409619D01*
X134021238Y-34361238D01*
X133924476Y-34264476D01*
X133876095Y-34167714D01*
X133827714Y-33974190D01*
X133827714Y-33829047D01*
X133876095Y-33635523D01*
X133924476Y-33538761D01*
X134021238Y-33442000D01*
X134166380Y-33393619D01*
X134263142Y-33393619D01*
X134408285Y-33442000D01*
X134456666Y-33490380D01*
X134795333Y-33393619D02*
X135472666Y-33393619D01*
X135037238Y-34409619D01*
G04 #@! TO.C,U1*
D15*
X132052380Y-42361904D02*
X132861904Y-42361904D01*
X132957142Y-42314285D01*
X133004761Y-42266666D01*
X133052380Y-42171428D01*
X133052380Y-41980952D01*
X133004761Y-41885714D01*
X132957142Y-41838095D01*
X132861904Y-41790476D01*
X132052380Y-41790476D01*
X133052380Y-40790476D02*
X133052380Y-41361904D01*
X133052380Y-41076190D02*
X132052380Y-41076190D01*
X132195238Y-41171428D01*
X132290476Y-41266666D01*
X132338095Y-41361904D01*
G04 #@! TD*
M02*
