G04 #@! TF.GenerationSoftware,KiCad,Pcbnew,(5.0.2)-1*
G04 #@! TF.CreationDate,2019-01-04T01:54:45+09:00*
G04 #@! TF.ProjectId,sdram-pane,73647261-6d2d-4706-916e-652e6b696361,v1.0*
G04 #@! TF.SameCoordinates,Original*
G04 #@! TF.FileFunction,Paste,Bot*
G04 #@! TF.FilePolarity,Positive*
%FSLAX46Y46*%
G04 Gerber Fmt 4.6, Leading zero omitted, Abs format (unit mm)*
G04 Created by KiCad (PCBNEW (5.0.2)-1) date 2019/01/04 1:54:45*
%MOMM*%
%LPD*%
G01*
G04 APERTURE LIST*
%ADD10O,1.524000X3.048000*%
G04 APERTURE END LIST*
D10*
G04 #@! TO.C,J1*
X118110000Y-53340000D03*
X120650000Y-53340000D03*
X123190000Y-53340000D03*
X125730000Y-53340000D03*
X128270000Y-53340000D03*
X130810000Y-53340000D03*
X133350000Y-53340000D03*
X135890000Y-53340000D03*
X138430000Y-53340000D03*
X140970000Y-53340000D03*
X143510000Y-53340000D03*
X146050000Y-53340000D03*
X148590000Y-53340000D03*
X151130000Y-53340000D03*
X153670000Y-53340000D03*
X156210000Y-53340000D03*
X158750000Y-53340000D03*
X161290000Y-53340000D03*
X163830000Y-53340000D03*
X166370000Y-53340000D03*
X168910000Y-53340000D03*
G04 #@! TD*
G04 #@! TO.C,J2*
X118110000Y-30480000D03*
X120650000Y-30480000D03*
X123190000Y-30480000D03*
X125730000Y-30480000D03*
X128270000Y-30480000D03*
X130810000Y-30480000D03*
X133350000Y-30480000D03*
X135890000Y-30480000D03*
X138430000Y-30480000D03*
X140970000Y-30480000D03*
X143510000Y-30480000D03*
X146050000Y-30480000D03*
X148590000Y-30480000D03*
X151130000Y-30480000D03*
X153670000Y-30480000D03*
X156210000Y-30480000D03*
X158750000Y-30480000D03*
X161290000Y-30480000D03*
X163830000Y-30480000D03*
X166370000Y-30480000D03*
X168910000Y-30480000D03*
G04 #@! TD*
G04 #@! TO.C,J1*
X118110000Y-79740000D03*
X120650000Y-79740000D03*
X123190000Y-79740000D03*
X125730000Y-79740000D03*
X128270000Y-79740000D03*
X130810000Y-79740000D03*
X133350000Y-79740000D03*
X135890000Y-79740000D03*
X138430000Y-79740000D03*
X140970000Y-79740000D03*
X143510000Y-79740000D03*
X146050000Y-79740000D03*
X148590000Y-79740000D03*
X151130000Y-79740000D03*
X153670000Y-79740000D03*
X156210000Y-79740000D03*
X158750000Y-79740000D03*
X161290000Y-79740000D03*
X163830000Y-79740000D03*
X166370000Y-79740000D03*
X168910000Y-79740000D03*
G04 #@! TD*
G04 #@! TO.C,J2*
X118110000Y-56880000D03*
X120650000Y-56880000D03*
X123190000Y-56880000D03*
X125730000Y-56880000D03*
X128270000Y-56880000D03*
X130810000Y-56880000D03*
X133350000Y-56880000D03*
X135890000Y-56880000D03*
X138430000Y-56880000D03*
X140970000Y-56880000D03*
X143510000Y-56880000D03*
X146050000Y-56880000D03*
X148590000Y-56880000D03*
X151130000Y-56880000D03*
X153670000Y-56880000D03*
X156210000Y-56880000D03*
X158750000Y-56880000D03*
X161290000Y-56880000D03*
X163830000Y-56880000D03*
X166370000Y-56880000D03*
X168910000Y-56880000D03*
G04 #@! TD*
G04 #@! TO.C,J1*
X118110000Y-106040000D03*
X120650000Y-106040000D03*
X123190000Y-106040000D03*
X125730000Y-106040000D03*
X128270000Y-106040000D03*
X130810000Y-106040000D03*
X133350000Y-106040000D03*
X135890000Y-106040000D03*
X138430000Y-106040000D03*
X140970000Y-106040000D03*
X143510000Y-106040000D03*
X146050000Y-106040000D03*
X148590000Y-106040000D03*
X151130000Y-106040000D03*
X153670000Y-106040000D03*
X156210000Y-106040000D03*
X158750000Y-106040000D03*
X161290000Y-106040000D03*
X163830000Y-106040000D03*
X166370000Y-106040000D03*
X168910000Y-106040000D03*
G04 #@! TD*
G04 #@! TO.C,J2*
X118110000Y-83180000D03*
X120650000Y-83180000D03*
X123190000Y-83180000D03*
X125730000Y-83180000D03*
X128270000Y-83180000D03*
X130810000Y-83180000D03*
X133350000Y-83180000D03*
X135890000Y-83180000D03*
X138430000Y-83180000D03*
X140970000Y-83180000D03*
X143510000Y-83180000D03*
X146050000Y-83180000D03*
X148590000Y-83180000D03*
X151130000Y-83180000D03*
X153670000Y-83180000D03*
X156210000Y-83180000D03*
X158750000Y-83180000D03*
X161290000Y-83180000D03*
X163830000Y-83180000D03*
X166370000Y-83180000D03*
X168910000Y-83180000D03*
G04 #@! TD*
M02*
