M48
;DRILL file {KiCad (5.0.2)-1} date 2019/01/04 1:55:05
;FORMAT={-:-/ absolute / metric / decimal}
FMAT,2
METRIC,TZ
T1C0.400
T2C1.016
%
G90
G05
T1
X124.3Y-50.6
X124.3Y-77.
X124.3Y-103.3
X124.8Y-33.1
X124.8Y-59.5
X124.8Y-85.8
X126.Y-34.45
X126.Y-48.8
X126.Y-60.85
X126.Y-75.2
X126.Y-87.15
X126.Y-101.5
X126.2Y-39.4
X126.2Y-65.8
X126.2Y-92.1
X128.3Y-47.9
X128.3Y-74.3
X128.3Y-100.6
X128.8Y-35.2
X128.8Y-61.6
X128.8Y-87.9
X129.439Y-32.223
X129.439Y-58.623
X129.439Y-84.923
X130.787Y-46.287
X130.787Y-72.687
X130.787Y-98.987
X131.6Y-37.7
X131.6Y-64.1
X131.6Y-90.4
X131.8Y-43.7
X131.8Y-70.1
X131.8Y-96.4
X132.2Y-33.8
X132.2Y-60.2
X132.2Y-86.5
X132.45Y-48.55
X132.45Y-74.95
X132.45Y-101.25
X134.2Y-49.65
X134.2Y-76.05
X134.2Y-102.35
X134.6Y-44.6
X134.6Y-71.
X134.6Y-97.3
X135.6Y-39.8
X135.6Y-66.2
X135.6Y-92.5
X136.1Y-43.7
X136.1Y-70.1
X136.1Y-96.4
X136.8Y-51.
X136.8Y-77.4
X136.8Y-103.7
X138.9Y-42.9
X138.9Y-69.3
X138.9Y-95.6
X139.205Y-34.738
X139.205Y-61.138
X139.205Y-87.438
X139.4Y-40.8
X139.4Y-67.2
X139.4Y-93.5
X139.55Y-49.95
X139.55Y-76.35
X139.55Y-102.65
X140.9Y-40.8
X140.9Y-67.2
X140.9Y-93.5
X141.6Y-43.
X141.6Y-69.4
X141.6Y-95.7
X141.776Y-34.237
X141.776Y-60.637
X141.776Y-86.937
X144.Y-43.
X144.Y-69.4
X144.Y-95.7
X144.6Y-40.8
X144.6Y-67.2
X144.6Y-93.5
X146.6Y-40.8
X146.6Y-43.
X146.6Y-67.2
X146.6Y-69.4
X146.6Y-93.5
X146.6Y-95.7
X148.2Y-40.8
X148.2Y-67.2
X148.2Y-93.5
X148.4Y-43.
X148.4Y-69.4
X148.4Y-95.7
X149.9Y-43.
X149.9Y-69.4
X149.9Y-95.7
X151.2Y-33.3
X151.2Y-59.7
X151.2Y-86.
X152.2Y-43.
X152.2Y-69.4
X152.2Y-95.7
X152.437Y-50.289
X152.437Y-76.689
X152.437Y-102.989
X153.187Y-40.813
X153.187Y-67.213
X153.187Y-93.513
X156.2Y-40.8
X156.2Y-43.4
X156.2Y-67.2
X156.2Y-69.8
X156.2Y-93.5
X156.2Y-96.1
X157.409Y-34.443
X157.409Y-60.843
X157.409Y-87.143
X157.48Y-48.941
X157.48Y-75.341
X157.48Y-101.641
X158.6Y-39.
X158.6Y-65.4
X158.6Y-91.7
X158.8Y-44.6
X158.8Y-71.
X158.8Y-97.3
X161.2Y-46.
X161.2Y-72.4
X161.2Y-98.7
X161.6Y-37.
X161.6Y-63.4
X161.6Y-89.7
X163.25Y-47.5
X163.25Y-73.9
X163.25Y-100.2
X163.8Y-35.2
X163.8Y-61.6
X163.8Y-87.9
X164.19Y-40.04
X164.19Y-66.44
X164.19Y-92.74
X166.4Y-33.4
X166.4Y-50.2
X166.4Y-59.8
X166.4Y-76.6
X166.4Y-86.1
X166.4Y-102.9
T2
X118.11Y-30.48
X120.65Y-30.48
X123.19Y-30.48
X125.73Y-30.48
X128.27Y-30.48
X130.81Y-30.48
X133.35Y-30.48
X135.89Y-30.48
X138.43Y-30.48
X140.97Y-30.48
X143.51Y-30.48
X146.05Y-30.48
X148.59Y-30.48
X151.13Y-30.48
X153.67Y-30.48
X156.21Y-30.48
X158.75Y-30.48
X161.29Y-30.48
X163.83Y-30.48
X166.37Y-30.48
X168.91Y-30.48
X118.11Y-106.04
X120.65Y-106.04
X123.19Y-106.04
X125.73Y-106.04
X128.27Y-106.04
X130.81Y-106.04
X133.35Y-106.04
X135.89Y-106.04
X138.43Y-106.04
X140.97Y-106.04
X143.51Y-106.04
X146.05Y-106.04
X148.59Y-106.04
X151.13Y-106.04
X153.67Y-106.04
X156.21Y-106.04
X158.75Y-106.04
X161.29Y-106.04
X163.83Y-106.04
X166.37Y-106.04
X168.91Y-106.04
X118.11Y-53.34
X120.65Y-53.34
X123.19Y-53.34
X125.73Y-53.34
X128.27Y-53.34
X130.81Y-53.34
X133.35Y-53.34
X135.89Y-53.34
X138.43Y-53.34
X140.97Y-53.34
X143.51Y-53.34
X146.05Y-53.34
X148.59Y-53.34
X151.13Y-53.34
X153.67Y-53.34
X156.21Y-53.34
X158.75Y-53.34
X161.29Y-53.34
X163.83Y-53.34
X166.37Y-53.34
X168.91Y-53.34
X118.11Y-56.88
X120.65Y-56.88
X123.19Y-56.88
X125.73Y-56.88
X128.27Y-56.88
X130.81Y-56.88
X133.35Y-56.88
X135.89Y-56.88
X138.43Y-56.88
X140.97Y-56.88
X143.51Y-56.88
X146.05Y-56.88
X148.59Y-56.88
X151.13Y-56.88
X153.67Y-56.88
X156.21Y-56.88
X158.75Y-56.88
X161.29Y-56.88
X163.83Y-56.88
X166.37Y-56.88
X168.91Y-56.88
X118.11Y-83.18
X120.65Y-83.18
X123.19Y-83.18
X125.73Y-83.18
X128.27Y-83.18
X130.81Y-83.18
X133.35Y-83.18
X135.89Y-83.18
X138.43Y-83.18
X140.97Y-83.18
X143.51Y-83.18
X146.05Y-83.18
X148.59Y-83.18
X151.13Y-83.18
X153.67Y-83.18
X156.21Y-83.18
X158.75Y-83.18
X161.29Y-83.18
X163.83Y-83.18
X166.37Y-83.18
X168.91Y-83.18
X118.11Y-79.74
X120.65Y-79.74
X123.19Y-79.74
X125.73Y-79.74
X128.27Y-79.74
X130.81Y-79.74
X133.35Y-79.74
X135.89Y-79.74
X138.43Y-79.74
X140.97Y-79.74
X143.51Y-79.74
X146.05Y-79.74
X148.59Y-79.74
X151.13Y-79.74
X153.67Y-79.74
X156.21Y-79.74
X158.75Y-79.74
X161.29Y-79.74
X163.83Y-79.74
X166.37Y-79.74
X168.91Y-79.74
T0
M30
